SplineFontDB: 3.2
FontName: FreeSerifBoldItalic
FullName: FreeSerif Bold Italic
FamilyName: FreeSerif
Weight: Bold
Copyright: Copyright 2002, 2003, 2005, 2008, 2009, 2010, 2012, 2020 GNU Freefont contributors.
Version: $Revision: 4253 $
ItalicAngle: -15.3
UnderlinePosition: -100
UnderlineWidth: 50
Ascent: 800
Descent: 200
InvalidEm: 0
LayerCount: 2
Layer: 0 0 "Back" 1
Layer: 1 0 "Fore" 0
FSType: 0
OS2Version: 4
OS2_WeightWidthSlopeOnly: 0
OS2_UseTypoMetrics: 1
CreationTime: 1203284335
ModificationTime: 1599687748
PfmFamily: 17
TTFWeight: 700
TTFWidth: 5
LineGap: 100
VLineGap: 0
Panose: 2 2 8 3 6 5 5 9 3 4
OS2TypoAscent: 0
OS2TypoAOffset: 1
OS2TypoDescent: 0
OS2TypoDOffset: 1
OS2TypoLinegap: 100
OS2WinAscent: 0
OS2WinAOffset: 1
OS2WinDescent: 0
OS2WinDOffset: 1
HheadAscent: 0
HheadAOffset: 1
HheadDescent: 0
HheadDOffset: 1
OS2SubXSize: 650
OS2SubYSize: 600
OS2SubXOff: 0
OS2SubYOff: 200
OS2SupXSize: 650
OS2SupYSize: 600
OS2SupXOff: 0
OS2SupYOff: 390
OS2StrikeYSize: 49
OS2StrikeYPos: 258
OS2FamilyClass: 261
OS2Vendor: 'GNU '
OS2CodePages: 600101bf.00000000
OS2UnicodeRanges: e5000eff.4200e5ff.08001020.00000040
Lookup: 2 0 0 "subst. i-ogonek with dotless-i+-ogonek" { "subst. i-ogonek with dotless-i+-ogonek"  } []
Lookup: 4 0 0 "ordinal symbols in Latin" { "ordinal symbols in Latin-3"  "ordinal symbols in Latin-2"  "ordinal symbols in Latin-1"  } []
Lookup: 1 0 0 "stretch1300" { "stretch1300"  } []
Lookup: 1 0 0 "stretch1200" { "stretch1200"  } []
Lookup: 1 0 0 "stretch1100" { "stretch1100"  } []
Lookup: 1 0 0 "stretch1000" { "stretch1000-1"  } []
Lookup: 1 0 0 "stretch900" { "stretch900-1"  } []
Lookup: 1 0 0 "stretch800" { "stretch800-1"  } []
Lookup: 1 0 0 "stretch700" { "stretch700-1"  } []
Lookup: 1 0 0 "stretch600" { "stretch600-1"  } []
Lookup: 1 0 0 "stretch550" { "stretch550-1"  } []
Lookup: 1 0 0 "stretch450" { "stretch450-1"  } []
Lookup: 1 0 0 "stretch400" { "stretch400-1"  } []
Lookup: 1 0 0 "positional forms in Greek" { "positional forms in Greek-1"  } []

StartChar: exclam
Encoding: 33 33 1
Width: 389
Flags: HMW
LayerCount: 2
Fore
SplineSet
167 212 m 1
 243 608 199 684 301 684 c 0
 342 684 370 655 370 611 c 0
 370 540 316 513 196 204 c 1
 167 212 l 1
140 133 m 0
 178 133 213 97 213 58 c 0
 213 19 180 -13 139 -13 c 0
 98 -13 67 17 67 58 c 0
 67 100 99 133 140 133 c 0
EndSplineSet
Validated: 1
EndChar

StartChar: quotedbl
Encoding: 34 34 2
Width: 555
Flags: HMW
LayerCount: 2
Fore
SplineSet
177 398 m 1
 136 398 l 1
 152 612 l 1
 155 650 192 685 230 685 c 0
 256 685 276 663 276 636 c 0
 276 624 276 622 259 584 c 2
 177 398 l 1
437 398 m 1
 396 398 l 1
 412 612 l 1
 415 650 452 685 490 685 c 0
 516 685 536 663 536 636 c 0
 536 624 536 622 519 584 c 2
 437 398 l 1
EndSplineSet
Validated: 1
EndChar

StartChar: numbersign
Encoding: 35 35 3
Width: 500
Flags: HMW
LayerCount: 2
Fore
SplineSet
449 283 m 1
 429 210 l 1
 332 210 l 1
 247 0 l 1
 169 0 l 1
 254 210 l 1
 141 210 l 1
 56 0 l 1
 -22 0 l 1
 63 210 l 1
 -33 210 l 1
 -13 283 l 1
 93 283 l 1
 147 417 l 1
 51 417 l 1
 71 490 l 1
 176 490 l 1
 263 700 l 1
 340 700 l 1
 254 490 l 1
 367 490 l 1
 454 700 l 1
 531 700 l 1
 445 490 l 1
 533 490 l 1
 513 417 l 1
 416 417 l 1
 362 283 l 1
 449 283 l 1
338 417 m 1
 225 417 l 1
 171 283 l 1
 284 283 l 1
 338 417 l 1
EndSplineSet
Validated: 1
EndChar

StartChar: dollar
Encoding: 36 36 4
Width: 500
Flags: HMW
LayerCount: 2
Fore
SplineSet
292 410 m 1
 370 342 432 290 432 201 c 0
 432 87 331 0 201 0 c 2
 178 0 l 1
 150 -100 l 1
 98 -100 l 1
 127 7 l 1
 64 22 33 39 -20 86 c 1
 22 228 l 1
 44 222 l 1
 47 114 67 74 137 42 c 1
 211 303 l 1
 105 384 79 420 79 488 c 0
 79 591 164 670 275 670 c 0
 283 670 291 670 313 668 c 1
 331 733 l 1
 381 733 l 1
 361 661 l 1
 394 655 441 636 479 612 c 1
 497 598 l 1
 455 465 l 1
 434 470 l 1
 435 481 435 494 435 500 c 0
 435 569 411 605 351 625 c 1
 292 410 l 1
248 436 m 1
 303 635 l 1
 298 637 294 637 288 637 c 0
 222 637 178 599 178 542 c 0
 178 502 195 476 248 436 c 1
186 32 m 1
 302 32 323 106 323 157 c 0
 323 204 308 230 253 274 c 1
 186 32 l 1
EndSplineSet
Validated: 1
EndChar

StartChar: percent
Encoding: 37 37 5
Width: 833
Flags: HMW
LayerCount: 2
Fore
SplineSet
450 128 m 0
 450 233 550 376 676 376 c 0
 746 376 793 329 793 260 c 0
 793 203 748 -10 583 -10 c 0
 503 -10 450 45 450 128 c 0
759 257 m 0
 759 298 735 325 706 325 c 0
 628 325 567 133 567 89 c 0
 567 59 588 36 617 36 c 0
 693 36 759 174 759 257 c 0
263 679 m 0
 341 679 332 623 436 623 c 0
 499 623 549 643 605 692 c 1
 644 692 l 1
 250 -8 l 1
 194 -8 l 1
 543 612 l 1
 500 594 461 585 424 585 c 0
 414 585 401 587 381 590 c 1
 379 411 282 294 168 294 c 0
 93 294 39 351 39 431 c 0
 39 555 151 679 263 679 c 0
285 631 m 0
 223 631 154 442 154 390 c 0
 154 361 174 340 202 340 c 0
 272 340 347 463 347 577 c 0
 347 618 328 597 302 623 c 0
 297 627 292 631 285 631 c 0
EndSplineSet
Validated: 1
EndChar

StartChar: ampersand
Encoding: 38 38 6
Width: 778
Flags: HMW
LayerCount: 2
Fore
SplineSet
5 148 m 0
 5 298 186 359 245 384 c 1
 237 429 234 452 234 476 c 0
 234 598 309 682 419 682 c 0
 499 682 557 634 557 568 c 0
 557 501 499 446 375 396 c 1
 387 322 420 235 461 169 c 1
 518 241 535 270 535 298 c 0
 535 320 521 329 479 336 c 1
 479 361 l 1
 691 361 l 1
 691 336 l 1
 629 324 624 319 486 133 c 1
 525 82 557 61 596 61 c 0
 623 61 644 72 673 101 c 1
 699 80 l 1
 638 7 595 -18 529 -18 c 0
 476 -18 435 0 390 44 c 1
 324 -1 268 -19 198 -19 c 0
 84 -19 5 49 5 148 c 0
253 343 m 1
 169 302 138 260 138 190 c 0
 138 111 193 52 265 52 c 0
 296 52 322 60 362 80 c 1
 306 167 279 232 253 343 c 1
366 434 m 1
 391 449 477 493 477 582 c 0
 477 624 458 649 425 649 c 0
 380 649 355 607 355 530 c 0
 355 505 357 488 366 434 c 1
EndSplineSet
Validated: 1
EndChar

StartChar: quotesingle
Encoding: 39 39 7
Width: 278
Flags: HMW
LayerCount: 2
Fore
SplineSet
169 398 m 1
 128 398 l 1
 144 612 l 1
 147 650 184 685 222 685 c 0
 248 685 268 663 268 636 c 0
 268 624 268 622 251 584 c 2
 169 398 l 1
EndSplineSet
Validated: 1
EndChar

StartChar: parenleft
Encoding: 40 40 8
Width: 333
Flags: HMW
LayerCount: 2
Fore
SplineSet
344 665 m 1
 255 583 122 443 122 110 c 0
 122 -6 138 -68 193 -164 c 1
 170 -179 l 1
 69 -41 28 70 28 207 c 0
 28 494 252 631 326 685 c 1
 344 665 l 1
EndSplineSet
Validated: 1
Substitution2: "'dnom' denominators-1" parenleftinferior
Substitution2: "'numr' numerators-1" parenleftsuperior
Substitution2: "'subs' subscript-punct" parenleftinferior
Substitution2: "'sups' superscript-punct" parenleftsuperior
Substitution2: "'subs' subscript-numeric" parenleftinferior
EndChar

StartChar: parenright
Encoding: 41 41 9
Width: 333
Flags: HMW
LayerCount: 2
Fore
SplineSet
128 685 m 1
 211 571 271 457 271 299 c 0
 271 18 46 -127 -27 -179 c 1
 -44 -159 l 1
 32 -89 63 -51 95 14 c 0
 145 114 177 266 177 399 c 0
 177 513 159 580 105 670 c 1
 128 685 l 1
EndSplineSet
Validated: 1
Substitution2: "'dnom' denominators-1" parenrightinferior
Substitution2: "'numr' numerators-1" parenrightsuperior
Substitution2: "'subs' subscript-punct" parenrightinferior
Substitution2: "'sups' superscript-punct" parenrightsuperior
Substitution2: "'subs' subscript-numeric" parenrightinferior
EndChar

StartChar: asterisk
Encoding: 42 42 10
Width: 500
Flags: HMW
LayerCount: 2
Fore
SplineSet
144 497 m 0
 77 497 65 529 65 549 c 0
 65 577 89 603 114 603 c 0
 168 603 175 527 242 488 c 2
 253 482 l 1
 253 494 l 2
 253 575 210 585 210 633 c 0
 210 664 230 685 261 685 c 0
 291 685 311 664 311 633 c 0
 311 587 268 573 268 494 c 2
 268 482 l 1
 279 488 l 2
 348 528 352 603 407 603 c 0
 432 603 456 577 456 548 c 0
 456 526 440 497 377 497 c 0
 333 496 320 493 287 474 c 2
 276 468 l 1
 287 462 l 2
 320 443 331 441 377 439 c 0
 444 439 456 408 456 388 c 0
 456 359 433 334 406 334 c 0
 354 334 347 407 279 448 c 2
 268 454 l 1
 268 442 l 2
 268 364 311 351 311 303 c 0
 311 273 291 252 260 252 c 0
 230 252 210 273 210 304 c 0
 210 352 253 360 253 442 c 2
 253 454 l 1
 242 448 l 2
 170 405 168 334 115 334 c 0
 88 334 65 359 65 388 c 0
 65 408 77 439 144 439 c 0
 190 441 201 443 234 462 c 2
 245 468 l 1
 234 474 l 2
 201 493 188 496 144 497 c 0
EndSplineSet
Validated: 1
AlternateSubs2: "'ornm' ornaments-1" uni2055
EndChar

StartChar: plus
Encoding: 43 43 11
Width: 676
Flags: HMW
LayerCount: 2
Fore
SplineSet
614 209 m 1
 387 209 l 1
 387 -16 l 1
 291 -16 l 1
 291 209 l 1
 62 209 l 1
 62 305 l 1
 291 305 l 1
 291 528 l 1
 387 528 l 1
 387 305 l 1
 614 305 l 1
 614 209 l 1
EndSplineSet
Validated: 1
Substitution2: "'dnom' denominators-1" plusinferior
Substitution2: "'numr' numerators-1" plussuperior
Substitution2: "'subs' subscript-numeric" plusinferior
Substitution2: "'sups' superscript-numeric" plussuperior
EndChar

StartChar: comma
Encoding: 44 44 12
Width: 250
Flags: HMW
LayerCount: 2
Fore
SplineSet
58 -41 m 0
 58 1 -12 -4 -12 61 c 0
 -12 103 18 134 59 134 c 0
 110 134 144 95 144 36 c 0
 144 -45 68 -131 -47 -182 c 1
 -60 -158 l 1
 18 -116 58 -77 58 -41 c 0
EndSplineSet
Validated: 1
Substitution2: "'dnom' denominators-1" dnom_comma
Substitution2: "'numr' numerators-1" sup.comma
Substitution2: "'subs' subscript-punct" sub.comma
Substitution2: "'sups' superscript-punct" sup.comma
EndChar

StartChar: hyphen
Encoding: 45 45 13
Width: 333
Flags: HMW
LayerCount: 2
Fore
SplineSet
311 282 m 5
 288 166 l 5
 42 166 l 5
 66 282 l 5
 311 282 l 5
EndSplineSet
Validated: 1
EndChar

StartChar: period
Encoding: 46 46 14
Width: 250
Flags: HMW
LayerCount: 2
Fore
SplineSet
66 135 m 0
 106 135 139 101 139 61 c 0
 139 19 106 -13 64 -13 c 0
 23 -13 -9 19 -9 60 c 0
 -9 103 23 135 66 135 c 0
EndSplineSet
Validated: 1
Substitution2: "'dnom' denominators-1" dnom_period
Substitution2: "'numr' numerators-1" sup.period
Substitution2: "'subs' subscript-punct" sub.period
Substitution2: "'sups' superscript-punct" sup.period
EndChar

StartChar: slash
Encoding: 47 47 15
Width: 335
Flags: HMW
LayerCount: 2
Fore
SplineSet
384 685 m 1
 471 685 l 1
 83 -18 l 1
 -4 -18 l 1
 384 685 l 1
EndSplineSet
Validated: 1
EndChar

StartChar: zero
Encoding: 48 48 16
Width: 500
Flags: HMW
AnchorPoint: "middle" 250 350 basechar 0
LayerCount: 2
Fore
SplineSet
17 206 m 0
 17 404 141 683 327 683 c 0
 418 683 477 588 477 442 c 0
 477 254 357 -14 177 -14 c 0
 81 -14 17 73 17 206 c 0
325 654 m 0
 288 654 260 614 223 510 c 0
 176 380 120 145 120 81 c 0
 120 41 140 15 170 15 c 0
 211 15 240 53 273 149 c 0
 299 224 374 510 374 582 c 0
 374 627 356 654 325 654 c 0
EndSplineSet
Validated: 1
Substitution2: "'dnom' denominators-1" dnom_zero
Substitution2: "'numr' numerators-1" zerosuperior
Substitution2: "'subs' subscript-numeric" zeroinferior
Substitution2: "'sups' superscript-numeric" zerosuperior
Substitution2: "'pnum' proportional-width numbers-2" fit.zero
Substitution2: "'onum' oldstyle figures-lining" old.zero
Substitution2: "'zero' slashed zero-1" zeroslashed
EndChar

StartChar: one
Encoding: 49 49 17
Width: 500
Flags: HMW
LayerCount: 2
Fore
SplineSet
5 0 m 1
 5 23 l 1
 77 23 109 42 124 97 c 0
 252 556 l 1
 254 565 256 574 256 580 c 0
 256 602 241 613 210 613 c 0
 191 613 174 612 147 608 c 1
 149 631 l 1
 265 648 328 661 419 683 c 1
 265 123 l 2
 254 83 253 78 253 69 c 0
 253 32 271 24 350 23 c 1
 350 0 l 1
 5 0 l 1
EndSplineSet
Validated: 1
Substitution2: "'dnom' denominators-1" dnom_one
Substitution2: "'numr' numerators-1" onesuperior
Substitution2: "'subs' subscript-numeric" oneinferior
Substitution2: "'sups' superscript-numeric" onesuperior
Substitution2: "'pnum' proportional-width numbers-2" fit.one
Substitution2: "'onum' oldstyle figures-lining" old.one
EndChar

StartChar: two
Encoding: 50 50 18
Width: 500
Flags: HMW
LayerCount: 2
Fore
SplineSet
104 519 m 1
 129 567 191 683 321 683 c 0
 414 683 486 609 486 515 c 0
 486 440 436 358 342 278 c 2
 146 111 l 1
 295 111 l 2
 373 111 396 125 434 191 c 1
 459 191 l 1
 380 0 l 1
 13 0 l 1
 13 24 l 1
 103 114 l 2
 291 301 352 392 352 483 c 0
 352 552 317 593 259 593 c 0
 207 593 166 566 126 507 c 1
 104 519 l 1
EndSplineSet
Validated: 1
Substitution2: "'dnom' denominators-1" dnom_two
Substitution2: "'numr' numerators-1" twosuperior
Substitution2: "'subs' subscript-numeric" twoinferior
Substitution2: "'sups' superscript-numeric" twosuperior
Substitution2: "'pnum' proportional-width numbers-2" fit.two
Substitution2: "'onum' oldstyle figures-lining" old.two
EndChar

StartChar: three
Encoding: 51 51 19
Width: 500
Flags: HMW
LayerCount: 2
Fore
SplineSet
305 189 m 0
 305 252 283 341 148 347 c 1
 152 369 l 1
 281 396 341 445 341 522 c 0
 341 577 307 612 254 612 c 0
 207 612 179 594 138 537 c 1
 117 550 l 1
 179 643 240 683 321 683 c 0
 406 683 470 625 470 547 c 0
 470 487 434 438 363 403 c 2
 351 397 l 1
 408 354 428 316 428 250 c 0
 428 104 299 -13 138 -13 c 0
 56 -13 5 18 5 67 c 0
 5 101 29 123 65 123 c 0
 139 123 122 27 195 27 c 0
 256 27 305 100 305 189 c 0
EndSplineSet
Validated: 1
Substitution2: "'dnom' denominators-1" dnom_three
Substitution2: "'numr' numerators-1" threesuperior
Substitution2: "'subs' subscript-numeric" threeinferior
Substitution2: "'sups' superscript-numeric" threesuperior
Substitution2: "'pnum' proportional-width numbers-2" fit.three
Substitution2: "'onum' oldstyle figures-lining" old.three
EndChar

StartChar: four
Encoding: 52 52 20
Width: 500
Flags: HMW
LayerCount: 2
Fore
SplineSet
473 248 m 1
 446 150 l 1
 378 150 l 1
 336 0 l 1
 208 0 l 1
 249 150 l 1
 5 150 l 1
 33 255 l 1
 460 683 l 1
 523 683 l 1
 404 248 l 1
 473 248 l 1
73 248 m 1
 276 248 l 1
 355 528 l 1
 73 248 l 1
EndSplineSet
Validated: 1
Substitution2: "'dnom' denominators-1" dnom_four
Substitution2: "'numr' numerators-1" foursuperior
Substitution2: "'subs' subscript-numeric" fourinferior
Substitution2: "'sups' superscript-numeric" foursuperior
Substitution2: "'pnum' proportional-width numbers-2" fit.four
Substitution2: "'onum' oldstyle figures-lining" old.four
EndChar

StartChar: five
Encoding: 53 53 21
Width: 500
Flags: HMW
LayerCount: 2
Fore
SplineSet
327 189 m 0
 327 260 286 363 93 372 c 1
 224 669 l 1
 507 669 l 1
 471 560 l 1
 217 560 l 1
 183 484 l 1
 275 465 302 456 336 433 c 0
 398 393 432 328 432 250 c 0
 432 102 304 -13 140 -13 c 0
 61 -13 9 19 9 66 c 0
 9 99 34 123 68 123 c 0
 139 123 136 27 193 27 c 0
 263 27 327 104 327 189 c 0
EndSplineSet
Validated: 1
Substitution2: "'dnom' denominators-1" dnom_five
Substitution2: "'numr' numerators-1" fivesuperior
Substitution2: "'subs' subscript-numeric" fiveinferior
Substitution2: "'sups' superscript-numeric" fivesuperior
Substitution2: "'pnum' proportional-width numbers-2" fit.five
Substitution2: "'onum' oldstyle figures-lining" old.five
EndChar

StartChar: six
Encoding: 54 54 22
Width: 500
Flags: HMW
LayerCount: 2
Fore
SplineSet
508 679 m 1
 514 655 l 1
 379 604 297 530 236 409 c 1
 266 419 278 422 298 422 c 0
 391 422 448 357 448 251 c 0
 448 103 339 -15 202 -15 c 0
 93 -15 28 64 28 195 c 0
 28 336 103 475 229 569 c 0
 310 628 374 653 508 679 c 1
256 382 m 0
 224 382 215 373 194 320 c 0
 161 238 140 148 140 95 c 0
 140 42 158 17 195 17 c 0
 220 17 243 32 256 56 c 0
 289 119 324 253 324 315 c 0
 324 361 303 382 256 382 c 0
EndSplineSet
Validated: 1
Substitution2: "'dnom' denominators-1" dnom_six
Substitution2: "'numr' numerators-1" sixsuperior
Substitution2: "'subs' subscript-numeric" sixinferior
Substitution2: "'sups' superscript-numeric" sixsuperior
Substitution2: "'pnum' proportional-width numbers-2" fit.six
Substitution2: "'onum' oldstyle figures-lining" old.six
EndChar

StartChar: seven
Encoding: 55 55 23
Width: 500
Flags: HMW
LayerCount: 2
Fore
SplineSet
103 479 m 1
 77 479 l 1
 164 669 l 1
 545 669 l 1
 164 0 l 1
 72 0 l 1
 404 556 l 1
 271 556 l 2
 167 556 140 544 103 479 c 1
EndSplineSet
Validated: 1
Substitution2: "'dnom' denominators-1" dnom_seven
Substitution2: "'numr' numerators-1" sevensuperior
Substitution2: "'subs' subscript-numeric" seveninferior
Substitution2: "'sups' superscript-numeric" sevensuperior
Substitution2: "'pnum' proportional-width numbers-2" fit.seven
Substitution2: "'onum' oldstyle figures-lining" old.seven
EndChar

StartChar: eight
Encoding: 56 56 24
Width: 500
Flags: HMW
LayerCount: 2
Fore
SplineSet
310 683 m 0
 401 683 486 629 486 540 c 0
 486 469 446 425 343 381 c 1
 343 376 l 1
 404 309 429 257 429 193 c 0
 429 74 335 -13 207 -13 c 0
 92 -13 13 54 13 153 c 0
 13 238 69 296 193 340 c 1
 193 345 l 1
 137 404 119 441 119 499 c 0
 119 605 200 683 310 683 c 0
219 321 m 1
 187 299 110 249 110 141 c 0
 110 64 148 17 209 17 c 0
 271 17 316 72 316 147 c 0
 316 199 305 219 219 321 c 1
320 403 m 1
 377 463 393 493 393 544 c 0
 393 608 361 650 312 650 c 0
 264 650 230 609 230 553 c 0
 230 504 251 468 320 403 c 1
EndSplineSet
Validated: 1
Substitution2: "'dnom' denominators-1" dnom_eight
Substitution2: "'numr' numerators-1" eightsuperior
Substitution2: "'subs' subscript-numeric" eightinferior
Substitution2: "'sups' superscript-numeric" eightsuperior
Substitution2: "'pnum' proportional-width numbers-2" fit.eight
Substitution2: "'onum' oldstyle figures-lining" old.eight
EndChar

StartChar: nine
Encoding: 57 57 25
Width: 500
Flags: HMW
LayerCount: 2
Fore
SplineSet
311 683 m 0
 452 683 487 558 487 476 c 0
 487 334 410 191 285 99 c 0
 205 40 141 15 6 -10 c 1
 0 15 l 1
 122 52 216 135 277 259 c 1
 253 248 238 245 216 245 c 0
 126 245 65 312 65 412 c 0
 65 564 173 683 311 683 c 0
326 651 m 0
 240 651 189 455 189 352 c 0
 189 311 212 288 255 288 c 0
 297 288 305 298 332 377 c 0
 344 413 375 494 375 582 c 0
 375 628 359 651 326 651 c 0
EndSplineSet
Validated: 1
Substitution2: "'dnom' denominators-1" dnom_nine
Substitution2: "'numr' numerators-1" ninesuperior
Substitution2: "'subs' subscript-numeric" nineinferior
Substitution2: "'sups' superscript-numeric" ninesuperior
Substitution2: "'pnum' proportional-width numbers-2" fit.nine
Substitution2: "'onum' oldstyle figures-lining" old.nine
EndChar

StartChar: colon
Encoding: 58 58 26
Width: 250
Flags: HMW
LayerCount: 2
Fore
SplineSet
98 135 m 0
 138 135 171 101 171 61 c 0
 171 19 138 -13 96 -13 c 0
 55 -13 23 19 23 61 c 0
 23 103 56 135 98 135 c 0
191 459 m 0
 231 459 264 425 264 385 c 0
 264 343 231 311 189 311 c 0
 148 311 116 343 116 385 c 0
 116 427 149 459 191 459 c 0
EndSplineSet
Validated: 1
EndChar

StartChar: semicolon
Encoding: 59 59 27
Width: 250
Flags: HMW
LayerCount: 2
Fore
SplineSet
93 -42 m 0
 93 0 23 -5 23 60 c 0
 23 102 53 133 94 133 c 0
 145 133 179 94 179 35 c 0
 179 -46 104 -132 -12 -183 c 1
 -25 -159 l 1
 53 -117 93 -78 93 -42 c 0
191 459 m 0
 231 459 264 425 264 385 c 0
 264 343 231 311 189 311 c 0
 148 311 116 343 116 385 c 0
 116 427 149 459 191 459 c 0
EndSplineSet
Validated: 1
Substitution2: "'locl' local forms in Greek-punctuation" questiongreek
EndChar

StartChar: less
Encoding: 60 60 28
Width: 676
Flags: HMW
LayerCount: 2
Fore
SplineSet
592 -12 m 1
 84 211 l 1
 84 295 l 1
 592 518 l 1
 592 422 l 1
 207 253 l 1
 592 84 l 1
 592 -12 l 1
EndSplineSet
Validated: 1
EndChar

StartChar: equal
Encoding: 61 61 29
Width: 676
Flags: HMW
LayerCount: 2
Fore
SplineSet
590 399 m 1
 590 311 l 1
 86 311 l 1
 86 399 l 1
 590 399 l 1
590 195 m 1
 590 107 l 1
 86 107 l 1
 86 195 l 1
 590 195 l 1
EndSplineSet
Validated: 1
EndChar

StartChar: greater
Encoding: 62 62 30
Width: 676
Flags: HMW
LayerCount: 2
Fore
SplineSet
84 -12 m 1
 84 84 l 1
 469 253 l 1
 84 422 l 1
 84 518 l 1
 592 295 l 1
 592 211 l 1
 84 -12 l 1
EndSplineSet
Validated: 1
EndChar

StartChar: question
Encoding: 63 63 31
Width: 500
Flags: HMW
LayerCount: 2
Fore
SplineSet
212 615 m 0
 212 601 241 579 241 547 c 0
 241 515 214 488 180 488 c 0
 146 488 119 517 119 555 c 0
 119 630 193 684 294 684 c 0
 399 684 470 626 470 539 c 0
 470 477 433 427 344 369 c 2
 278 326 l 2
 240 301 224 278 196 208 c 1
 167 215 l 1
 171 270 192 316 238 374 c 2
 279 425 l 2
 323 480 343 526 343 573 c 0
 343 622 316 653 274 653 c 0
 242 653 212 634 212 615 c 0
154 135 m 0
 194 135 227 101 227 61 c 0
 227 19 194 -13 152 -13 c 0
 111 -13 79 19 79 61 c 0
 79 103 112 135 154 135 c 0
EndSplineSet
Validated: 1
EndChar

StartChar: at
Encoding: 64 64 32
Width: 832
Flags: HMW
LayerCount: 2
Fore
SplineSet
528 458 m 0
 528 481 513 495 497 495 c 0
 448 495 371 334 371 254 c 0
 371 230 386 212 406 212 c 0
 475 212 528 405 528 458 c 0
564 223 m 0
 564 192 576 185 601 185 c 0
 667 185 724 279 724 385 c 0
 724 529 596 642 440 642 c 0
 274 642 164 515 164 325 c 0
 164 151 278 37 453 37 c 0
 520 37 569 43 651 80 c 1
 665 41 l 1
 568 -5 515 -19 441 -19 c 0
 228 -19 62 134 62 330 c 0
 62 531 229 691 439 691 c 0
 629 691 776 560 776 390 c 0
 776 257 689 143 587 143 c 0
 521 143 476 163 476 208 c 0
 476 219 478 230 487 260 c 1
 443 186 407 157 359 157 c 0
 308 157 275 197 275 256 c 0
 275 378 392 527 488 527 c 0
 522 527 538 511 545 471 c 1
 559 517 l 1
 646 523 l 1
 591 339 l 2
 572 276 564 243 564 223 c 0
EndSplineSet
Validated: 1
EndChar

StartChar: A
Encoding: 65 65 33
Width: 696
Flags: HMW
AnchorPoint: "ogonek" 586 0 basechar 0
AnchorPoint: "middle" 350 222 basechar 0
AnchorPoint: "above" 468 668 basechar 0
AnchorPoint: "below" 305 0 basechar 0
LayerCount: 2
Fore
SplineSet
435 84 m 0
 435 110 427 151 420 208 c 1
 205 208 l 1
 146 106 l 2
 136 89 131 73 131 60 c 0
 131 36 150 25 196 25 c 1
 196 0 l 1
 0 0 l 1
 0 25 l 1
 36 33 52 46 83 95 c 2
 455 683 l 1
 480 683 l 1
 576 111 l 2
 589 35 594 30 660 25 c 1
 660 0 l 1
 356 0 l 1
 356 25 l 1
 420 31 435 42 435 84 c 0
228 248 m 1
 413 248 l 1
 376 491 l 1
 228 248 l 1
EndSplineSet
Validated: 1
Substitution2: "'c2sc' caps to small caps in Latin-1" sc.a
Substitution2: "'sups' superscript-latin" Asup
EndChar

StartChar: B
Encoding: 66 66 34
Width: 640
Flags: HMW
AnchorPoint: "stem-vert" 190 200 basechar 0
AnchorPoint: "middle" 358 351 basechar 0
AnchorPoint: "below" 274 0 basechar 0
AnchorPoint: "above" 429 670 basechar 0
LayerCount: 2
Fore
SplineSet
213 603 m 0
 213 636 186 641 140 644 c 1
 140 669 l 1
 412 669 l 2
 567 669 648 619 648 523 c 0
 648 397 509 367 459 355 c 1
 560 322 596 284 596 206 c 0
 596 78 484 0 301 0 c 2
 0 0 l 1
 0 25 l 1
 48 31 66 45 80 97 c 2
 202 546 l 2
 209 571 213 593 213 603 c 0
279 32 m 0
 379 32 443 120 443 229 c 0
 443 326 381 335 293 338 c 1
 227 94 l 2
 224 81 222 72 222 65 c 0
 222 43 241 32 279 32 c 0
301 368 m 1
 421 373 501 397 501 536 c 0
 501 603 472 637 414 637 c 0
 382 637 372 629 362 593 c 2
 301 368 l 1
EndSplineSet
Validated: 1
Substitution2: "'c2sc' caps to small caps in Latin-1" sc.b
Substitution2: "'sups' superscript-latin" Bsup
EndChar

StartChar: C
Encoding: 67 67 35
Width: 620
Flags: HMW
AnchorPoint: "middle" 374 351 basechar 0
AnchorPoint: "below" 316 0 basechar 0
AnchorPoint: "above" 448 670 basechar 0
LayerCount: 2
Fore
SplineSet
449 685 m 0
 541 685 585 656 618 656 c 0
 633 656 642 663 656 685 c 1
 686 685 l 1
 635 451 l 1
 603 457 l 1
 605 470 606 479 606 492 c 0
 606 590 556 650 475 650 c 0
 307 650 195 383 195 209 c 0
 195 100 251 35 345 35 c 0
 463 35 524 116 555 153 c 1
 585 131 l 1
 553 87 537 69 507 47 c 0
 450 4 384 -18 313 -18 c 0
 150 -18 41 86 41 241 c 0
 41 483 226 685 449 685 c 0
EndSplineSet
Validated: 1
Substitution2: "'c2sc' caps to small caps in Latin-1" sc.c
Substitution2: "'sups' superscript-latin" sup.C
EndChar

StartChar: D
Encoding: 68 68 36
Width: 723
Flags: HMW
AnchorPoint: "stem-vert" 230 350 basechar 0
AnchorPoint: "middle" 379 351 basechar 0
AnchorPoint: "below" 268 0 basechar 0
AnchorPoint: "above" 452 670 basechar 0
LayerCount: 2
Fore
SplineSet
213 602 m 0
 213 635 192 637 140 644 c 1
 140 669 l 1
 430 669 l 2
 619 669 731 567 731 396 c 0
 731 169 541 0 286 0 c 2
 0 0 l 1
 0 25 l 1
 49 31 66 46 80 97 c 2
 201 543 l 2
 209 575 213 592 213 602 c 0
364 600 m 2
 235 122 l 2
 228 95 223 80 223 68 c 0
 223 45 240 34 277 34 c 0
 372 34 443 71 496 147 c 0
 550 224 584 343 584 457 c 0
 584 579 530 638 419 638 c 0
 387 638 371 627 364 600 c 2
EndSplineSet
Validated: 1
Substitution2: "'c2sc' caps to small caps in Latin-1" sc.d
Substitution2: "'sups' superscript-latin" Dsup
EndChar

StartChar: E
Encoding: 69 69 37
Width: 630
Flags: HMW
AnchorPoint: "ogonek" 514 0 basechar 0
AnchorPoint: "middle" 358 351 basechar 0
AnchorPoint: "below" 280 0 basechar 0
AnchorPoint: "above" 429 670 basechar 0
LayerCount: 2
Fore
SplineSet
283 32 m 0
 455 32 531 106 588 199 c 1
 613 194 l 1
 554 0 l 1
 0 0 l 1
 0 25 l 1
 52 33 65 44 80 97 c 2
 203 546 l 2
 209 568 213 591 213 606 c 0
 213 635 188 637 140 644 c 1
 140 669 l 1
 680 669 l 1
 637 479 l 1
 610 484 l 1
 610 573 593 637 426 637 c 0
 385 637 373 628 363 593 c 2
 302 370 l 1
 315 370 l 2
 436 370 462 385 507 476 c 1
 535 472 l 1
 461 199 l 1
 433 204 l 1
 436 223 437 234 437 248 c 0
 437 317 407 336 293 338 c 1
 237 129 l 2
 237 123 222 83 222 66 c 0
 222 42 240 32 283 32 c 0
EndSplineSet
Validated: 1
Substitution2: "'c2sc' caps to small caps in Latin-1" sc.e
Substitution2: "'sups' superscript-latin" Esup
EndChar

StartChar: F
Encoding: 70 70 38
Width: 609
Flags: HMW
AnchorPoint: "middle" 358 351 basechar 0
AnchorPoint: "below" 142 0 basechar 0
AnchorPoint: "above" 429 670 basechar 0
LayerCount: 2
Fore
SplineSet
603 484 m 1
 603 577 579 637 426 637 c 0
 386 637 373 628 363 593 c 2
 302 370 l 1
 433 371 453 382 500 476 c 1
 528 472 l 1
 454 199 l 1
 426 204 l 1
 429 223 430 234 430 248 c 0
 430 316 400 336 293 338 c 1
 239 137 l 2
 237 131 224 84 224 69 c 0
 224 38 239 29 295 25 c 1
 295 0 l 1
 0 0 l 1
 0 25 l 1
 52 33 65 44 80 97 c 2
 203 546 l 2
 209 568 213 592 213 606 c 0
 213 636 190 637 140 644 c 1
 140 669 l 1
 673 669 l 1
 630 479 l 1
 603 484 l 1
EndSplineSet
Validated: 1
Substitution2: "'c2sc' caps to small caps in Latin-1" sc.f
Substitution2: "'sups' superscript-latin" sup.F
EndChar

StartChar: G
Encoding: 71 71 39
Width: 706
Flags: HMW
AnchorPoint: "stem-vert" 570 170 basechar 0
AnchorPoint: "middle" 387 351 basechar 0
AnchorPoint: "below" 346 0 basechar 0
AnchorPoint: "above" 466 670 basechar 0
LayerCount: 2
Fore
SplineSet
516 268 m 0
 516 298 483 300 442 304 c 1
 442 330 l 1
 729 330 l 1
 729 304 l 1
 676 300 669 292 650 222 c 2
 602 41 l 1
 574 28 l 2
 517 2 417 -18 340 -18 c 0
 165 -18 44 92 44 251 c 0
 44 404 131 555 263 632 c 0
 324 667 395 685 471 685 c 0
 567 685 600 655 631 655 c 0
 651 655 662 663 673 685 c 1
 704 685 l 1
 653 464 l 1
 624 468 l 1
 621 579 589 649 485 649 c 0
 303 649 200 382 200 208 c 0
 200 86 258 20 364 20 c 0
 403 20 444 33 458 50 c 0
 464 58 516 222 516 268 c 0
EndSplineSet
Validated: 1
Substitution2: "'c2sc' caps to small caps in Latin-1" sc.g
Substitution2: "'sups' superscript-latin" Gsup
EndChar

StartChar: H
Encoding: 72 72 40
Width: 753
Flags: HMW
AnchorPoint: "middle" 406 351 basechar 0
AnchorPoint: "below" 327 0 basechar 0
AnchorPoint: "above" 486 670 basechar 0
LayerCount: 2
Fore
SplineSet
598 607 m 0
 598 635 578 636 525 644 c 1
 525 669 l 1
 823 669 l 1
 823 644 l 1
 772 637 758 625 742 572 c 2
 627 153 l 2
 613 103 608 80 608 66 c 0
 608 37 626 27 681 25 c 1
 681 0 l 1
 364 0 l 1
 364 25 l 1
 431 29 450 43 465 97 c 2
 529 329 l 1
 290 329 l 1
 240 148 l 2
 236 126 223 94 223 68 c 0
 223 36 233 30 296 25 c 1
 296 0 l 1
 0 0 l 1
 0 25 l 1
 50 32 66 44 80 97 c 2
 202 546 l 2
 209 572 213 593 213 604 c 0
 213 634 192 637 140 644 c 1
 140 669 l 1
 457 669 l 1
 457 644 l 1
 392 642 371 627 356 572 c 2
 302 373 l 1
 541 373 l 1
 588 546 l 2
 593 564 598 595 598 607 c 0
EndSplineSet
Validated: 1
Substitution2: "'c2sc' caps to small caps in Latin-1" sc.h
Substitution2: "'sups' superscript-latin" Hsup
EndChar

StartChar: I
Encoding: 73 73 41
Width: 374
Flags: HMW
AnchorPoint: "ogonek" 210 0 basechar 0
AnchorPoint: "middle" 229 351 basechar 0
AnchorPoint: "below" 141 0 basechar 0
AnchorPoint: "above" 313 670 basechar 0
LayerCount: 2
Fore
SplineSet
213 607 m 0
 213 635 193 636 140 644 c 1
 140 669 l 1
 438 669 l 1
 438 644 l 1
 387 638 370 625 356 572 c 10
 242 152 l 2
 229 103 224 80 224 65 c 0
 224 37 239 28 296 25 c 1
 296 0 l 1
 0 0 l 1
 0 25 l 1
 49 31 66 45 80 97 c 2
 203 546 l 2
 208 564 213 595 213 607 c 0
EndSplineSet
Validated: 1
Substitution2: "'c2sc' caps to small caps in Latin-1" sc.i
Substitution2: "'sups' superscript-latin" Isup
EndChar

StartChar: J
Encoding: 74 74 42
Width: 500
Flags: HMW
AnchorPoint: "stem-vert" 360 350 basechar 0
AnchorPoint: "middle" 269 351 basechar 0
AnchorPoint: "below" 155 -98 basechar 0
AnchorPoint: "above" 442 670 basechar 0
LayerCount: 2
Fore
SplineSet
346 607 m 0
 346 629 332 636 273 644 c 1
 273 669 l 1
 570 669 l 1
 570 644 l 1
 521 638 503 626 489 572 c 2
 361 93 l 2
 326 -38 260 -99 152 -99 c 0
 64 -99 0 -56 0 2 c 0
 0 41 28 72 64 72 c 0
 99 72 127 44 127 9 c 0
 127 -23 104 -24 104 -45 c 0
 104 -57 113 -63 131 -63 c 0
 167 -63 182 -35 221 114 c 2
 335 546 l 2
 342 572 346 595 346 607 c 0
EndSplineSet
Validated: 1
Substitution2: "'c2sc' caps to small caps in Latin-1" sc.j
Substitution2: "'sups' superscript-latin" Jsup
EndChar

StartChar: K
Encoding: 75 75 43
Width: 663
Flags: HMW
AnchorPoint: "middle" 350 351 basechar 0
AnchorPoint: "below" 310 0 basechar 0
AnchorPoint: "above" 429 670 basechar 0
LayerCount: 2
Fore
SplineSet
213 604 m 0
 213 634 192 637 140 644 c 1
 140 669 l 1
 450 669 l 1
 450 644 l 1
 391 639 370 624 356 572 c 2
 294 344 l 1
 500 520 568 588 568 617 c 0
 568 632 558 639 533 642 c 0
 530 642 521 643 512 644 c 1
 512 669 l 1
 723 669 l 1
 723 644 l 1
 680 638 672 635 629 596 c 2
 413 398 l 1
 570 60 l 2
 581 36 595 29 633 25 c 1
 633 0 l 1
 353 0 l 1
 353 25 l 1
 391 28 418 30 418 52 c 0
 418 63 414 75 405 95 c 2
 292 337 l 1
 225 88 l 2
 224 83 223 77 223 71 c 0
 223 38 237 29 289 25 c 1
 289 0 l 1
 0 0 l 1
 0 25 l 1
 49 31 65.626 44.1006 80 97 c 0
 202 546 l 2
 209 572 213 593 213 604 c 0
EndSplineSet
Validated: 1
Substitution2: "'c2sc' caps to small caps in Latin-1" sc.k
Substitution2: "'sups' superscript-latin" Ksup
EndChar

StartChar: L
Encoding: 76 76 44
Width: 609
Flags: HMW
AnchorPoint: "stem-vert" 220 350 basechar 0
AnchorPoint: "middle" 390 351 basechar 0
AnchorPoint: "below" 284 0 basechar 0
AnchorPoint: "above" 479 670 basechar 0
LayerCount: 2
Fore
SplineSet
213 607 m 0
 213 635 193 636 140 644 c 1
 140 669 l 1
 457 669 l 1
 457 644 l 1
 391 640 371 627 356 572 c 2
 227 94 l 2
 224 83 222 70 222 62 c 0
 222 41 242 32 286 32 c 0
 368 32 439 52 493 90 c 0
 532 118 554 143 588 199 c 1
 612 194 l 1
 553 0 l 1
 0 0 l 1
 0 25 l 1
 49 32 66 45 80 97 c 2
 203 546 l 2
 208 564 213 595 213 607 c 0
EndSplineSet
Validated: 1
Substitution2: "'c2sc' caps to small caps in Latin-1" sc.l
Substitution2: "'sups' superscript-latin" Lsup
EndChar

StartChar: M
Encoding: 77 77 45
Width: 876
Flags: HMW
AnchorPoint: "middle" 430 351 basechar 0
AnchorPoint: "below" 327 0 basechar 0
AnchorPoint: "above" 554 670 basechar 0
LayerCount: 2
Fore
SplineSet
946 669 m 1
 946 644 l 1
 895 638 879 624 865 572 c 2
 740 113 l 2
 734.1 91.3369 732 78 732 68 c 0
 732 36 746 28 804 25 c 1
 804 0 l 1
 492 0 l 1
 492 25 l 1
 557 29 577 43 592 97 c 2
 717 561 l 1
 342 -12 l 1
 314 -12 l 1
 247 547 l 1
 146 178 l 2
 133 130 127 102 127 86 c 0
 127 45 143 33 207 25 c 1
 207 0 l 1
 0 0 l 1
 0 25 l 1
 54 37 63 47 101 178 c 2
 210 551 l 2
 217 576 221 596 221 609 c 0
 221 637 212 641 149 644 c 1
 149 669 l 1
 370 669 l 1
 424 189 l 1
 734 669 l 1
 946 669 l 1
EndSplineSet
Validated: 1
Substitution2: "'c2sc' caps to small caps in Latin-1" sc.m
Substitution2: "'sups' superscript-latin" Msup
EndChar

StartChar: N
Encoding: 78 78 46
Width: 705
Flags: HMW
AnchorPoint: "middle" 401 351 basechar 0
AnchorPoint: "below" 302 0 basechar 0
AnchorPoint: "above" 486 670 basechar 0
LayerCount: 2
Fore
SplineSet
333 669 m 1
 548 204 l 1
 628 491 l 2
 639 531 646 567 646 585 c 0
 646 623 625 639 566 644 c 1
 566 669 l 1
 775 669 l 1
 775 644 l 1
 717 631 710 623 673 491 c 2
 530 -15 l 1
 502 -15 l 1
 245 534 l 1
 146 178 l 2
 135 137 128 102 128 84 c 0
 128 45 149 30 208 25 c 1
 208 0 l 1
 0 0 l 1
 0 25 l 1
 55 36 63 47 101 178 c 2
 221 589 l 1
 202 633 193 639 138 644 c 1
 138 669 l 1
 333 669 l 1
EndSplineSet
Validated: 1
Substitution2: "'c2sc' caps to small caps in Latin-1" sc.n
Substitution2: "'sups' superscript-latin" Nsup
EndChar

StartChar: O
Encoding: 79 79 47
Width: 676
Flags: HMW
AnchorPoint: "far-right-dot" 680 630 basechar 0
AnchorPoint: "ogonek" 311 0 basechar 0
AnchorPoint: "middle" 371 351 basechar 0
AnchorPoint: "below" 278 0 basechar 0
AnchorPoint: "above" 456 670 basechar 0
LayerCount: 2
Fore
SplineSet
36 221 m 0
 36 412 213 685 458 685 c 0
 597 685 700 587 700 454 c 0
 700 250 529 -18 272 -18 c 0
 131 -18 36 78 36 221 c 0
454 651 m 0
 390 651 337 610 286 520 c 0
 231 424 180 239 180 137 c 0
 180 63 219 16 282 16 c 0
 336 16 381 46 427 113 c 0
 494 211 556 411 556 531 c 0
 556 603 515 651 454 651 c 0
EndSplineSet
Validated: 1
Substitution2: "'c2sc' caps to small caps in Latin-1" sc.o
Substitution2: "'sups' superscript-latin" Osup
EndChar

StartChar: P
Encoding: 80 80 48
Width: 600
Flags: HMW
AnchorPoint: "middle" 358 351 basechar 0
AnchorPoint: "below" 137 0 basechar 0
AnchorPoint: "above" 433 670 basechar 0
LayerCount: 2
Fore
SplineSet
213 606 m 0
 213 636 190 637 140 644 c 1
 140 669 l 1
 427 669 l 2
 566 669 640 615 640 514 c 0
 640 394 533 317 367 317 c 0
 341 317 322 318 286 322 c 1
 232 123 l 2
 227.521 106.494 222 74 222 64 c 0
 222 37 238 28 294 25 c 1
 294 0 l 1
 0 0 l 1
 0 25 l 1
 52 33 65.2168 43.0361 80 97 c 2
 203 546 l 2
 209 568 213 592 213 606 c 0
410 637 m 0
 368 637 366 613 360 593 c 2
 296 354 l 1
 313 353 324 352 338 352 c 0
 408 352 445 375 471 434 c 0
 485 465 494 511 494 546 c 0
 494 604 463 637 410 637 c 0
EndSplineSet
Validated: 1
Substitution2: "'c2sc' caps to small caps in Latin-1" sc.p
Substitution2: "'sups' superscript-latin" Psup
EndChar

StartChar: Q
Encoding: 81 81 49
Width: 677
Flags: HMW
AnchorPoint: "middle" 363 351 basechar 0
AnchorPoint: "above" 452 670 basechar 0
LayerCount: 2
Fore
SplineSet
402 -208 m 0
 302 -208 240 -161 162 -161 c 0
 130 -161 103 -168 48 -189 c 1
 34 -165 l 1
 190 -35 l 2
 208 -19 203 -25 209 -16 c 1
 196 1 154 -5 103 44 c 0
 58 86 33 146 33 211 c 0
 33 454 239 685 455 685 c 0
 595 685 697 587 697 452 c 0
 697 319 630 179 520 80 c 0
 443 11 388 -9 258 -17 c 1
 237 -37 212 -62 212 -64 c 0
 212 -74 300 -70 360 -90 c 2
 402 -103 l 2
 438 -114 459 -118 485 -118 c 0
 545 -118 582 -99 640 -40 c 1
 661 -59 l 1
 580 -168 511 -208 402 -208 c 0
451 651 m 0
 387 651 334 610 283 520 c 0
 228 423 177 239 177 136 c 0
 177 63 216 17 279 17 c 0
 333 17 378 47 424 114 c 0
 491 212 553 411 553 531 c 0
 553 603 512 651 451 651 c 0
EndSplineSet
Validated: 1
Substitution2: "'c2sc' caps to small caps in Latin-1" sc.q
Substitution2: "'sups' superscript-latin" sup.Q
EndChar

StartChar: R
Encoding: 82 82 50
Width: 667
Flags: HMW
AnchorPoint: "middle" 358 351 basechar 0
AnchorPoint: "below" 283 0 basechar 0
AnchorPoint: "above" 429 670 basechar 0
LayerCount: 2
Fore
SplineSet
213 607 m 0
 213 635 193 636 140 644 c 1
 140 669 l 1
 416 669 l 2
 574 669 652 622 652 526 c 0
 652 485 636 378 460 343 c 1
 543 97 l 2
 563.318 36.7822 575 30 631 25 c 1
 631 0 l 1
 429 0 l 1
 322 331 l 1
 293 331 l 1
 238 138 l 2
 229 107 224 81 224 67 c 0
 224 37 238 29 296 25 c 1
 296 0 l 1
 0 0 l 1
 0 25 l 1
 49 31 66 45 80 97 c 2
 203 546 l 2
 208 563 213 595 213 607 c 0
362 593 m 2
 302 363 l 1
 364 364 403 371 429 388 c 0
 472 415 501 476 501 542 c 0
 501 602 468 637 411 637 c 0
 380 637 371 629 362 593 c 2
EndSplineSet
Validated: 1
Substitution2: "'c2sc' caps to small caps in Latin-1" sc.r
Substitution2: "'sups' superscript-latin" Rsup
EndChar

StartChar: S
Encoding: 83 83 51
Width: 506
Flags: HMW
AnchorPoint: "middle" 287 351 basechar 0
AnchorPoint: "below" 231 0 basechar 0
AnchorPoint: "above" 343 670 basechar 0
LayerCount: 2
Fore
SplineSet
237 -18 m 0
 152 -18 102 17 68 17 c 0
 49 17 42 11 30 -18 c 1
 0 -18 l 1
 36 206 l 1
 65 204 l 1
 70 123 96 16 219 16 c 0
 296 16 345 73 345 142 c 0
 345 269 100 328 100 491 c 0
 100 601 187 685 301 685 c 0
 362 685 420 655 450 655 c 0
 471 655 485 663 494 681 c 1
 524 681 l 1
 484 480 l 1
 457 484 l 1
 444 601 405 650 325 650 c 0
 261 650 221 609 221 545 c 0
 221 500 236 478 298 431 c 0
 420 338 466 271 466 185 c 0
 466 61 377 -18 237 -18 c 0
EndSplineSet
Validated: 1
Substitution2: "'c2sc' caps to small caps in Latin-1" sc.s
Substitution2: "'sups' superscript-latin" sup.S
EndChar

StartChar: T
Encoding: 84 84 52
Width: 593
Flags: HMW
AnchorPoint: "middle" 343 351 basechar 0
AnchorPoint: "below" 248 0 basechar 0
AnchorPoint: "above" 427 670 basechar 0
LayerCount: 2
Fore
SplineSet
689 669 m 1
 653 477 l 1
 626 479 l 1
 621 590 582 633 488 634 c 1
 348 128 l 2
 341 102 337 81 337 66 c 0
 337 34 350 28 420 25 c 1
 420 0 l 1
 89 0 l 1
 89 25 l 1
 103 25 l 2
 154 25 180 46 194 97 c 2
 342 634 l 1
 240 632 177 591 125 491 c 1
 100 498 l 1
 138 669 l 1
 689 669 l 1
EndSplineSet
Validated: 1
Substitution2: "'c2sc' caps to small caps in Latin-1" sc.t
Substitution2: "'sups' superscript-latin" Tsup
EndChar

StartChar: U
Encoding: 85 85 53
Width: 714
Flags: HMW
AnchorPoint: "ogonek" 376 0 basechar 0
AnchorPoint: "middle" 414 351 basechar 0
AnchorPoint: "below" 336 0 basechar 0
AnchorPoint: "above" 485 670 basechar 0
LayerCount: 2
Fore
SplineSet
784 669 m 1
 784 644 l 1
 729 633 720 623 682 491 c 2
 616 263 l 2
 593 183 559 -18 330 -18 c 0
 199 -18 107 50 107 148 c 0
 107 181 118 243 140 323 c 2
 196 529 l 2
 205 562 211 593 211 605 c 0
 211 627 201 635 169 640 c 0
 165 640 152 642 138 644 c 1
 138 669 l 1
 449 669 l 1
 449 644 l 1
 387 641 371 629 355 572 c 0
 273 272 l 2
 248 181 245 166 245 139 c 0
 245 76 291 38 367 38 c 0
 422 38 466 58 500 98 c 0
 530 135 552 185 579 282 c 2
 637 491 l 2
 648 532 656 571 656 588 c 0
 656 623 633 639 576 644 c 1
 576 669 l 1
 784 669 l 1
EndSplineSet
Validated: 1
Substitution2: "'c2sc' caps to small caps in Latin-1" sc.u
Substitution2: "'sups' superscript-latin" Usup
EndChar

StartChar: V
Encoding: 86 86 54
Width: 703
Flags: HMW
AnchorPoint: "middle" 418 351 basechar 0
AnchorPoint: "below" 311 0 basechar 0
AnchorPoint: "above" 484 670 basechar 0
LayerCount: 2
Fore
SplineSet
778 669 m 1
 778 644 l 1
 750 635 731 623 719 604 c 2
 326 -18 l 1
 294 -18 l 1
 218 491 l 2
 196 634 190 644 128 644 c 1
 128 669 l 1
 426 669 l 1
 426 644 l 1
 359 638 350 633 350 599 c 0
 350 593 350 589 351 583 c 2
 402 182 l 1
 592 484 l 2
 631 545 651 589 651 611 c 0
 651 630 639 639 611 642 c 0
 607 642 597 643 586 644 c 1
 586 669 l 1
 778 669 l 1
EndSplineSet
Validated: 1
Substitution2: "'c2sc' caps to small caps in Latin-1" sc.v
Substitution2: "'sups' superscript-latin" Vsup
EndChar

StartChar: W
Encoding: 87 87 55
Width: 928
Flags: HMW
AnchorPoint: "middle" 522 351 basechar 0
AnchorPoint: "below" 465 0 basechar 0
AnchorPoint: "above" 588 670 basechar 0
LayerCount: 2
Fore
SplineSet
1003 669 m 1
 1003 645 l 1
 961 639 946 628 919 572 c 2
 633 -18 l 1
 604 -18 l 1
 545 471 l 1
 312 -18 l 1
 283 -18 l 1
 205 561 l 2
 195 632 193 634 128 645 c 1
 128 669 l 1
 405 669 l 1
 405 644 l 1
 358 638 344 627 344 591 c 0
 344 587 344 580 345 575 c 2
 384 226 l 1
 534 537 l 1
 533 623 523 637 463 645 c 1
 463 669 l 1
 732 669 l 1
 732 644 l 1
 679 639 669 630 669 586 c 0
 669 575 669 572 675 521 c 2
 708 226 l 1
 864 553 l 2
 876 579 879 587 879 599 c 0
 879 635 872 640 816 644 c 1
 816 669 l 1
 1003 669 l 1
EndSplineSet
Validated: 1
Substitution2: "'c2sc' caps to small caps in Latin-1" sc.w
Substitution2: "'sups' superscript-latin" Wsup
EndChar

StartChar: X
Encoding: 88 88 56
Width: 699
Flags: HMW
AnchorPoint: "middle" 358 351 basechar 0
AnchorPoint: "below" 289 0 basechar 0
AnchorPoint: "above" 445 670 basechar 0
LayerCount: 2
Fore
SplineSet
610 25 m 1
 610 0 l 1
 302 0 l 1
 302 25 l 1
 356 30 370 38 370 63 c 0
 370 103 326 218 313 264 c 1
 179 116 l 2
 157 92 149 78 149 65 c 0
 149 42 169 29 214 25 c 1
 214 0 l 1
 0 0 l 1
 0 25 l 1
 42 33 73 61 231 235 c 2
 299 309 l 1
 215 581 l 2
 200.629 627.535 184 638 124 644 c 1
 124 669 l 5
 429 669 l 1
 429 644 l 1
 415 642 404 641 399 641 c 0
 366 637 355 628 355 605 c 0
 355 578 394 460 395 458 c 2
 406 421 l 1
 500 520 l 2
 551 574 570 600 570 618 c 0
 570 633 560 640 537 642 c 0
 533 642 525 643 515 644 c 1
 515 669 l 1
 718 669 l 1
 718 644 l 1
 682 639 662 628 619 583 c 2
 420 378 l 1
 494 141 l 2
 523 47 538 33 610 25 c 1
EndSplineSet
Validated: 1
Substitution2: "'c2sc' caps to small caps in Latin-1" sc.x
Substitution2: "'sups' superscript-latin" sup.X
EndChar

StartChar: Y
Encoding: 89 89 57
Width: 639
Flags: HMW
AnchorPoint: "ogonek" 374 0 basechar 0
AnchorPoint: "middle" 370 351 basechar 0
AnchorPoint: "below" 293 0 basechar 0
AnchorPoint: "above" 448 670 basechar 0
LayerCount: 2
Fore
SplineSet
289 313 m 1
 201 581 l 2
 183.436 634.493 179 637 128 644 c 1
 128 669 l 1
 411 669 l 1
 411 644 l 1
 356 643 341 635 341 607 c 0
 341 578 357 542 418 352 c 1
 547 538 l 2
 567 567 573 580 573 598 c 0
 573 633 559 642 506 644 c 1
 506 669 l 1
 714 669 l 1
 714 644 l 1
 676 636 656 622 623 575 c 2
 433 308 l 1
 381 117 l 2
 375 94 373 84 373 72 c 0
 373 35 385 28 450 25 c 1
 450 0 l 1
 128 0 l 1
 128 25 l 1
 197 30 212.968 39.2861 229 97 c 2
 289 313 l 1
EndSplineSet
Validated: 1
Substitution2: "'c2sc' caps to small caps in Latin-1" sc.y
Substitution2: "'sups' superscript-latin" sup.Y
EndChar

StartChar: Z
Encoding: 90 90 58
Width: 562
Flags: HMW
AnchorPoint: "middle" 314 351 basechar 0
AnchorPoint: "below" 249 0 basechar 0
AnchorPoint: "above" 379 670 basechar 0
LayerCount: 2
Fore
SplineSet
237 35 m 2
 399 35 469 88 538 199 c 1
 565 194 l 1
 506 0 l 1
 0 0 l 1
 0 29 l 1
 434 634 l 1
 356 634 l 2
 246 634 183 597 104 487 c 1
 76 491 l 1
 133 669 l 1
 601 669 l 1
 601 640 l 1
 167 35 l 1
 237 35 l 2
EndSplineSet
Validated: 1
Substitution2: "'c2sc' caps to small caps in Latin-1" sc.z
Substitution2: "'sups' superscript-latin" sup.Z
EndChar

StartChar: bracketleft
Encoding: 91 91 59
Width: 333
Flags: HMW
LayerCount: 2
Fore
SplineSet
355 639 m 1
 286 639 l 2
 250 639 248 636 234 576 c 2
 76 -100 l 2
 75.6611 -101.129 75.4883 -102.31 75.4883 -103.515 c 0
 75.4883 -112.984 86.1621 -124 111 -124 c 2
 189 -124 l 1
 182 -159 l 1
 -37 -159 l 1
 162 674 l 1
 362 674 l 1
 355 639 l 1
EndSplineSet
Validated: 1
EndChar

StartChar: backslash
Encoding: 92 92 60
Width: 400
Flags: HMW
LayerCount: 2
Fore
SplineSet
117 685 m 1
 202 685 l 1
 397 -18 l 1
 313 -18 l 1
 117 685 l 1
EndSplineSet
Validated: 1
EndChar

StartChar: bracketright
Encoding: 93 93 61
Width: 333
Flags: HMW
LayerCount: 2
Fore
SplineSet
-49 -122 m 1
 19 -122 l 2
 55 -122 57 -119 71 -61 c 0
 229 616 l 2
 229 619 l 0
 229 630 214 639 194 639 c 2
 116 639 l 1
 123 674 l 1
 343 674 l 1
 143 -157 l 1
 -56 -157 l 1
 -49 -122 l 1
EndSplineSet
Validated: 1
EndChar

StartChar: asciicircum
Encoding: 94 94 62
Width: 570
Flags: HMW
LayerCount: 2
Fore
SplineSet
156 304 m 1
 67 304 l 1
 245 669 l 1
 325 669 l 1
 503 304 l 1
 414 304 l 1
 285 576 l 1
 156 304 l 1
EndSplineSet
Validated: 1
EndChar

StartChar: underscore
Encoding: 95 95 63
Width: 500
Flags: HMW
LayerCount: 2
Fore
SplineSet
500 -170 m 1
 0 -170 l 1
 0 -90 l 1
 500 -90 l 1
 500 -170 l 1
EndSplineSet
Validated: 1
EndChar

StartChar: grave
Encoding: 96 96 64
Width: 333
Flags: HMW
LayerCount: 2
Fore
SplineSet
297 516 m 1
 252 516 l 1
 119 605 l 2
 97 620 85 637 85 652 c 0
 85 676 106 697 130 697 c 0
 149 697 170 684 186 663 c 2
 297 516 l 1
EndSplineSet
Validated: 1
EndChar

StartChar: a
Encoding: 97 97 65
Width: 509
Flags: HMW
AnchorPoint: "topright" 370 462 basechar 0
AnchorPoint: "ogonek" 322 0 basechar 0
AnchorPoint: "middle" 223 237 basechar 0
AnchorPoint: "below" 146 0 basechar 0
AnchorPoint: "above" 295 449 basechar 0
LayerCount: 2
Fore
SplineSet
338 373 m 0
 338 402 320 420 299 420 c 0
 236 420 137 214 137 112 c 0
 137 81 156 58 182 58 c 0
 270 58 338 305 338 373 c 0
469 127 m 1
 490 112 l 1
 433 25 386 -14 339 -14 c 0
 302 -14 272 15 272 52 c 0
 272 66 275 80 286 119 c 1
 229 24 183 -13 122 -13 c 0
 57 -13 14 38 14 114 c 0
 14 270 164 462 287 462 c 0
 330 462 352 441 361 390 c 1
 379 449 l 1
 490 456 l 1
 419 220 l 2
 395 139 385 97 385 72 c 0
 385 63 390 57 397 57 c 0
 413 57 428 72 469 127 c 1
EndSplineSet
Validated: 1
Substitution2: "'smcp' lowercase to small caps in Latin-1" sc.a
Substitution2: "'subs' subscript-latin" asub
Substitution2: "'sups' superscript-latin" asup
EndChar

StartChar: b
Encoding: 98 98 66
Width: 481
Flags: HMW
AnchorPoint: "topright" 350 462 basechar 0
AnchorPoint: "middle" 264 237 basechar 0
AnchorPoint: "below" 170 0 basechar 0
AnchorPoint: "above" 412 669 basechar 0
LayerCount: 2
Fore
SplineSet
115 642 m 1
 115 669 l 1
 204 679 253 686 323 699 c 1
 233 371 l 1
 284 438 320 462 371 462 c 0
 437 462 483 411 483 338 c 0
 483 159 326 -13 163 -13 c 0
 98 -13 25 19 25 47 c 0
 25 52 36 96 45 128 c 2
 139 455 l 2
 165 546 178 599 178 612 c 0
 178 635 164 642 115 642 c 1
179 20 m 0
 276 20 358 214 358 325 c 0
 358 371 343 394 314 394 c 0
 216 394 148 86 148 47 c 0
 148 32 161 20 179 20 c 0
EndSplineSet
Validated: 1
Substitution2: "'smcp' lowercase to small caps in Latin-1" sc.b
Substitution2: "'subs' subscript-latin" sub.b
Substitution2: "'sups' superscript-latin" bsup
EndChar

StartChar: c
Encoding: 99 99 67
Width: 428
Flags: HMW
AnchorPoint: "topright" 310 462 basechar 0
AnchorPoint: "middle" 218 237 basechar 0
AnchorPoint: "below" 162 0 basechar 0
AnchorPoint: "above" 299 449 basechar 0
LayerCount: 2
Fore
SplineSet
300 429 m 0
 201 429 152 200 152 141 c 0
 152 87 182 51 225 51 c 0
 268 51 299 74 347 141 c 1
 375 123 l 1
 347 83 288 -13 177 -13 c 0
 87 -13 24 49 24 138 c 0
 24 298 168 462 309 462 c 0
 375 462 421 425 421 372 c 0
 421 331 395 302 359 302 c 0
 326 302 301 324 301 354 c 0
 301 380 322 400 322 412 c 0
 322 422 312 429 300 429 c 0
EndSplineSet
Validated: 1
Substitution2: "'smcp' lowercase to small caps in Latin-1" sc.c
Substitution2: "'subs' subscript-latin" sub.c
Substitution2: "'sups' superscript-latin" csuper
EndChar

StartChar: d
Encoding: 100 100 68
Width: 510
Flags: HMW
AnchorPoint: "topright" 535 462 basechar 0
AnchorPoint: "middle" 249 237 basechar 0
AnchorPoint: "below" 161 0 basechar 0
AnchorPoint: "above" 320 669 basechar 0
LayerCount: 2
Fore
SplineSet
468 131 m 1
 490 115 l 1
 435 27 390 -11 341 -11 c 0
 303 -11 281 12 281 51 c 0
 281 66 284 81 292 118 c 1
 235 23 189 -13 126 -13 c 0
 65 -13 20 40 20 112 c 0
 20 269 170 462 292 462 c 0
 321 462 340 453 364 429 c 1
 383 497 l 2
 403.308 569.679 411 606 411 615 c 0
 411 633 396 643 370 643 c 2
 349 643 l 1
 349 670 l 1
 449 678 498 685 558 699 c 1
 447 294 l 2
 412 167 390 80 390 71 c 0
 390 65 396 59 401 59 c 0
 416 59 441 86 468 131 c 1
349 370 m 0
 349 399 334 420 309 420 c 0
 224 420 144 187 144 117 c 0
 144 84 161 59 185 59 c 0
 272 59 349 319 349 370 c 0
EndSplineSet
Validated: 1
Substitution2: "'smcp' lowercase to small caps in Latin-1" sc.d
Substitution2: "'subs' subscript-latin" sub.d
Substitution2: "'sups' superscript-latin" dsup
EndChar

StartChar: e
Encoding: 101 101 69
Width: 417
Flags: HMW
AnchorPoint: "topright" 300 462 basechar 0
AnchorPoint: "ogonek" 199 0 basechar 0
AnchorPoint: "middle" 227 237 basechar 0
AnchorPoint: "below" 176 0 basechar 0
AnchorPoint: "above" 329 449 basechar 0
LayerCount: 2
Fore
SplineSet
336 142 m 1
 365 125 l 1
 305 26 251 -13 175 -13 c 0
 88 -13 24 50 24 134 c 0
 24 299 168 462 312 462 c 0
 373 462 417 426 417 375 c 0
 417 332 387 226 160 182 c 1
 156 162 154 149 154 133 c 0
 154 79 176 51 219 51 c 0
 261 51 289 73 336 142 c 1
167 214 m 1
 244 242 325 285 325 395 c 0
 325 417 316 429 297 429 c 0
 249 429 203 352 167 214 c 1
EndSplineSet
Validated: 1
Substitution2: "'smcp' lowercase to small caps in Latin-1" sc.e
Substitution2: "'subs' subscript-latin" esub
Substitution2: "'sups' superscript-latin" esup
EndChar

StartChar: f
Encoding: 102 102 70
Width: 485
Flags: HMW
AnchorPoint: "below" 111 -200 basechar 0
AnchorPoint: "topright" 508 462 basechar 0
AnchorPoint: "middle" 212 237 basechar 0
AnchorPoint: "above" 420 669 basechar 0
LayerCount: 2
Fore
SplineSet
420 614 m 0
 420 636 436 648 436 656 c 0
 436 664 429 669 419 669 c 0
 384 669 353 619 328 520 c 2
 310 449 l 1
 402 449 l 1
 393 407 l 1
 303 407 l 1
 225 43 183 -205 4 -205 c 0
 -56 -205 -95 -174 -95 -126 c 0
 -95 -97 -71 -72 -43 -72 c 0
 -18 -72 6 -96 6 -120 c 0
 6 -145 -10 -154 -10 -163 c 0
 -10 -169 -2 -174 8 -174 c 0
 70 -174 72 -95 186 407 c 1
 113 407 l 1
 122 449 l 1
 195 449 l 1
 231 574 285 698 421 698 c 0
 481 698 520 667 520 618 c 0
 520 587 499 565 469 565 c 0
 442 565 420 587 420 614 c 0
EndSplineSet
Validated: 1
Substitution2: "'smcp' lowercase to small caps in Latin-1" sc.f
Substitution2: "'subs' subscript-latin" sub.f
Substitution2: "'sups' superscript-latin" fsup
EndChar

StartChar: g
Encoding: 103 103 71
Width: 490
Flags: HMW
AnchorPoint: "below" 167 -200 basechar 0
AnchorPoint: "topright" 371 462 basechar 0
AnchorPoint: "middle" 238 237 basechar 0
AnchorPoint: "above" 291 449 basechar 0
LayerCount: 2
Fore
SplineSet
-22 -97 m 0
 -22 -16 80 0 111 7 c 1
 67 22 49 42 49 73 c 0
 49 110 64 124 145 170 c 1
 91 193 65 229 65 280 c 0
 65 381 164 462 287 462 c 0
 333 462 364 453 397 429 c 1
 508 429 l 1
 508 373 l 1
 441 373 l 1
 446 357 447 347 447 331 c 0
 447 182 279 153 231 153 c 0
 200 153 197 161 180 161 c 0
 167 161 152 141 152 125 c 0
 152 110 171 96 203 87 c 2
 256 72 l 2
 365 41 405 7 405 -53 c 0
 405 -141 306 -203 166 -203 c 0
 51 -203 -22 -162 -22 -97 c 0
144 -6 m 0
 132 -6 65 -42 65 -91 c 0
 65 -137 111 -169 176 -169 c 0
 252 -169 296 -143 296 -100 c 0
 296 -74 283 -56 255 -43 c 0
 234 -33 153 -6 144 -6 c 0
224 184 m 0
 290 184 330 309 330 372 c 0
 330 406 311 431 285 431 c 0
 220 431 181 305 181 243 c 0
 181 205 196 184 224 184 c 0
EndSplineSet
Validated: 1
Substitution2: "'smcp' lowercase to small caps in Latin-1" sc.g
Substitution2: "'subs' subscript-latin" sub.g
Substitution2: "'sups' superscript-latin" gsup
EndChar

StartChar: h
Encoding: 104 104 72
Width: 546
Flags: HMW
AnchorPoint: "topright" 430 462 basechar 0
AnchorPoint: "middle" 241 237 basechar 0
AnchorPoint: "below" 214 0 basechar 0
AnchorPoint: "above" 406 669 basechar 0
LayerCount: 2
Fore
SplineSet
220 283 m 1
 287 379 347 462 432 462 c 0
 479 462 508 434 508 387 c 0
 508 368 498 326 478 265 c 0
 420 87 l 2
 417 78 417 77 417 75 c 0
 417 68 427 59 434 59 c 0
 447 59 466 80 509 142 c 1
 531 127 l 1
 465 24 425 -9 364 -9 c 0
 325 -9 298 15 298 49 c 0
 298 103 323 172 370 313 c 0
 378 335 386 360 386 369 c 0
 386 380 376 390 364 390 c 0
 338 390 305 361 263 301 c 0
 213 228 192 178 141 0 c 1
 20 0 l 1
 174 567 l 2
 179 586 182 601 182 610 c 0
 182 632 176 644 149 644 c 0
 140 644 127 643 119 642 c 1
 119 669 l 1
 200 676 250 684 327 699 c 1
 220 283 l 1
EndSplineSet
Validated: 1
Substitution2: "'smcp' lowercase to small caps in Latin-1" sc.h
Substitution2: "'subs' subscript-latin" hsub
Substitution2: "'sups' superscript-latin" hsuper
EndChar

StartChar: i
Encoding: 105 105 73
Width: 292
Flags: HMW
AnchorPoint: "below" 71 0 basechar 0
AnchorPoint: "ogonek" 89 0 basechar 0
AnchorPoint: "topright" 310 672 basechar 0
AnchorPoint: "middle" 143 237 basechar 0
AnchorPoint: "above" 232 669 basechar 0
LayerCount: 2
Fore
SplineSet
254 141 m 1
 276 127 l 1
 206 22 169 -9 109 -9 c 0
 68 -9 40 17 40 54 c 0
 40 67 45 95 53 123 c 2
 111 338 l 2
 115 355 118 370 118 378 c 0
 118 399 102 407 59 407 c 1
 59 434 l 1
 137 440 207 450 261 462 c 1
 170 128 l 2
 165 111 161 85 161 76 c 0
 161 68 168 61 176 61 c 0
 191 61 218 91 254 141 c 1
232 685 m 0
 269 685 301 654 301 617 c 0
 301 580 270 550 232 550 c 0
 195 550 166 580 166 619 c 0
 166 654 197 685 232 685 c 0
EndSplineSet
Validated: 1
Substitution2: "subst i,j with dotless form 1" dotlessi
Substitution2: "'smcp' lowercase to small caps in Latin-1" sc.i
Substitution2: "'smcp' lowercase to small caps in Latin for Turkish-1" sc.i_dot
Substitution2: "'subs' subscript-latin" isub
Substitution2: "'sups' superscript-latin" isuperior
EndChar

StartChar: j
Encoding: 106 106 74
Width: 353
Flags: HMW
AnchorPoint: "below" 121 -201 basechar 0
AnchorPoint: "topright" 383 672 basechar 0
AnchorPoint: "middle" 241 237 basechar 0
AnchorPoint: "above" 326 669 basechar 0
LayerCount: 2
Fore
SplineSet
23 -126 m 0
 23 -148 8 -155 8 -164 c 0
 8 -169 21 -176 32 -176 c 0
 60 -176 77 -145 103 -45 c 2
 195 310 l 2
 202 339 207 364 207 376 c 0
 207 402 195 407 145 407 c 1
 145 434 l 1
 257 444 294 449 353 462 c 1
 239 24 l 2
 199 -131 130 -207 30 -207 c 0
 -32 -207 -75 -176 -75 -130 c 0
 -75 -101 -52 -77 -26 -77 c 0
 1 -77 23 -99 23 -126 c 0
324 685 m 0
 362 685 393 654 393 617 c 0
 393 580 362 550 324 550 c 0
 287 550 258 580 258 619 c 0
 258 654 289 685 324 685 c 0
EndSplineSet
Validated: 1
Substitution2: "subst i,j with dotless form 1" dotlessj
Substitution2: "'smcp' lowercase to small caps in Latin-1" sc.j
Substitution2: "'subs' subscript-latin" sub.j
Substitution2: "'sups' superscript-latin" jsuper
EndChar

StartChar: k
Encoding: 107 107 75
Width: 509
Flags: HMW
AnchorPoint: "topright" 402 462 basechar 0
AnchorPoint: "middle" 251 237 basechar 0
AnchorPoint: "below" 220 0 basechar 0
AnchorPoint: "above" 397 669 basechar 0
LayerCount: 2
Fore
SplineSet
192 188 m 1
 142 0 l 1
 20 0 l 1
 176 567 l 2
 181 586 184 600 184 609 c 0
 184 632 170 643 142 643 c 0
 138 643 129 643 121 642 c 1
 121 669 l 1
 200 677 252 685 329 699 c 1
 206 239 l 1
 332 338 370 375 370 401 c 0
 370 417 358 422 319 424 c 1
 319 449 l 1
 526 449 l 1
 526 424 l 1
 480 418 459 406 391 348 c 2
 328 293 l 1
 366 98 378 63 406 63 c 0
 425 63 441 80 468 127 c 1
 490 116 l 1
 440 25 404 -8 354 -8 c 0
 292 -8 262 45 231 215 c 1
 192 188 l 1
EndSplineSet
Validated: 1
Substitution2: "'smcp' lowercase to small caps in Latin-1" sc.k
Substitution2: "'subs' subscript-latin" ksub
Substitution2: "'sups' superscript-latin" ksup
EndChar

StartChar: l
Encoding: 108 108 76
Width: 294
Flags: HMW
AnchorPoint: "topright" 314 462 basechar 0
AnchorPoint: "middle" 146 237 basechar 0
AnchorPoint: "below" 108 0 basechar 0
AnchorPoint: "above" 271 669 basechar 0
LayerCount: 2
Fore
SplineSet
256 141 m 1
 278 127 l 1
 209 22 171 -9 109 -9 c 0
 69 -9 42 15 42 51 c 0
 42 75 55 133 76 209 c 2
 150 473 l 2
 170 540 184 602 184 615 c 0
 184 633 175.75 644 150 644 c 0
 146 644 132 643.25 121 642 c 1
 121 669 l 1
 196 676 244 682 330 699 c 1
 185 176 l 2
 171 124 163 90 163 76 c 0
 163 68 170 61 178 61 c 0
 195 61 216 82 256 141 c 1
EndSplineSet
Validated: 1
Substitution2: "'smcp' lowercase to small caps in Latin-1" sc.l
Substitution2: "'subs' subscript-latin" lsub
Substitution2: "'sups' superscript-latin" lsuper
EndChar

StartChar: m
Encoding: 109 109 77
Width: 763
Flags: HMW
AnchorPoint: "topright" 620 462 basechar 0
AnchorPoint: "middle" 390 237 basechar 0
AnchorPoint: "below" 311 0 basechar 0
AnchorPoint: "above" 435 449 basechar 0
LayerCount: 2
Fore
SplineSet
655 59 m 0
 669 59 692 84 724 135 c 1
 746 122 l 1
 688 24 648 -9 586 -9 c 0
 543 -9 519 13 519 54 c 0
 519 82 533 144 555 207 c 2
 600 338 l 2
 604 351 607 362 607 368 c 0
 607 379 596 389 584 389 c 0
 554 389 514 347 472 273 c 0
 436 210 430 192 371 0 c 1
 251 0 l 1
 316 207 l 2
 349 309 361 351 361 366 c 0
 361 379 352 389 342 389 c 0
 329 389 300 368 278 343 c 0
 222 276 184 190 131 0 c 1
 10 0 l 1
 77 238 l 2
 104 333 112 367 112 381 c 0
 112 402.143 92.1562 407 58 407 c 1
 58 434 l 1
 173 443 194 446 258 461 c 1
 194 262 l 1
 257 360 324 462 412 462 c 0
 454 462 479 436 479 394 c 0
 479 366 472 340 453 290 c 1
 537 422 583 462 651 462 c 0
 695 462 728 431 728 391 c 0
 728 365 720 327 705 284 c 2
 660 151 l 2
 640.338 92.8877 639 87.8066 639 73 c 0
 639 66 646 59 655 59 c 0
EndSplineSet
Validated: 1
Substitution2: "'smcp' lowercase to small caps in Latin-1" sc.m
Substitution2: "'subs' subscript-latin" msub
Substitution2: "'sups' superscript-latin" msup
EndChar

StartChar: n
Encoding: 110 110 78
Width: 526
Flags: HMW
AnchorPoint: "topright" 410 462 basechar 0
AnchorPoint: "middle" 268 237 basechar 0
AnchorPoint: "below" 203 0 basechar 0
AnchorPoint: "above" 334 449 basechar 0
LayerCount: 2
Fore
SplineSet
194 263 m 1
 284 396 331 462 417 462 c 0
 464 462 490 435 490 387 c 0
 490 363 479 318 464 272 c 2
 428 163 l 2
 410 109 403 86 403 76 c 0
 403 66 409 59 417 59 c 0
 434 59 447 73 487 135 c 1
 509 122 l 1
 451 25 409 -9 350 -9 c 0
 308 -9 282 14 282 51 c 0
 282 77 294 134 310 182 c 2
 365 348 l 2
 368 358 370 366 370 369 c 0
 370 379 357 390 345 390 c 0
 327 390 296 368 276 341 c 0
 214 260 178 173 131 0 c 1
 10 0 l 1
 66 204 l 2
 100 324 112 371 112 382 c 0
 112 401 100 406 58 407 c 1
 58 434 l 1
 114 436 194 447 258 461 c 1
 194 263 l 1
EndSplineSet
Validated: 1
Substitution2: "'smcp' lowercase to small caps in Latin-1" sc.n
Substitution2: "'subs' subscript-latin" nsub
Substitution2: "'sups' superscript-latin" nsuperior
EndChar

StartChar: o
Encoding: 111 111 79
Width: 474
Flags: HMW
AnchorPoint: "far-right-dot" 490 400 basechar 0
AnchorPoint: "topright" 360 462 basechar 0
AnchorPoint: "ogonek" 217 0 basechar 0
AnchorPoint: "middle" 250 237 basechar 0
AnchorPoint: "below" 188 0 basechar 0
AnchorPoint: "above" 311 449 basechar 0
LayerCount: 2
Fore
SplineSet
312 462 m 0
 403 462 469 399 469 311 c 0
 469 142 333 -13 184 -13 c 0
 92 -13 25 50 25 135 c 0
 25 303 165 462 312 462 c 0
193 16 m 0
 299 16 350 309 350 375 c 0
 350 411 332 433 303 433 c 0
 209 433 144 200 144 78 c 0
 144 40 163 16 193 16 c 0
EndSplineSet
Validated: 1
Substitution2: "'smcp' lowercase to small caps in Latin-1" sc.o
Substitution2: "'subs' subscript-latin" osub
Substitution2: "'sups' superscript-latin" osup
EndChar

StartChar: p
Encoding: 112 112 80
Width: 482
Flags: HMW
AnchorPoint: "below" 176 -201 basechar 0
AnchorPoint: "topright" 350 462 basechar 0
AnchorPoint: "middle" 274 237 basechar 0
AnchorPoint: "above" 336 449 basechar 0
LayerCount: 2
Fore
SplineSet
62 407 m 1
 62 434 l 1
 114 440 153 446 255 462 c 1
 217 347 l 1
 276 430 320 462 377 462 c 0
 443 462 485 415 485 341 c 0
 485 168 343 -13 208 -13 c 0
 187 -13 175 -9 140 9 c 1
 128 -32 l 2
 110 -100 103 -133 103 -145 c 0
 103 -169 119 -177 168 -178 c 1
 168 -205 l 1
 -81 -205 l 1
 -81 -178 l 1
 -75 -178 l 2
 -34 -178 -22 -165 -6 -104 c 2
 94 284 l 2
 107 333 116 373 116 382 c 0
 116 401 107 405 62 407 c 1
360 340 m 0
 360 371 343 391 318 391 c 0
 237 391 199 235 187 195 c 0
 160 104 152 74 152 58 c 0
 152 38 169 22 191 22 c 0
 293 22 360 276 360 340 c 0
EndSplineSet
Validated: 1
Substitution2: "'smcp' lowercase to small caps in Latin-1" sc.p
Substitution2: "'subs' subscript-latin" psub
Substitution2: "'sups' superscript-latin" psup
EndChar

StartChar: q
Encoding: 113 113 81
Width: 496
Flags: HMW
AnchorPoint: "below" 86 -201 basechar 0
AnchorPoint: "topright" 378 462 basechar 0
AnchorPoint: "middle" 238 237 basechar 0
AnchorPoint: "above" 302 449 basechar 0
LayerCount: 2
Fore
SplineSet
295 462 m 0
 353 462 360 424 366 390 c 1
 381 449 l 1
 490 449 l 1
 338.664 -92.6699 l 2
 333.988 -109.323 325 -141 325 -150 c 0
 325 -175.147 350.985 -178 390 -178 c 1
 390 -205 l 1
 123 -205 l 1
 123 -178 l 1
 185 -175 198 -167 213 -115 c 10
 276 98 l 1
 224 16 184 -13 124 -13 c 0
 60 -13 20 37 20 117 c 0
 20 264 161 462 295 462 c 0
344 371 m 0
 344 408 322 419 306 419 c 0
 237 419 145 219 145 116 c 0
 145 78 158 59 184 59 c 0
 279 59 344 311 344 371 c 0
EndSplineSet
Validated: 1
Substitution2: "'smcp' lowercase to small caps in Latin-1" sc.q
Substitution2: "'subs' subscript-latin" sub.q
Substitution2: "'sups' superscript-latin" sup.q
EndChar

StartChar: r
Encoding: 114 114 82
Width: 400
Flags: HMW
AnchorPoint: "topright" 290 462 basechar 0
AnchorPoint: "middle" 151 237 basechar 0
AnchorPoint: "below" 77 0 basechar 0
AnchorPoint: "above" 269 449 basechar 0
LayerCount: 2
Fore
SplineSet
361 323 m 0
 327 323 313 361 301 361 c 0
 274 361 219 278 164 104 c 0
 160 89 146 46 131 0 c 1
 10 0 l 1
 78 229 112 357 112 382 c 0
 112 401 103 405 58 407 c 1
 58 434 l 1
 179 444 198 447 258 462 c 1
 192 253 l 1
 271 411 312 462 363 462 c 0
 397 462 420 436 420 396 c 0
 420 354 395 323 361 323 c 0
EndSplineSet
Validated: 1
Substitution2: "'smcp' lowercase to small caps in Latin-1" sc.r
Substitution2: "'subs' subscript-latin" rsub
Substitution2: "'sups' superscript-latin" rsuper
EndChar

StartChar: s
Encoding: 115 115 83
Width: 356
Flags: HMW
AnchorPoint: "topright" 230 462 basechar 0
AnchorPoint: "middle" 175 237 basechar 0
AnchorPoint: "below" 151 0 basechar 0
AnchorPoint: "above" 224 449 basechar 0
LayerCount: 2
Fore
SplineSet
200 462 m 0
 239 462 272 440 294 440 c 0
 309 440 312 442 323 461 c 1
 352 461 l 1
 329 308 l 1
 302 310 l 1
 286 393 260 429 214 429 c 0
 182 429 161 408 161 376 c 0
 161 313 298 224 298 119 c 0
 298 44 234 -13 150 -13 c 0
 105 -13 76 7 56 7 c 0
 43 7 31 -1 27 -13 c 1
 0 -13 l 1
 22 153 l 1
 49 150 l 1
 54 118 68 17 145 17 c 0
 177 17 202 41 202 71 c 0
 202 144 66 221 66 336 c 0
 66 412 119 462 200 462 c 0
EndSplineSet
Validated: 1
Substitution2: "'smcp' lowercase to small caps in Latin-1" sc.s
Substitution2: "'subs' subscript-latin" ssub
Substitution2: "'sups' superscript-latin" ssuper
Substitution2: "'hist' hist. forms in Latin subtable" longs
EndChar

StartChar: t
Encoding: 116 116 84
Width: 286
Flags: HMW
AnchorPoint: "topright" 321 462 basechar 0
AnchorPoint: "middle" 164 237 basechar 0
AnchorPoint: "below" 102 0 basechar 0
AnchorPoint: "above" 274 593 basechar 0
LayerCount: 2
Fore
SplineSet
324 449 m 1
 324 407 l 1
 241 407 l 1
 208 289 l 2
 173.741 166.5 154 94 154 76 c 0
 154 69 162 61 170 61 c 0
 186 61 212 88 246 141 c 1
 268 127 l 1
 202 24 162 -9 102 -9 c 0
 60 -9 32 17 32 56 c 0
 32 73 41 118 56 169 c 2
 124 407 l 1
 73 407 l 1
 73 442 l 1
 152 472 202 513 256 594 c 1
 291 594 l 1
 252 449 l 1
 324 449 l 1
EndSplineSet
Validated: 1
Substitution2: "'smcp' lowercase to small caps in Latin-1" sc.t
Substitution2: "'subs' subscript-latin" tsub
Substitution2: "'sups' superscript-latin" tsup
EndChar

StartChar: u
Encoding: 117 117 85
Width: 530
Flags: HMW
AnchorPoint: "topright" 410 462 basechar 0
AnchorPoint: "ogonek" 358 0 basechar 0
AnchorPoint: "middle" 260 237 basechar 0
AnchorPoint: "below" 181 0 basechar 0
AnchorPoint: "above" 319 449 basechar 0
LayerCount: 2
Fore
SplineSet
491 133 m 1
 512 120 l 1
 460 31 411 -9 351 -9 c 0
 307 -9 286 11 286 51 c 0
 286 79 292 106 310 161 c 1
 207 17 177 -9 110 -9 c 0
 61 -9 35 16 35 65 c 0
 35 89 42 125 56 173 c 2
 96 306 l 2
 105 335 110 363 110 379 c 0
 110 399 100 404 54 407 c 1
 54 434 l 1
 133 437 234 457 263 462 c 1
 169 154 l 2
 156 111 154 103 154 88 c 0
 154 71 161 63 175 63 c 0
 195 63 217 80 248 118 c 0
 305 190 334 256 390 449 c 1
 508 449 l 1
 430 181 l 2
 406.076 98.8008 405 91.9492 405 76 c 0
 405 67 411 59 419 59 c 0
 436 59 456 80 491 133 c 1
EndSplineSet
Validated: 1
Substitution2: "'smcp' lowercase to small caps in Latin-1" sc.u
Substitution2: "'subs' subscript-latin" usub
Substitution2: "'sups' superscript-latin" usup
EndChar

StartChar: v
Encoding: 118 118 86
Width: 439
Flags: HMW
AnchorPoint: "topright" 310 462 basechar 0
AnchorPoint: "middle" 261 237 basechar 0
AnchorPoint: "below" 141 0 basechar 0
AnchorPoint: "above" 311 449 basechar 0
LayerCount: 2
Fore
SplineSet
128 164 m 0
 128 407 97 407 54 407 c 1
 54 434 l 1
 137 446 160 450 209 462 c 1
 230 382 236 324 240 128 c 1
 339 240 366 281 366 316 c 0
 366 341 322 367 322 404 c 0
 322 434 349 462 378 462 c 0
 409 462 439 430 439 395 c 0
 439 308 362 190 149 -13 c 1
 123 -13 l 1
 127 123 l 2
 128 144 128 160 128 164 c 0
EndSplineSet
Validated: 1
Substitution2: "'smcp' lowercase to small caps in Latin-1" sc.v
Substitution2: "'subs' subscript-latin" vsub
Substitution2: "'sups' superscript-latin" vsup
EndChar

StartChar: w
Encoding: 119 119 87
Width: 652
Flags: HMW
AnchorPoint: "topright" 540 462 basechar 0
AnchorPoint: "middle" 338 237 basechar 0
AnchorPoint: "below" 263 0 basechar 0
AnchorPoint: "above" 407 449 basechar 0
LayerCount: 2
Fore
SplineSet
576 311 m 0
 576 339 535 367 535 402 c 0
 535 434 561 462 591 462 c 0
 623 462 652 433 652 400 c 0
 652 316 565 183 380 -13 c 1
 353 -13 l 1
 330 272 l 1
 255.5 138.5 l 2
 227.381 88.1133 197.5 44 160 -13 c 1
 133 -13 l 1
 132.921 65.5518 l 2
 132.898 88 132.588 131.13 131 184 c 0
 127.5 300.5 116 381 96 399 c 0
 88 406 79 407 54 407 c 1
 54 434 l 1
 137 448 168 453 209 462 c 1
 232 376 239 312 242 187 c 1
 398 462 l 1
 425 462 l 1
 457 130 l 1
 546 235 576 281 576 311 c 0
EndSplineSet
Validated: 1
Substitution2: "'smcp' lowercase to small caps in Latin-1" sc.w
Substitution2: "'subs' subscript-latin" sub.w
Substitution2: "'sups' superscript-latin" wsuper
EndChar

StartChar: x
Encoding: 120 120 88
Width: 476
Flags: HMW
AnchorPoint: "topright" 360 462 basechar 0
AnchorPoint: "middle" 246 237 basechar 0
AnchorPoint: "below" 181 0 basechar 0
AnchorPoint: "above" 321 449 basechar 0
LayerCount: 2
Fore
SplineSet
429 348 m 0
 408 348 385 368 372 368 c 0
 333 368 297 296 280 273 c 1
 312 117 l 2
 320 79 330 64 349 64 c 0
 367 64 377 73 416 123 c 1
 437 109 l 1
 376 21 334 -13 286 -13 c 0
 228 -13 208 48 189 142 c 1
 165 103 l 2
 107 7 84 -13 34 -13 c 0
 -4 -13 -30 11 -30 46 c 0
 -30 77 -6 102 25 102 c 0
 51 102 72 81 86 81 c 0
 103 81 114 90 134 122 c 2
 178 192 l 1
 148 346 l 2
 138 395 124 413 92 413 c 0
 83 413 78 413 57 411 c 1
 57 438 l 1
 224 462 l 5
 243 434 251 409 269 324 c 1
 349 435 380 462 427 462 c 0
 457 462 485 433 485 400 c 0
 485 372 459 348 429 348 c 0
EndSplineSet
Validated: 1
Substitution2: "'smcp' lowercase to small caps in Latin-1" sc.x
Substitution2: "'subs' subscript-latin" xsub
Substitution2: "'sups' superscript-latin" xsuper
EndChar

StartChar: y
Encoding: 121 121 89
Width: 433
Flags: HMW
AnchorPoint: "topright" 300 462 basechar 0
AnchorPoint: "ogonek" 304 0 basechar 0 {150-150 9} {}
AnchorPoint: "middle" 249 237 basechar 0
AnchorPoint: "below" 325 0 basechar 0
AnchorPoint: "above" 296 449 basechar 0
LayerCount: 2
Fore
SplineSet
91 -125 m 0
 126 -125 183 -55 183 -4 c 0
 183 52 124 383 85 406 c 0
 78 410 73 411 55 411 c 1
 55 438 l 1
 120 444 156 450 204 462 c 1
 222 415 251.036 303.525 270 185 c 2
 282 110 l 1
 351 243 369 285 369 315 c 0
 369 353 314 347 314 404 c 0
 314 435 341 462 371 462 c 0
 404 462 433 432 433 398 c 0
 433 277 198 -205 9 -205 c 0
 -26 -205 -53 -178 -53 -145 c 0
 -53 -116 -29 -90 -3 -90 c 0
 37 -90 70 -125 91 -125 c 0
EndSplineSet
Validated: 1
Substitution2: "'smcp' lowercase to small caps in Latin-1" sc.y
Substitution2: "'subs' subscript-latin" sub.y
Substitution2: "'sups' superscript-latin" ysuper
EndChar

StartChar: z
Encoding: 122 122 90
Width: 410
Flags: HMW
AnchorPoint: "topright" 270 462 basechar 0
AnchorPoint: "middle" 218 237 basechar 0
AnchorPoint: "below" 191 0 basechar 0
AnchorPoint: "above" 258 449 basechar 0
LayerCount: 2
Fore
SplineSet
77 5 m 0
 67 5 60 3 25 -23 c 1
 0 -1 l 1
 292 353 l 1
 147 353 l 2
 117 353 101 338 84 292 c 1
 56 295 l 1
 99 449 l 1
 411 449 l 1
 411 439 l 1
 130 104 l 1
 252 51 229 -49 284 -49 c 0
 296 -49 306 -42 306 -33 c 0
 306 -23 286 -8 286 13 c 0
 286 41 309 65 336 65 c 0
 364 65 389 41 389 13 c 0
 389 -38 342 -78 281 -78 c 0
 193 -78 123 5 77 5 c 0
EndSplineSet
Validated: 1
Substitution2: "'smcp' lowercase to small caps in Latin-1" sc.z
Substitution2: "'subs' subscript-latin" sub.z
Substitution2: "'sups' superscript-latin" zsup
EndChar

StartChar: braceleft
Encoding: 123 123 91
Width: 348
Flags: HMW
LayerCount: 2
Fore
SplineSet
28 -96 m 0
 28 -21 89 121 89 179 c 0
 89 214 67 233 5 249 c 1
 94 268 123 293 142 365 c 2
 188 544 l 2
 216.205 653.756 277 686 436 686 c 1
 433 674 l 1
 352 659 315 626 295 550 c 2
 250 379 l 2
 227 294 197 268 99 249 c 1
 174 229 191 215 191 173 c 0
 191 116 132 -33 132 -97 c 0
 132 -143 154 -164 213 -175 c 1
 210 -187 l 1
 95 -185 28 -173 28 -96 c 0
EndSplineSet
Validated: 1
EndChar

StartChar: bar
Encoding: 124 124 92
Width: 270
Flags: HMW
LayerCount: 2
Fore
SplineSet
116 -168 m 1
 116 685 l 1
 204 685 l 1
 204 -168 l 1
 116 -168 l 1
EndSplineSet
Validated: 1
EndChar

StartChar: braceright
Encoding: 125 125 93
Width: 348
Flags: HMW
LayerCount: 2
Fore
SplineSet
279 598 m 0
 279 519 218 380 218 320 c 0
 218 285 240 266 302 250 c 1
 213 230 184 206 165 134 c 2
 119 -45 l 1
 88 -154 30 -187 -129 -187 c 1
 -126 -175 l 1
 -45 -160 -8 -127 12 -51 c 2
 57 120 l 2
 80 205 110 231 208 250 c 1
 133 270 116 284 116 326 c 0
 116 384 175 537 175 597 c 0
 175 641 151 663 94 674 c 1
 97 686 l 1
 204 684 279 673 279 598 c 0
EndSplineSet
Validated: 1
EndChar

StartChar: asciitilde
Encoding: 126 126 94
Width: 570
Flags: HMW
LayerCount: 2
Fore
SplineSet
175 331 m 0
 253 331 345 263 393 263 c 0
 416 263 436 276 461 308 c 1
 516 260 l 1
 470 197 439 175 393 175 c 0
 307 175 266 243 176 243 c 0
 147 243 131 233 107 201 c 1
 54 247 l 1
 87 305 125 331 175 331 c 0
EndSplineSet
Validated: 1
EndChar

StartChar: cent
Encoding: 162 162 96
Width: 410
Flags: HMW
LayerCount: 2
Fore
SplineSet
402 576 m 1
 357 449 l 1
 393 429 410 404 410 370 c 0
 410 331 382 302 345 302 c 0
 331 302 320 306 310 313 c 1
 218 52 l 1
 260 54 295 81 336 141 c 1
 363 123 l 1
 300 33 263 3 196 -10 c 1
 149 -143 l 1
 115 -143 l 1
 161 -13 l 1
 67 -7 13 48 13 138 c 0
 13 299 156 462 298 462 c 0
 307 462 314 461 326 459 c 1
 367 576 l 1
 402 576 l 1
288 429 m 0
 195 429 140 210 140 147 c 0
 140 129 143 80 185 57 c 1
 310 413 l 2
 310 416 l 0
 310 423 300 429 288 429 c 0
EndSplineSet
Validated: 1
EndChar

StartChar: sterling
Encoding: 163 163 97
Width: 522
Flags: HMW
LayerCount: 2
Fore
SplineSet
436 575 m 0
 436 596 443 617 443 628 c 0
 443 640 433 649 419 649 c 0
 390 649 369 622 359 572 c 0
 320 370 l 1
 434 370 l 1
 424 310 l 1
 309 310 l 1
 296 252 271 184 245 141 c 2
 234 124 l 1
 294 101 327 92 359 92 c 0
 407 92 427 106 449 155 c 1
 474 155 l 1
 466 117 440 -12 323 -12 c 0
 281 -12 248 4 196 49 c 1
 169 6 141 -11 98 -11 c 0
 45 -11 8 25 8 75 c 0
 8 127 47 162 104 162 c 0
 125 162 140 159 165 148 c 1
 172 215 174 226 184 310 c 1
 75 310 l 1
 85 370 l 1
 190 370 l 1
 219 512 281 683 441 683 c 0
 504 683 550 644 550 592 c 0
 550 554 523 524 489 524 c 0
 459 524 436 546 436 575 c 0
153 90 m 1
 131 111 111 120 89 120 c 0
 58 120 38 100 38 70 c 0
 38 40 61 19 94 19 c 0
 124 19 142 41 153 90 c 1
EndSplineSet
Validated: 1
EndChar

StartChar: currency
Encoding: 164 164 98
Width: 560
Flags: HMW
LayerCount: 2
Fore
SplineSet
74 92 m 1
 172 190 l 1
 146 228 135 263 135 310 c 0
 135 356 146 393 172 432 c 1
 74 530 l 1
 132 586 l 1
 228 490 l 1
 268 515 304 525 350 525 c 0
 396 525 432 515 472 490 c 1
 568 586 l 1
 626 530 l 1
 528 432 l 1
 555 389 565 356 565 310 c 0
 565 263 554 226 528 190 c 1
 626 92 l 1
 568 34 l 1
 472 132 l 1
 431 106 394 95 350 95 c 0
 306 95 269 106 228 132 c 1
 132 34 l 1
 74 92 l 1
350 443 m 0
 279 443 223 385 223 310 c 0
 223 236 279 177 350 177 c 0
 419 177 477 237 477 308 c 0
 477 383 421 443 350 443 c 0
EndSplineSet
Validated: 1
EndChar

StartChar: yen
Encoding: 165 165 99
Width: 645
Flags: HMW
LayerCount: 2
Fore
SplineSet
596 342 m 1
 583 292 l 1
 433 292 l 1
 412 214 l 1
 564 214 l 1
 550 164 l 1
 398 164 l 1
 395 153 l 2
 383 110 379 87 379 68 c 0
 379 36 393 28 460 25 c 1
 460 0 l 1
 138 0 l 1
 138 25 l 1
 215 30 231 39 247 97 c 0
 266 164 l 1
 125 164 l 1
 139 214 l 1
 280 214 l 1
 302 292 l 1
 160 292 l 1
 174 342 l 1
 299 342 l 1
 220 581 l 1
 200 632 193 638 138 644 c 1
 138 669 l 1
 418 669 l 1
 418 644 l 1
 361 642 343 635 343 612 c 0
 343 603 345 592 349 580 c 2
 429 344 l 1
 564 538 l 2
 584 567 590 580 590 598 c 0
 590 633 576 642 520 644 c 1
 520 669 l 1
 720 669 l 1
 720 644 l 1
 680 636 660 622 627 575 c 0
 461 342 l 1
 596 342 l 1
EndSplineSet
Validated: 1
EndChar

StartChar: brokenbar
Encoding: 166 166 100
Width: 220
Flags: HMW
LayerCount: 2
Fore
SplineSet
96 -168 m 5
 96 131 l 5
 184 131 l 5
 184 -168 l 5
 96 -168 l 5
96 386 m 5
 96 685 l 5
 184 685 l 5
 184 386 l 5
 96 386 l 5
EndSplineSet
Validated: 1
EndChar

StartChar: section
Encoding: 167 167 101
Width: 500
Flags: HMW
LayerCount: 2
Fore
SplineSet
346 580 m 0
 346 612 382 622 382 635 c 0
 382 650 354 663 323 663 c 0
 274 663 238 633 238 590 c 0
 238 558 256 526 306 467 c 2
 375 386 l 2
 413 341 435 290 435 243 c 0
 435 177 382 121 318 121 c 0
 308 121 300 122 288 125 c 1
 286 121 l 1
 329 67 345 33 345 -9 c 0
 345 -84 273 -143 181 -143 c 0
 99 -143 36 -97 36 -38 c 0
 36 -3 61 22 94 22 c 0
 126 22 150 1 150 -28 c 0
 150 -69 115 -76 115 -91 c 0
 115 -106 148 -120 182 -120 c 0
 232 -120 268 -88 268 -44 c 0
 268 -11 256 9 185 95 c 2
 119 175 l 2
 84 217 68 256 68 299 c 0
 68 368 115 425 172 425 c 0
 184 425 209 422 221 419 c 1
 223 422 l 1
 188 461 168 507 168 551 c 0
 168 630 232 685 323 685 c 0
 402 685 459 644 459 587 c 0
 459 552 434 526 401 526 c 0
 371 526 346 551 346 580 c 0
139 342 m 0
 139 296 235 148 305 148 c 0
 336 148 364 175 364 206 c 0
 364 273 253 400 195 400 c 0
 164 400 139 374 139 342 c 0
EndSplineSet
Validated: 1
EndChar

StartChar: ordfeminine
Encoding: 170 170 104
Width: 266
Flags: HMW
LayerCount: 2
Fore
SplineSet
321 342 m 1
 307 256 l 1
 61 256 l 1
 76 342 l 1
 321 342 l 1
327 442 m 0
 339 442 371 482 373 484 c 1
 386 475 l 1
 348 422 319 399 289 399 c 0
 266 399 245 417 245 437 c 0
 245 448 246 454 256 488 c 1
 219 423 190 400 146 400 c 0
 105 400 76 431 76 476 c 0
 76 572 174 685 256 685 c 0
 282 685 296 672 303 640 c 1
 314 676 l 1
 390 680 l 1
 344 540 l 1
 328 493 322 467 322 451 c 0
 322 446 324 442 327 442 c 0
278 630 m 0
 278 654 261 658 256 658 c 0
 221 658 154 537 154 473 c 0
 154 458 165 445 178 445 c 0
 234 445 278 590 278 630 c 0
EndSplineSet
Validated: 1
Ligature2: "ordinal symbols in Latin-1" a
EndChar

StartChar: logicalnot
Encoding: 172 172 106
Width: 606
Flags: HMW
LayerCount: 2
Fore
SplineSet
467 108 m 1
 467 311 l 1
 51 311 l 1
 51 399 l 1
 555 399 l 1
 555 108 l 1
 467 108 l 1
EndSplineSet
Validated: 1
EndChar

StartChar: macron
Encoding: 175 175 108
Width: 333
Flags: HMW
LayerCount: 2
Fore
SplineSet
383 623 m 1
 367 553 l 1
 61 553 l 1
 78 623 l 1
 383 623 l 1
EndSplineSet
Validated: 1
EndChar

StartChar: degree
Encoding: 176 176 109
Width: 400
Flags: HMW
LayerCount: 2
Fore
SplineSet
315 683 m 0
 395 683 458 620 458 540 c 0
 458 459 395 397 313 397 c 0
 235 397 172 461 172 540 c 0
 172 620 235 683 315 683 c 0
315 647 m 0
 259 647 213 598 213 540 c 0
 213 482 259 433 314 433 c 0
 371 433 417 481 417 540 c 0
 417 598 370 647 315 647 c 0
EndSplineSet
Validated: 1
EndChar

StartChar: plusminus
Encoding: 177 177 110
Width: 676
Flags: HMW
LayerCount: 2
Fore
SplineSet
614 0 m 1
 62 0 l 1
 62 96 l 1
 614 96 l 1
 614 0 l 1
614 269 m 1
 387 269 l 1
 387 144 l 1
 291 144 l 1
 291 269 l 1
 62 269 l 1
 62 365 l 1
 291 365 l 1
 291 588 l 1
 387 588 l 1
 387 365 l 1
 614 365 l 1
 614 269 l 1
EndSplineSet
Validated: 1
EndChar

StartChar: twosuperior
Encoding: 178 178 111
Width: 340
Flags: HMW
LayerCount: 2
Fore
SplineSet
138 366 m 1
 282 503 356 572 356 632 c 0
 356 673 333 698 297 698 c 0
 268 698 247 686 215 650 c 1
 197 661 l 1
 233 727 280 759 341 759 c 0
 401 759 449 715 449 660 c 0
 449 612 423 573 357 520 c 2
 232 419 l 1
 321 419 l 2
 371 419 386 427 411 464 c 1
 427 464 l 1
 376 350 l 1
 138 350 l 1
 138 366 l 1
EndSplineSet
Validated: 1
EndChar

StartChar: threesuperior
Encoding: 179 179 112
Width: 340
Flags: HMW
LayerCount: 2
Fore
SplineSet
170 436 m 0
 217 436 210 378 256 378 c 0
 295 378 326 418 326 470 c 0
 326 528 293 558 226 561 c 1
 228 575 l 1
 310 590 349 617 349 660 c 0
 349 692 328 712 294 712 c 0
 266 712 247 702 219 670 c 1
 205 683 l 1
 245 739 285 763 338 763 c 0
 394 763 437 728 437 682 c 0
 437 642 421 627 358 591 c 1
 396 565 410 542 410 503 c 0
 410 416 324 345 218 345 c 0
 165 345 133 364 133 395 c 0
 133 419 149 436 170 436 c 0
EndSplineSet
Validated: 1
EndChar

StartChar: acute
Encoding: 180 180 113
Width: 333
Flags: HMW
LayerCount: 2
Fore
SplineSet
188 516 m 1
 139 516 l 1
 261 647 l 2
 296 685 313 697 331 697 c 0
 357 697 379 675 379 650 c 0
 379 631 370 620 340 603 c 2
 188 516 l 1
EndSplineSet
Validated: 1
EndChar

StartChar: paragraph
Encoding: 182 182 115
Width: 500
Flags: HMW
LayerCount: 2
Fore
SplineSet
201 258 m 1
 118 261 56 289 56 388 c 0
 56 464 89 557 132 603 c 0
 173 647 238 669 327 669 c 2
 622 669 l 1
 616 644 l 1
 535 637 532 635 518 581 c 2
 349 -68 l 2
 345 -86 333 -138 333 -142 c 0
 333 -155 347 -162 383 -166 c 0
 386 -166 396 -167 406 -168 c 1
 399 -193 l 1
 228 -193 l 1
 445 644 l 1
 390 644 l 1
 173 -193 l 1
 3 -193 l 1
 10 -168 l 1
 98 -161 93 -158 116 -68 c 2
 201 258 l 1
207 283 m 1
 301 644 l 1
 238 628 212 611 183 564 c 0
 155 518 135 448 135 394 c 0
 135 342 161 302 207 283 c 1
EndSplineSet
Validated: 1
EndChar

StartChar: middot
Encoding: 183 183 116
Width: 250
Flags: HMW
LayerCount: 2
Fore
SplineSet
143 410 m 0
 183 410 216 376 216 336 c 0
 216 294 183 262 141 262 c 0
 100 262 68 294 68 335 c 0
 68 378 100 410 143 410 c 0
EndSplineSet
Validated: 1
Substitution2: "'locl' local forms in Greek-punctuation" anoteleia
EndChar

StartChar: cedilla
Encoding: 184 184 117
Width: 333
Flags: HMW
LayerCount: 2
Fore
SplineSet
-25 -92 m 1
 41 5 l 1
 85 5 l 1
 40 -62 l 1
 50 -60 56 -59 66 -59 c 0
 118 -59 156 -89 156 -131 c 0
 156 -181 103 -218 32 -218 c 0
 -4 -218 -36 -211 -80 -193 c 1
 -58 -160 l 1
 -30 -173 -13 -177 9 -177 c 0
 43 -177 65 -161 65 -136 c 0
 65 -114 47 -100 18 -100 c 0
 8 -100 0 -101 -12 -104 c 1
 -25 -92 l 1
EndSplineSet
Validated: 1
EndChar

StartChar: onesuperior
Encoding: 185 185 118
Width: 340
Flags: HMW
LayerCount: 2
Fore
SplineSet
278 688 m 0
 278 693 273 710 252 710 c 0
 245.751 710 221.62 708.146 209 707 c 1
 211 728 l 1
 283 739 325 746 388 759 c 1
 288 429 l 2
 284 417 282 404 282 395 c 0
 282 373 292 369 341 369 c 1
 341 350 l 1
 117 350 l 1
 117 369 l 1
 195 369 189 403 218 490 c 0
 242 561 278 678 278 688 c 0
EndSplineSet
Validated: 1
EndChar

StartChar: ordmasculine
Encoding: 186 186 119
Width: 300
Flags: HMW
LayerCount: 2
Fore
SplineSet
317 342 m 1
 303 256 l 1
 57 256 l 1
 72 342 l 1
 317 342 l 1
377 592 m 0
 377 511 301 400 192 400 c 0
 131 400 86 438 86 489 c 0
 86 589 178 685 273 685 c 0
 334 685 377 647 377 592 c 0
296 630 m 0
 296 658 282 665 269 665 c 0
 204 665 167 505 167 455 c 0
 167 433 178 420 195 420 c 0
 259 420 296 587 296 630 c 0
EndSplineSet
Validated: 1
Ligature2: "ordinal symbols in Latin-1" o
EndChar

StartChar: AE
Encoding: 198 198 131
Width: 911
Flags: HMW
LayerCount: 2
Fore
SplineSet
607 32 m 0
 776 32 833 111 888 199 c 1
 914 196 l 1
 855 0 l 1
 328 0 l 1
 328 25 l 1
 380 33 391 43 406 96 c 0
 452 255 l 1
 260 255 l 1
 146 98 l 2
 137 85 131 71 131 59 c 0
 131 37 147 29 195 25 c 1
 195 0 l 1
 0 0 l 1
 0 25 l 1
 37 32 30 30 88 102 c 2
 454 574 l 2
 466 590 474 607 474 618 c 0
 474 636 458 642 393 646 c 1
 393 669 l 1
 982 669 l 1
 937 479 l 1
 913 484 l 1
 911 524 l 1
 907 599 853 637 749 637 c 0
 707 637 697 632 690 605 c 0
 625 370 l 1
 644 370 l 2
 746 370 779 390 819 476 c 1
 845 472 l 1
 772 199 l 1
 747 204 l 1
 748 215 l 2
 749 222 750 230 750 251 c 0
 750 316 727 331 617 338 c 1
 554 97 l 2
 551 86 549 75 549 69 c 0
 549 43 566 32 607 32 c 0
289 294 m 1
 462 294 l 1
 554 627 l 1
 542 627 l 1
 289 294 l 1
EndSplineSet
Validated: 1
LCarets2: 1 0
Ligature2: "'dlig' discr. ligatures in Latin-1" A e
Ligature2: "'dlig' discr. ligatures in Latin-1" A E
Substitution2: "'c2sc' caps to small caps in Latin-1" sc.ae
Substitution2: "'sups' superscript-latin" AEsup
EndChar

StartChar: Ccedilla
Encoding: 199 199 132
Width: 620
Flags: HMW
LayerCount: 2
Fore
SplineSet
585 131 m 1
 552 86 466 -18 313 -18 c 0
 292 -18 272 -16 250 -12 c 1
 216 -62 l 1
 226 -60 232 -59 242 -59 c 0
 294 -59 332 -89 332 -131 c 0
 332 -181 279 -218 208 -218 c 0
 171 -218 139 -211 96 -193 c 1
 118 -160 l 1
 146 -173 163 -177 185 -177 c 0
 219 -177 241 -161 241 -136 c 0
 241 -114 223 -100 194 -100 c 0
 184 -100 176 -101 164 -104 c 1
 151 -92 l 1
 212 -2 l 1
 103 34 41 122 41 241 c 0
 41 483 226 685 449 685 c 0
 541 685 585 656 618 656 c 0
 633 656 642 663 656 685 c 1
 686 685 l 1
 635 451 l 1
 603 457 l 1
 605 470 606 479 606 492 c 0
 606 590 556 650 475 650 c 0
 307 650 195 383 195 209 c 0
 195 100 251 35 345 35 c 0
 463 35 524 116 555 153 c 1
 585 131 l 1
EndSplineSet
Validated: 1
MultipleSubs2: "'c2sc' caps to small caps in Latin pre-decompose-basic" C cedilla.cmb
EndChar

StartChar: Eth
Encoding: 208 208 141
Width: 723
Flags: HMW
LayerCount: 2
Fore
SplineSet
213 602 m 0
 213 635 192 637 140 644 c 1
 140 669 l 1
 430 669 l 2
 619 669 731 567 731 396 c 0
 731 169 541 0 286 0 c 2
 0 0 l 1
 0 25 l 1
 49 31 66 46 80 97 c 0
 143 329 l 1
 41 329 l 1
 53 373 l 1
 155 373 l 1
 201 543 l 1
 209 574 213 592 213 602 c 0
303 373 m 1
 425 373 l 1
 413 329 l 1
 291 329 l 1
 236 126 l 1
 236 126 235 124 235 122 c 0
 226 96 223 80 223 68 c 0
 223 45 240 34 277 34 c 0
 372 34 443 71 496 147 c 0
 550 224 584 343 584 457 c 0
 584 579 530 638 419 638 c 0
 387 638 371 627 364 600 c 2
 303 373 l 1
EndSplineSet
Validated: 1
Substitution2: "'c2sc' caps to small caps in Latin-1" sc.eth
EndChar

StartChar: multiply
Encoding: 215 215 148
Width: 570
Flags: HMW
LayerCount: 2
Fore
SplineSet
223 253 m 1
 48 428 l 1
 110 490 l 1
 285 314 l 1
 460 490 l 1
 522 428 l 1
 346 253 l 1
 522 78 l 1
 460 16 l 1
 285 192 l 1
 110 16 l 1
 48 78 l 1
 223 253 l 1
EndSplineSet
Validated: 1
EndChar

StartChar: Ostroke
Encoding: 216 216 149
Width: 676
Flags: HMW
LayerCount: 2
Fore
SplineSet
153 11 m 1
 114 34 36 91 36 212 c 0
 36 453 243 685 458 685 c 0
 488 685 508 682 540 672 c 1
 593 764 l 1
 642 764 l 1
 579 656 l 1
 611 637 700 582 700 453 c 0
 700 250 524 -18 275 -18 c 0
 244 -18 223 -15 192 -5 c 1
 122 -125 l 1
 74 -125 l 1
 153 11 l 1
191 77 m 1
 515 630 l 1
 496 645 477 651 452 651 c 0
 391 651 336 608 287 521 c 0
 229 418 180 243 180 141 c 0
 180 119 184 97 191 77 c 1
282 16 m 0
 466 16 556 421 556 526 c 0
 556 548 551 571 542 593 c 1
 217 38 l 1
 237 22 256 16 282 16 c 0
EndSplineSet
Validated: 1
Substitution2: "'c2sc' caps to small caps in Latin-1" sc.ostroke
EndChar

StartChar: Thorn
Encoding: 222 222 155
Width: 597
Flags: HMW
LayerCount: 2
Fore
SplineSet
140 644 m 1
 140 669 l 1
 434 669 l 1
 434 644 l 1
 381 637 372 629 352 572 c 2
 339 534 l 1
 387 534 l 2
 526 534 601 480 601 379 c 0
 601 259 494 182 327 182 c 0
 301 182 282 183 246 187 c 1
 232 123 l 2
 225 92 222 73 222 64 c 0
 222 37 238 28 294 25 c 1
 294 0 l 1
 0 0 l 1
 0 25 l 1
 52 33 65 44 80 97 c 0
 203 546 l 2
 209 568 213 592 213 607 c 0
 213 627 202 636 171 640 c 0
 166 640 154 642 140 644 c 1
371 502 m 0
 330 502 327 481 320 458 c 2
 256 219 l 1
 275 218 287 217 298 217 c 0
 369 217 406 240 432 299 c 0
 446 330 455 376 455 411 c 0
 455 469 424 502 371 502 c 0
EndSplineSet
Validated: 1
Substitution2: "'c2sc' caps to small caps in Latin-1" sc.thorn
EndChar

StartChar: ssharp
Encoding: 223 223 156
Width: 560
Flags: HMW
LayerCount: 2
Fore
SplineSet
420 304 m 0
 420 368 389 378 346 384 c 1
 353 421 l 1
 369 421 l 2
 373 421 373 419 379 419 c 0
 416 419 467 497 467 615 c 0
 467 655 452 675 420 675 c 0
 375 675 345 626 319 509 c 2
 228 102 l 2
 183 -98 107 -200 2 -200 c 0
 -55 -200 -95 -169 -95 -123 c 0
 -95 -91 -75 -70 -44 -70 c 0
 -14 -70 4 -87 4 -115 c 0
 4 -149 -13 -141 -13 -158 c 0
 -13 -166 -9 -169 3 -169 c 0
 36 -169 60 -150 89 -20 c 2
 181 403 l 2
 224 601 310 705 432 705 c 0
 517 705 578 650 578 574 c 0
 578 476 484 432 396 399 c 1
 429 392 540 370 540 256 c 0
 540 117 436 -13 320 -13 c 0
 290 -13 269 -7 247 9 c 1
 267 44 l 1
 272 38 286 21 314 21 c 0
 379 21 420 204 420 304 c 0
EndSplineSet
Validated: 1
Substitution2: "'smcp' lowercase to small caps in Latin-1" sc.ssharp
EndChar

StartChar: ae
Encoding: 230 230 163
Width: 697
Flags: HMW
AnchorPoint: "above" 439 449 basechar 0
AnchorPoint: "below" 301 0 basechar 0
LayerCount: 2
Fore
SplineSet
450 -13 m 0
 364 -13 323 27 307 118 c 1
 251 26 201 -12 134 -12 c 0
 68 -12 20 38 20 106 c 0
 20 269 170 462 296 462 c 0
 339 462 359 446 377 396 c 1
 395 454 l 1
 498 459 l 1
 478 394 l 1
 521 444 549 459 598 459 c 0
 661 459 698 427 698 372 c 0
 698 290 615 223 470 190 c 2
 431 181 l 1
 427 161 426 150 426 134 c 0
 426 83 452 50 493 50 c 0
 540 50 582 80 616 139 c 1
 644 122 l 1
 601 34 534 -13 450 -13 c 0
194 58 m 0
 291 58 358 300 358 363 c 0
 358 395 338 419 310 419 c 0
 216 419 146 183 146 119 c 0
 146 83 165 58 194 58 c 0
438 214 m 1
 508 224 608 289 608 388 c 0
 608 416 598 429 575 429 c 0
 525 429 483 365 443 231 c 2
 438 214 l 1
EndSplineSet
Validated: 1
Ligature2: "'dlig' discr. ligatures in Latin-1" a e
Substitution2: "'smcp' lowercase to small caps in Latin-1" sc.ae
EndChar

StartChar: ccedilla
Encoding: 231 231 164
Width: 417
Flags: HMW
LayerCount: 2
Fore
SplineSet
364 123 m 1
 335 82 277 -13 166 -13 c 0
 160 -13 155 -13 148 -12 c 1
 114 -62 l 1
 124 -60 130 -59 140 -59 c 0
 192 -59 230 -89 230 -131 c 0
 230 -181 177 -218 106 -218 c 0
 70 -218 38 -211 -6 -193 c 1
 16 -160 l 1
 44 -173 61 -177 83 -177 c 0
 117 -177 139 -161 139 -136 c 0
 139 -114 121 -100 92 -100 c 0
 82 -100 74 -101 62 -104 c 1
 49 -92 l 1
 109 -4 l 1
 48 18 13 70 13 138 c 0
 13 298 157 462 298 462 c 0
 365 462 410 425 410 372 c 0
 410 331 384 302 348 302 c 0
 315 302 290 324 290 354 c 0
 290 380 311 400 311 412 c 0
 311 422 301 429 289 429 c 0
 190 429 141 200 141 141 c 0
 141 87 171 51 214 51 c 0
 257 51 288 74 336 141 c 1
 364 123 l 1
EndSplineSet
Validated: 1
MultipleSubs2: "'smcp' small caps in Latin pre-decompose-basic" c cedilla.cmb
EndChar

StartChar: eth
Encoding: 240 240 173
Width: 450
Flags: HMW
AnchorPoint: "below" 181 0 basechar 0
LayerCount: 2
Fore
SplineSet
303 574 m 1
 184 512 l 1
 151 543 l 1
 273 607 l 1
 234 644 197 665 157 672 c 1
 201 699 l 1
 250 692 290 674 333 639 c 1
 440 696 l 1
 474 664 l 1
 367 608 l 1
 434 529 461 462 461 372 c 0
 461 163 330 -13 175 -13 c 0
 85 -13 17 50 17 134 c 0
 17 299 154 462 292 462 c 0
 323 462 344 449 363 420 c 1
 365 424 l 1
 361 478 342 524 303 574 c 1
185 16 m 0
 291 16 342 309 342 375 c 0
 342 411 324 433 296 433 c 0
 203 433 136 203 136 86 c 0
 136 39 152 16 185 16 c 0
EndSplineSet
Validated: 1
Substitution2: "'smcp' lowercase to small caps in Latin-1" sc.eth
Substitution2: "'sups' superscript-phonetic" ethsup
EndChar

StartChar: divide
Encoding: 247 247 180
Width: 570
Flags: HMW
LayerCount: 2
Fore
SplineSet
537 209 m 1
 33 209 l 1
 33 297 l 1
 537 297 l 1
 537 209 l 1
286 119 m 0
 326 119 359 85 359 45 c 0
 359 4 326 -29 284 -29 c 0
 243 -29 211 3 211 45 c 0
 211 87 244 119 286 119 c 0
286 535 m 0
 326 535 359 501 359 461 c 0
 359 419 326 387 284 387 c 0
 243 387 211 419 211 461 c 0
 211 503 244 535 286 535 c 0
EndSplineSet
Validated: 1
EndChar

StartChar: ostroke
Encoding: 248 248 181
Width: 474
Flags: HMW
AnchorPoint: "above" 289 449 basechar 0
AnchorPoint: "below" 211 0 basechar 0
LayerCount: 2
Fore
SplineSet
452 560 m 1
 387 444 l 1
 444 416 469 375 469 311 c 0
 469 143 333 -13 185 -13 c 0
 167 -13 154 -11 134 -5 c 1
 70 -119 l 1
 30 -119 l 1
 102 7 l 1
 49 37 25 77 25 134 c 0
 25 304 164 462 314 462 c 0
 328 462 338 461 356 456 c 1
 415 560 l 1
 452 560 l 1
303 433 m 0
 196 433 144 155 144 86 c 2
 144 78 l 1
 335 419 l 1
 325 429 316 433 303 433 c 0
193 16 m 0
 294 16 350 292 350 372 c 0
 350 374 350 375 349 377 c 1
 156 34 l 1
 166 22 177 16 193 16 c 0
EndSplineSet
Validated: 1
Substitution2: "'smcp' lowercase to small caps in Latin-1" sc.ostroke
EndChar

StartChar: thorn
Encoding: 254 254 187
Width: 492
Flags: HMW
LayerCount: 2
Fore
SplineSet
169 -178 m 1
 169 -205 l 1
 -80 -205 l 1
 -80 -178 l 1
 -75 -178 l 2
 -30 -178 -20 -164 -2 -93 c 0
 160 537 l 2
 172 583 177 606 177 612 c 0
 177 635 163 642 114 642 c 1
 114 669 l 1
 203 679 252 686 320 699 c 1
 225 359 l 1
 228 356 l 1
 278 431 322 462 379 462 c 0
 444 462 486 414 486 341 c 0
 486 168 344 -13 209 -13 c 0
 188 -13 176 -9 141 9 c 1
 138 -4 l 1
 130 -32 l 2
 111 -100 104 -133 104 -146 c 0
 104 -170 119 -177 169 -178 c 1
361 340 m 0
 361 371 344 391 319 391 c 0
 238 391 200 235 188 195 c 0
 161 104 153 74 153 58 c 0
 153 38 170 22 192 22 c 0
 294 22 361 276 361 340 c 0
EndSplineSet
Validated: 1
Substitution2: "'smcp' lowercase to small caps in Latin-1" sc.thorn
EndChar

StartChar: Aogonek
Encoding: 260 260 193
Width: 696
Flags: HMW
AnchorPoint: "above" 468 668 basechar 0
LayerCount: 2
Fore
SplineSet
554 0 m 1
 356 0 l 1
 356 25 l 1
 420 31 435 42 435 84 c 0
 435 110 427 151 420 208 c 1
 205 208 l 1
 146 106 l 2
 136 89 131 73 131 60 c 0
 131 36 150 25 196 25 c 1
 196 0 l 1
 0 0 l 1
 0 25 l 1
 36 33 52 46 83 95 c 2
 455 683 l 1
 480 683 l 1
 576 111 l 2
 589 35 594 30 660 25 c 1
 660 0 l 1
 616 0 l 1
 551 -18 538 -46 538 -69 c 0
 538 -88 546 -103 573 -103 c 0
 593 -103 635 -92 663 -69 c 1
 684 -89 l 1
 639 -135 571 -157 520 -157 c 0
 460 -157 446 -122 446 -96 c 1
 446 -52 492 -10 554 0 c 1
228 248 m 1
 413 248 l 1
 376 491 l 1
 228 248 l 1
EndSplineSet
Validated: 1
MultipleSubs2: "'c2sc' caps to small caps in Latin pre-decompose-A" A ogonek.cmb
EndChar

StartChar: aogonek
Encoding: 261 261 194
Width: 509
Flags: HMW
AnchorPoint: "above" 306 449 basechar 0
LayerCount: 2
Fore
SplineSet
301 -157 m 0
 241 -157 227 -122 227 -96 c 0
 227 -60 259 -19 304 -5 c 1
 285 6 272 28 272 52 c 0
 272 66 275 80 286 119 c 1
 229 24 183 -13 122 -13 c 0
 57 -13 14 38 14 114 c 0
 14 270 164 462 287 462 c 0
 330 462 352 441 361 390 c 1
 379 449 l 1
 490 456 l 1
 419 220 l 2
 395 139 385 97 385 72 c 0
 385 63 390 57 397 57 c 0
 413 57 428 72 469 127 c 1
 490 112 l 1
 452 55 420 18 388 -0 c 0
 358 -19 319 -45 319 -69 c 0
 319 -88 327 -103 354 -103 c 0
 374 -103 416 -92 444 -69 c 1
 465 -89 l 1
 420 -135 352 -157 301 -157 c 0
338 373 m 0
 338 402 320 420 299 420 c 0
 236 420 137 214 137 112 c 0
 137 81 156 58 182 58 c 0
 270 58 338 305 338 373 c 0
EndSplineSet
Validated: 1
MultipleSubs2: "'smcp' small caps in Latin pre-decompose-A" a ogonek.cmb
EndChar

StartChar: dcroat
Encoding: 273 273 206
Width: 505
Flags: HMW
LayerCount: 2
Fore
SplineSet
390 544 m 1
 393 555 407 602 407 615 c 0
 407 633 392 643 366 643 c 2
 345 643 l 1
 345 670 l 1
 445 678 494 685 554 699 c 1
 511 544 l 1
 577 544 l 1
 569 513 l 1
 503 513 l 1
 443 294 l 2
 408 167 386 80 386 71 c 0
 386 65 392 59 397 59 c 0
 412 59 437 86 464 131 c 1
 486 115 l 1
 431 27 386 -11 337 -11 c 0
 299 -11 277 12 277 51 c 0
 277 66 280 81 288 118 c 1
 231 23 185 -13 122 -13 c 0
 61 -13 16 40 16 112 c 0
 16 269 166 462 288 462 c 0
 317 462 336 453 360 429 c 1
 382 513 l 1
 243 513 l 1
 252 544 l 1
 390 544 l 1
345 370 m 0
 345 399 330 420 305 420 c 0
 220 420 140 187 140 117 c 0
 140 84 157 59 181 59 c 0
 268 59 345 319 345 370 c 0
EndSplineSet
Validated: 1
Substitution2: "'smcp' lowercase to small caps in Latin-1" sc.eth
EndChar

StartChar: Eogonek
Encoding: 280 280 213
Width: 630
Flags: HMW
AnchorPoint: "above" 428 668 basechar 0
LayerCount: 2
Fore
SplineSet
459 -157 m 0
 399 -157 385 -122 385 -96 c 0
 385 -50 431 -15 493 0 c 9
 0 0 l 1
 0 25 l 1
 52 33 65 44 80 97 c 2
 203 546 l 2
 209 568 213 591 213 606 c 0
 213 635 188 637 140 644 c 1
 140 669 l 1
 680 669 l 1
 637 479 l 1
 610 484 l 1
 610 573 593 637 426 637 c 0
 385 637 373 628 363 593 c 2
 302 370 l 1
 315 370 l 2
 436 370 462 385 507 476 c 1
 535 472 l 1
 461 199 l 1
 433 204 l 1
 436 223 437 234 437 248 c 0
 437 317 407 336 293 338 c 1
 237 129 l 1
 237 123 222 83 222 66 c 0
 222 42 240 32 283 32 c 0
 455 32 531 106 588 199 c 1
 613 194 l 1
 554 0 l 1
 497 -28 477 -50.6667 477 -69 c 0
 477 -88 485 -103 512 -103 c 0
 532 -103 574 -92 602 -69 c 1
 623 -89 l 1
 578 -135 510 -157 459 -157 c 0
EndSplineSet
Validated: 1
MultipleSubs2: "'c2sc' caps to small caps in Latin pre-decompose-A" E ogonek.cmb
EndChar

StartChar: eogonek
Encoding: 281 281 214
Width: 417
Flags: HMW
AnchorPoint: "above" 298 449 basechar 0
LayerCount: 2
Fore
SplineSet
150 -157 m 0
 90 -157 76 -122 76 -96 c 0
 76 -63 102 -26 140 -9 c 1
 71 5 24 62 24 134 c 0
 24 299 168 462 312 462 c 0
 373 462 417 426 417 375 c 0
 417 332 387 226 160 182 c 1
 156 162 154 149 154 133 c 0
 154 79 176 51 219 51 c 0
 261 51 289 73 336 142 c 1
 365 125 l 1
 324 58 287 19 243 0 c 0
 192 -22 168 -46 168 -69 c 0
 168 -88 176 -103 203 -103 c 0
 223 -103 265 -92 293 -69 c 1
 314 -89 l 1
 269 -135 201 -157 150 -157 c 0
167 214 m 1
 244 242 325 285 325 395 c 0
 325 417 316 429 297 429 c 0
 249 429 203 352 167 214 c 1
EndSplineSet
Validated: 1
MultipleSubs2: "'smcp' small caps in Latin pre-decompose-A" e ogonek.cmb
EndChar

StartChar: Hbar
Encoding: 294 294 227
Width: 753
Flags: HMW
LayerCount: 2
Fore
SplineSet
786 533 m 1
 776 493 l 1
 720 493 l 1
 627 153 l 2
 613 103 608 80 608 66 c 0
 608 37 626 27 681 25 c 1
 681 0 l 1
 364 0 l 1
 364 25 l 1
 431 29 450 43 465 97 c 2
 529 329 l 1
 290 329 l 1
 240 148 l 1
 236 126 223 94 223 68 c 0
 223 36 233 30 296 25 c 1
 296 0 l 1
 0 0 l 1
 0 25 l 1
 50 32 66 44 80 97 c 2
 188 493 l 1
 110 493 l 1
 120 533 l 1
 198 533 l 1
 202 546 l 2
 209 572 213 593 213 604 c 0
 213 634 192 637 140 644 c 1
 140 669 l 1
 457 669 l 1
 457 644 l 1
 392 642 371 627 356 572 c 2
 345 533 l 1
 584 533 l 1
 588 546 l 2
 593 564 598 595 598 607 c 0
 598 635 578 636 525 644 c 1
 525 669 l 1
 823 669 l 1
 823 644 l 1
 772 637 758 625 742 572 c 1
 731 533 l 1
 786 533 l 1
574 493 m 1
 335 493 l 1
 302 373 l 1
 541 373 l 1
 574 493 l 1
EndSplineSet
Validated: 1
Substitution2: "'c2sc' caps to small caps in Latin-1" sc.hbar
Substitution2: "'sups' superscript-Latin-D" Hbarsup
EndChar

StartChar: hbar
Encoding: 295 295 228
Width: 547
Flags: HMW
LayerCount: 2
Fore
SplineSet
220 283 m 1
 287 379 347 462 432 462 c 0
 479 462 508 434 508 387 c 0
 508 368 497.888 326.036 478 265 c 2
 420 87 l 2
 417.061 77.9795 417 77 417 75 c 0
 417 68 427 59 434 59 c 0
 447 59 466 80 509 142 c 1
 531 127 l 1
 465 24 425 -9 364 -9 c 0
 325 -9 298 15 298 49 c 0
 298 103 323 172 370 313 c 0
 377 333 381 344 381 346 c 1
 384 355 386 363 386 369 c 0
 386 380 376 390 364 390 c 0
 338 390 305 361 263 301 c 0
 213 228 192 178 141 0 c 1
 20 0 l 1
 161.651 525 l 1
 73 525 l 1
 82 565 l 1
 173.725 565 l 1
 175.723 574.554 182 604.128 182 610 c 0
 182 632 168 643 141 643 c 0
 136 643 127 643 119 642 c 1
 119 669 l 1
 200 676 250 684 327 699 c 1
 293.349 565 l 1
 487 565 l 1
 478 525 l 1
 281.725 525 l 1
 220 283 l 1
EndSplineSet
Validated: 1
Substitution2: "'smcp' lowercase to small caps in Latin-1" sc.hbar
EndChar

StartChar: Iogonek
Encoding: 302 302 235
Width: 374
Flags: HMW
AnchorPoint: "above" 313 668 basechar 0
LayerCount: 2
Fore
SplineSet
131 -157 m 0
 71 -157 57 -122 57 -96 c 0
 57 -52 109.333 -3.66667 165 0 c 9
 0 0 l 1
 0 25 l 1
 49 31 66 45 80 97 c 2
 203 546 l 2
 208 564 213 595 213 607 c 0
 213 635 193 636 140 644 c 1
 140 669 l 1
 438 669 l 1
 438 644 l 1
 387 638 370 625 356 572 c 2
 242 152 l 2
 229 103 224 80 224 65 c 0
 224 37 239 28 296 25 c 1
 296 0 l 1
 227 0 l 1
 162 -18 149 -46 149 -69 c 0
 149 -88 157 -103 184 -103 c 0
 204 -103 246 -92 274 -69 c 1
 295 -89 l 1
 250 -135 182 -157 131 -157 c 0
EndSplineSet
Validated: 1
MultipleSubs2: "'c2sc' caps to small caps in Latin pre-decompose-A" I ogonek.cmb
EndChar

StartChar: iogonek
Encoding: 303 303 236
Width: 292
Flags: HMW
AnchorPoint: "above" 239 668 basechar 0
LayerCount: 2
Fore
SplineSet
63 -157 m 0
 3 -157 -11 -122 -11 -96 c 0
 -11 -57.3694 25.9998 -12.5721 75.636 -2.21404 c 1
 53.5646 7.82313 40 28.2471 40 54 c 0
 40 67 45 95 53 123 c 2
 111 338 l 2
 115 355 118 370 118 378 c 0
 118 399 102 407 59 407 c 1
 59 434 l 1
 137 440 207 450 261 462 c 1
 170 128 l 2
 165 111 161 85 161 76 c 0
 161 68 168 61 176 61 c 0
 191 61 218 91 254 141 c 1
 276 127 l 1
 221.553 45.329 187.07 8.42819 146.201 -3.93749 c 0
 112.333 -14 81 -43.6667 81 -69 c 0
 81 -88 89 -103 116 -103 c 0
 136 -103 178 -92 206 -69 c 1
 227 -89 l 1
 182 -135 114 -157 63 -157 c 0
232 685 m 0
 269 685 301 654 301 617 c 0
 301 580 270 550 232 550 c 0
 195 550 166 580 166 619 c 0
 166 654 197 685 232 685 c 0
EndSplineSet
Validated: 1
MultipleSubs2: "subst. i-ogonek with dotless-i+-ogonek" dotlessi ogonek.cmb
MultipleSubs2: "'smcp' small caps in Latin pre-decompose-A" i ogonek.cmb
EndChar

StartChar: dotlessi
Encoding: 305 305 238
Width: 292
Flags: HMW
AnchorPoint: "below" 111 0 basechar 0
AnchorPoint: "ogonek" 129 0 basechar 0
AnchorPoint: "above" 201 449 basechar 0
LayerCount: 2
Fore
SplineSet
254 141 m 1
 276 127 l 1
 206 22 169 -9 109 -9 c 0
 68 -9 40 17 40 54 c 0
 40 67 45 95 53 123 c 2
 111 338 l 2
 115 355 118 370 118 378 c 0
 118 399 102 407 59 407 c 1
 59 434 l 1
 137 440 207 450 261 462 c 1
 170 128 l 2
 167 116 161 82 161 76 c 0
 161 68 168 61 176 61 c 0
 191 61 214 82 240 121 c 2
 254 141 l 1
EndSplineSet
Validated: 1
Substitution2: "'smcp' lowercase to small caps in Latin-1" sc.i
Substitution2: "'smcp' lowercase to small caps in Latin for Turkish-1" sc.i
EndChar

StartChar: ij
Encoding: 307 307 240
Width: 516
Flags: HMW
LayerCount: 2
Fore
SplineSet
492 685 m 0
 529 685 561 654 561 617 c 0
 561 580 530 550 492 550 c 0
 455 550 426 580 426 619 c 0
 426 654 457 685 492 685 c 0
222 685 m 0
 259 685 291 654 291 617 c 0
 291 580 260 550 222 550 c 0
 185 550 156 580 156 619 c 0
 156 654 187 685 222 685 c 0
180 63 m 0
 223 63 381 253 381 376 c 0
 381 403 368 408 349 408 c 0
 342 408 335 408 328 407 c 1
 328 434 l 1
 398 440 467 447 536 462 c 1
 422 24 l 2
 395 -80 340 -207 214 -207 c 0
 167 -207 108 -186 108 -130 c 0
 108 -103 129 -77 157 -77 c 0
 184 -77 206 -99 206 -126 c 0
 206 -147 191 -156 191 -164 c 0
 191 -171 208 -176 213 -176 c 0
 259 -176 277 -78 286 -45 c 0
 344 178 l 1
 346 187 349 195 351 204 c 1
 302 126 219 -9 115 -9 c 0
 60 -9 37 17 37 69 c 0
 37 144 110 312 110 375 c 0
 110 403 85 407 63 407 c 0
 51 407 l 1
 51 434 l 1
 118 439 187 447 253 462 c 1
 223 352 189 241 163 130 c 1
 160 130 157 93 157 87 c 0
 157 71 164 63 180 63 c 0
EndSplineSet
Validated: 1
Substitution2: "'smcp' lowercase to small caps in Latin-1" sc.ij
Ligature2: "'liga' std. ligatures in Latin for Dutch" i j
LCarets2: 1 0
EndChar

StartChar: kgreenlandic
Encoding: 312 312 245
Width: 509
Flags: HMW
LayerCount: 2
Fore
SplineSet
192 188 m 1
 142 0 l 1
 20 0 l 1
 111 331 l 2
 116 350 119 364 119 373 c 0
 119 396 106 407 78 407 c 0
 74 407 67 407 59 406 c 1
 59 433 l 1
 138 441 189 449 266 463 c 1
 206 239 l 1
 332 338 370 375 370 401 c 0
 370 417 358 422 319 424 c 1
 319 449 l 1
 526 449 l 1
 526 424 l 1
 480 418 459 406 391 348 c 2
 328 293 l 1
 366 98 378 63 406 63 c 0
 425 63 441 80 468 127 c 1
 490 116 l 1
 440 25 404 -8 354 -8 c 0
 292 -8 262 45 231 215 c 1
 192 188 l 1
EndSplineSet
Validated: 1
EndChar

StartChar: Lslash
Encoding: 321 321 254
Width: 609
Flags: HMW
LayerCount: 2
Fore
SplineSet
213 607 m 0
 213 635 193 636 140 644 c 1
 140 669 l 1
 457 669 l 1
 457 644 l 1
 391 640 371 627 356 572 c 0
 312 410 l 1
 462 491 l 1
 441 421 l 1
 293 338 l 1
 227 94 l 2
 224 83 222 70 222 62 c 0
 222 41 242 32 286 32 c 0
 368 32 439 52 493 90 c 0
 532 118 554 143 588 199 c 1
 612 194 l 1
 553 0 l 1
 0 0 l 1
 0 25 l 1
 50 32 66 45 80 97 c 0
 130 278 l 1
 26 222 l 1
 48 292 l 1
 148 345 l 1
 203 546 l 2
 208 564 213 595 213 607 c 0
EndSplineSet
Validated: 1
Substitution2: "'c2sc' caps to small caps in Latin-1" sc.lslash
EndChar

StartChar: lslash
Encoding: 322 322 255
Width: 304
Flags: HMW
LayerCount: 2
Fore
SplineSet
266 141 m 1
 288 127 l 1
 219 22 181 -9 120 -9 c 0
 78 -9 52 15 52 53 c 0
 52 79 66 137 114 309 c 1
 37 266 l 1
 56 336 l 1
 134 379 l 1
 177 531 194 599 194 615 c 0
 194 633 179 643 152 643 c 0
 147 643 142 643 131 642 c 1
 131 669 l 1
 206 676 254 683 340 699 c 1
 265 427 l 1
 351 474 l 1
 332 406 l 1
 246 359 l 1
 195 176 l 2
 181 125 173 90 173 76 c 0
 173 68 180 61 188 61 c 0
 206 61 226 82 266 141 c 1
EndSplineSet
Validated: 1
Substitution2: "'smcp' lowercase to small caps in Latin-1" sc.lslash
EndChar

StartChar: Eng
Encoding: 330 330 263
Width: 793
Flags: HMW
LayerCount: 2
Fore
SplineSet
482 135 m 0
 482 82 434 76 434 45 c 0
 434 30 448 20 471 20 c 0
 556.035 20 676 309.08 676 488 c 0
 676 615 629 629 573 629 c 0
 498 629 428 594 334 488 c 1
 235 125 l 2
 227.782 99.0586 224 79 224 65 c 0
 224 37 234 30 296 25 c 1
 296 0 l 1
 0 0 l 1
 0 25 l 1
 60 30 65.1084 47.9688 87 128 c 2
 209 574 l 2
 211.938 584.743 214 597 214 605 c 0
 214 629 197 637 140 645 c 1
 140 670 l 1
 384 670 l 1
 353 555 l 1
 427 646 517 686 596 686 c 0
 733 686 827 647 827 491 c 0
 827 210.895 635 -13 474 -13 c 0
 390 -13 333 25 333 87 c 0
 333 154 390 191 427 191 c 0
 460 191 482 166 482 135 c 0
EndSplineSet
Validated: 1
Substitution2: "'c2sc' caps to small caps in Latin-1" sc.eng
Substitution2: "'locl' Localized Forms for Sami-1" Engsami
EndChar

StartChar: eng
Encoding: 331 331 264
Width: 495
Flags: HMW
AnchorPoint: "above" 334 449 basechar 0
AnchorPoint: "middle" 268 237 basechar 0
AnchorPoint: "topright" 380 462 basechar 0
LayerCount: 2
Fore
SplineSet
490 383 m 0
 490 353 477 317 470 289 c 2
 401 24 l 2
 374 -80 319 -207 193 -207 c 0
 146 -207 87 -186 87 -130 c 0
 87 -103 108 -77 136 -77 c 0
 163 -77 185 -99 185 -126 c 0
 185 -147 170 -156 170 -164 c 0
 170 -171 187 -176 192 -176 c 0
 238 -176 256 -78 265 -45 c 2
 357 310 l 2
 361 327 370 351 370 368 c 0
 370 381 357 390 345 390 c 0
 244 390 148 65 131 0 c 1
 10 0 l 1
 24 52 112 346 112 381 c 0
 112 406 86 407 66 407 c 2
 58 407 l 1
 58 434 l 1
 123 434 195 447 258 461 c 1
 198 275 l 1
 201 273 l 1
 249 344 317 462 414 462 c 0
 466 462 490 437 490 383 c 0
EndSplineSet
Validated: 1
Substitution2: "'smcp' lowercase to small caps in Latin-1" sc.eng
Substitution2: "'sups' superscript-phonetic" engsup
EndChar

StartChar: OE
Encoding: 338 338 271
Width: 875
Flags: HMW
LayerCount: 2
Fore
SplineSet
464 677 m 0
 490 677 576 669 611 669 c 2
 946 669 l 1
 900 478 l 1
 875 484 l 1
 876 498 877 512 877 521 c 0
 877 599 822 637 712 637 c 0
 677 637 670 631 659 590 c 0
 598 370 l 1
 628 370 l 2
 714 370 756 397 787 473 c 1
 814 470 l 1
 742 198 l 1
 715 203 l 1
 716 212 716 219 716 222 c 0
 718 239 719 255 719 263 c 0
 719 325 665 329 589 336 c 1
 525 91 l 1
 523 82 521 72 521 66 c 0
 521 42 542 32 594 32 c 0
 711 32 782 78 851 199 c 1
 878 194 l 1
 818 0 l 1
 494 0 l 2
 484 -1 475 -1 470 -1 c 2
 448 -1 l 1
 294 -8 l 1
 274 -9 l 2
 60 -9 23 133 23 223 c 0
 23 364 99 513 217 602 c 0
 291 657 356 677 464 677 c 0
392 123 m 2
 500 514 l 2
 507 540 512 567 512 582 c 0
 512 623 486 645 439 645 c 0
 379 645 329 613 281 545 c 0
 218 454 164 275 164 158 c 0
 164 77 212 24 285 24 c 0
 343 24 372 51 392 123 c 2
EndSplineSet
Validated: 1
Ligature2: "'dlig' discr. ligatures in Latin-1" O e
Ligature2: "'dlig' discr. ligatures in Latin-1" O E
Substitution2: "'c2sc' caps to small caps in Latin-1" OEsmallcap
EndChar

StartChar: oe
Encoding: 339 339 272
Width: 680
Flags: HMW
AnchorPoint: "above" 439 449 basechar 0
AnchorPoint: "below" 321 0 basechar 0
LayerCount: 2
Fore
SplineSet
15 144 m 0
 15 279 135 462 309 462 c 0
 362 462 394 445 425 400 c 1
 484 447 519 462 571 462 c 0
 640 462 683 427 683 371 c 0
 683 326 653 282 596 245 c 0
 551 216 526 207 423 184 c 1
 417 156 415 143 415 128 c 0
 415 77 439 50 482 50 c 0
 528 50 556 71 600 139 c 1
 628 124 l 1
 610 89 560 -13 440 -13 c 0
 394 -13 362 3 323 44 c 1
 280 5 233 -13 175 -13 c 0
 80 -13 15 51 15 144 c 0
430 218 m 1
 549 253 595 323 595 392 c 0
 595 416 581 432 558 432 c 0
 507 432 474 339 430 218 c 1
186 16 m 0
 283 16 346 286 346 359 c 0
 346 408 327 433 291 433 c 0
 190 433 133 160 133 97 c 0
 133 45 152 16 186 16 c 0
EndSplineSet
Validated: 1
Ligature2: "'dlig' discr. ligatures in Latin-1" o e
Substitution2: "'smcp' lowercase to small caps in Latin-1" OEsmallcap
Substitution2: "'subs' subscript-latin" sub.oe
Substitution2: "'sups' superscript-Latin-D" oesup
EndChar

StartChar: Scedilla
Encoding: 350 350 283
Width: 508
Flags: HMW
LayerCount: 2
Fore
SplineSet
303 685 m 0
 364 685 422 655 452 655 c 0
 473 655 487 663 496 681 c 1
 526 681 l 1
 486 480 l 1
 459 484 l 1
 446 601 407 650 327 650 c 0
 263 650 223 609 223 545 c 0
 223 500 238 478 300 431 c 0
 422 338 468 271 468 185 c 0
 468 60 379 -18 236 -18 c 0
 225 -18 217 -18 202 -16 c 1
 172 -62 l 1
 182 -60 188 -59 197 -59 c 0
 250 -59 288 -89 288 -131 c 0
 288 -181 235 -218 164 -218 c 0
 127 -218 95 -211 52 -193 c 1
 74 -160 l 1
 102 -173 119 -177 141 -177 c 0
 175 -177 197 -161 197 -136 c 0
 197 -114 179 -100 150 -100 c 0
 139 -100 131 -101 120 -104 c 1
 107 -92 l 1
 163 -9 l 1
 107 8 86 17 70 17 c 0
 51 17 44 11 32 -18 c 1
 2 -18 l 1
 38 206 l 1
 67 204 l 1
 72 123 98 16 221 16 c 0
 298 16 347 73 347 142 c 0
 347 269 102 328 102 491 c 0
 102 601 189 685 303 685 c 0
EndSplineSet
Validated: 1
MultipleSubs2: "'c2sc' caps to small caps in Latin pre-decompose-A" S cedilla.cmb
EndChar

StartChar: scedilla
Encoding: 351 351 284
Width: 337
Flags: HMW
LayerCount: 2
Fore
SplineSet
142 376 m 0
 142 313 279 224 279 119 c 0
 279 45 215 -13 133 -13 c 0
 129 -13 122 -13 114 -12 c 1
 80 -62 l 1
 90 -60 96 -59 106 -59 c 0
 158 -59 196 -89 196 -131 c 0
 196 -181 143 -218 72 -218 c 0
 36 -218 4 -211 -40 -193 c 1
 -18 -160 l 1
 10 -173 27 -177 49 -177 c 0
 83 -177 105 -161 105 -136 c 0
 105 -114 87 -100 58 -100 c 0
 48 -100 40 -101 28 -104 c 1
 15 -92 l 1
 75 -3 l 1
 72 -2 69 -1 68 -1 c 0
 55 4 43 7 37 7 c 0
 24 7 12 -1 8 -13 c 1
 -19 -13 l 1
 3 153 l 1
 30 150 l 1
 35 118 49 17 126 17 c 0
 158 17 183 41 183 71 c 0
 183 144 47 221 47 336 c 0
 47 412 100 462 181 462 c 0
 220 462 253 440 275 440 c 0
 290 440 293 442 304 461 c 1
 333 461 l 1
 310 308 l 1
 283 310 l 1
 267 393 241 429 195 429 c 0
 163 429 142 408 142 376 c 0
EndSplineSet
Validated: 1
MultipleSubs2: "'smcp' small caps in Latin pre-decompose-A" s cedilla.cmb
EndChar

StartChar: Tcedilla
Encoding: 354 354 287
Width: 593
Flags: HMW
LayerCount: 2
Fore
SplineSet
689 669 m 1
 653 477 l 1
 626 479 l 1
 621 590 582 633 488 634 c 1
 348 128 l 2
 341 102 337 81 337 66 c 0
 337 34 350 28 420 25 c 1
 420 0 l 1
 239.328 0 l 1
 195 -66 l 1
 205 -64 211 -63 221 -63 c 0
 273 -63 311 -93 311 -135 c 0
 311 -185 258 -222 187 -222 c 0
 151 -222 119 -215 75 -197 c 1
 97 -164 l 1
 125 -177 142 -181 164 -181 c 0
 198 -181 220 -165 220 -140 c 0
 220 -118 202 -104 173 -104 c 0
 163 -104 155 -105 143 -108 c 1
 130 -96 l 1
 195.32 0 l 1
 89 0 l 1
 89 25 l 1
 103 25 l 2
 154 25 179.948 46.0146 194 97 c 2
 342 634 l 1
 240 632 177 591 125 491 c 1
 100 498 l 1
 138 669 l 1
 689 669 l 1
EndSplineSet
Validated: 1
MultipleSubs2: "'c2sc' caps to small caps in Latin pre-decompose-A" T cedilla.cmb
EndChar

StartChar: tcedilla
Encoding: 355 355 288
Width: 286
Flags: HMW
LayerCount: 2
Fore
SplineSet
324 449 m 1
 324 407 l 1
 241 407 l 1
 208 289 l 2
 173.741 166.5 154 94 154 76 c 0
 154 69 162 61 170 61 c 0
 186 61 212 88 246 141 c 1
 268 127 l 1
 203.338 26.0879 163.632 -7.63379 105.625 -8.95898 c 1
 70 -62 l 1
 80 -60 86 -59 96 -59 c 0
 148 -59 186 -89 186 -131 c 0
 186 -181 133 -218 62 -218 c 0
 26 -218 -6 -211 -50 -193 c 1
 -28 -160 l 1
 0 -173 17 -177 39 -177 c 0
 73 -177 95 -161 95 -136 c 0
 95 -114 77 -100 48 -100 c 0
 38 -100 30 -101 18 -104 c 1
 5 -92 l 1
 66.5742 -1.50391 l 1
 45.001 8.88574 32 29.4248 32 56 c 0
 32 73 41 118 56 169 c 2
 124 407 l 1
 73 407 l 1
 73 442 l 1
 152 472 202 513 256 594 c 1
 291 594 l 1
 252 449 l 1
 324 449 l 1
EndSplineSet
Validated: 1
MultipleSubs2: "'smcp' small caps in Latin pre-decompose-A" t cedilla.cmb
EndChar

StartChar: Tbar
Encoding: 358 358 291
Width: 593
Flags: HMW
LayerCount: 2
Fore
SplineSet
275 386 m 1
 342 634 l 1
 240 632 177 591 125 491 c 1
 100 498 l 1
 138 669 l 1
 689 669 l 1
 653 477 l 1
 626 479 l 1
 621 590 582 633 488 634 c 1
 421 386 l 1
 508 386 l 1
 499 346 l 1
 408 346 l 1
 348 128 l 2
 341 102 337 81 337 66 c 0
 337 34 350 28 420 25 c 1
 420 0 l 1
 89 0 l 1
 89 25 l 1
 103 25 l 2
 154 25 180 46 194 97 c 2
 263 346 l 1
 173 346 l 1
 183 386 l 1
 275 386 l 1
EndSplineSet
Validated: 1
MultipleSubs2: "'c2sc' caps to small caps in Latin pre-decompose-B" T barshortoverlay.cmb
EndChar

StartChar: tbar
Encoding: 359 359 292
Width: 317
Flags: HMW
LayerCount: 2
Fore
SplineSet
117 322 m 1
 141 407 l 1
 90 407 l 1
 90 442 l 1
 169 472 219 513 273 594 c 1
 308 594 l 1
 269 449 l 1
 341 449 l 1
 341 407 l 1
 258 407 l 1
 234 322 l 1
 326 322 l 1
 318 280 l 1
 222 280 l 1
 193 180 171 92 171 76 c 0
 171 69 179 61 187 61 c 0
 203 61 229 88 263 141 c 1
 285 127 l 1
 219 24 179 -9 119 -9 c 0
 77 -9 49 17 49 56 c 0
 49 73 58.2744 117.922 73 169 c 2
 105 280 l 1
 50 280 l 1
 59 322 l 1
 117 322 l 1
EndSplineSet
Validated: 1
MultipleSubs2: "'smcp' small caps in Latin pre-decompose-B" t barshortoverlay.cmb
EndChar

StartChar: Uogonek
Encoding: 370 370 303
Width: 714
Flags: HMW
AnchorPoint: "above" 471 668 basechar 0
LayerCount: 2
Fore
SplineSet
349 -157 m 0
 289 -157 275 -122 275 -96 c 0
 275 -68 295 -37 324 -18 c 1
 196 -16 107 52 107 148 c 0
 107 181 118 243 140 323 c 2
 196 529 l 2
 205 562 211 593 211 605 c 0
 211 633.25 178.04 638.28 138 644 c 1
 138 669 l 1
 449 669 l 1
 449 644 l 1
 387 641 371 629 355 572 c 2
 273 272 l 2
 248 181 245 166 245 139 c 0
 245 76 291 38 367 38 c 0
 422 38 466 58 500 98 c 0
 530 135 552 185 579 282 c 2
 637 491 l 2
 648 532 656 571 656 588 c 0
 656 623 633 639 576 644 c 1
 576 669 l 1
 784 669 l 1
 784 644 l 1
 729 633 720 623 682 491 c 2
 616 263 l 2
 597 198 571 51 437 0 c 1
 408 -13 367 -36 367 -69 c 1
 367 -88 375 -103 402 -103 c 0
 422 -103 464 -92 492 -69 c 1
 513 -89 l 1
 468 -135 400 -157 349 -157 c 0
EndSplineSet
Validated: 1
MultipleSubs2: "'c2sc' caps to small caps in Latin pre-decompose-A" U ogonek.cmb
EndChar

StartChar: uogonek
Encoding: 371 371 304
Width: 530
Flags: HMW
AnchorPoint: "above" 321 449 basechar 0
LayerCount: 2
Fore
SplineSet
309 -157 m 0
 249 -157 235 -122 235 -96 c 0
 235 -58.6165 269.649 -15.4582 316.869 -3.32359 c 1
 296.068 5.19543 286 23.3033 286 51 c 0
 286 79 292 106 310 161 c 1
 207 17 177 -9 110 -9 c 0
 61 -9 35 16 35 65 c 0
 35 89 42 125 56 173 c 2
 96 306 l 2
 105 335 110 363 110 379 c 0
 110 399 100 404 54 407 c 1
 54 434 l 1
 133 437 234 457 263 462 c 1
 169 154 l 2
 156 111 154 103 154 88 c 0
 154 71 161 63 175 63 c 0
 195 63 217 80 248 118 c 0
 305 190 334 256 390 449 c 1
 508 449 l 1
 430 181 l 2
 406.076 98.8008 405 91.9492 405 76 c 0
 405 67 411 59 419 59 c 0
 436 59 456 80 491 133 c 1
 512 120 l 1
 474.098 55.1296 438 16 398 0 c 0
 361 -15 327 -49 327 -69 c 0
 327 -88 335 -103 362 -103 c 0
 382 -103 424 -92 452 -69 c 1
 473 -89 l 1
 428 -135 360 -157 309 -157 c 0
EndSplineSet
Validated: 1
MultipleSubs2: "'smcp' small caps in Latin pre-decompose-A" u ogonek.cmb
EndChar

StartChar: longs
Encoding: 383 383 316
Width: 485
Flags: HMW
LayerCount: 2
Fore
SplineSet
420 614 m 0
 420 636 436 648 436 656 c 0
 436 664 429 669 419 669 c 0
 384 669 351 619 328 520 c 2
 214 30 l 2
 178 -83 130 -205 4 -205 c 0
 -56 -205 -95 -174 -95 -126 c 0
 -95 -97 -71 -72 -43 -72 c 0
 -18 -72 6 -96 6 -120 c 0
 6 -145 -10 -154 -10 -163 c 0
 -10 -169 -2 -174 8 -174 c 0
 70 -174 72 -95 186 407 c 1
 113 407 l 1
 122 449 l 1
 195 449 l 1
 231 574 285 698 421 698 c 0
 481 698 520 667 520 618 c 0
 520 587 499 565 469 565 c 0
 442 565 420 587 420 614 c 0
EndSplineSet
Validated: 1
Substitution2: "'smcp' lowercase to small caps in Latin-1" sc.s
EndChar

StartChar: LJ
Encoding: 455 455 320
Width: 1109
Flags: HM
LayerCount: 2
Fore
SplineSet
213 607 m 0
 213 635 193 636 140 644 c 1
 140 669 l 1
 457 669 l 1
 457 644 l 1
 391 640 371 627 356 572 c 2
 227 94 l 2
 224 83 222 70 222 62 c 0
 222 41 242 32 286 32 c 0
 368 32 439 52 493 90 c 0
 532 118 554 143 588 199 c 1
 612 194 l 1
 553 0 l 1
 0 0 l 1
 0 25 l 1
 49 32 66 45 80 97 c 2
 203 546 l 2
 208 564 213 595 213 607 c 0
955 607 m 0
 955 629 941 636 882 644 c 1
 882 669 l 1
 1179 669 l 1
 1179 644 l 1
 1130 638 1112 626 1098 572 c 2
 970 93 l 2
 935 -38 869 -99 761 -99 c 0
 673 -99 609 -56 609 2 c 0
 609 41 637 72 673 72 c 0
 708 72 736 44 736 9 c 0
 736 -23 713 -24 713 -45 c 0
 713 -57 722 -63 740 -63 c 0
 776 -63 791 -35 830 114 c 2
 944 546 l 2
 951 572 955 595 955 607 c 0
EndSplineSet
Validated: 1
MultipleSubs2: "'c2sc' caps to small caps in Latin pre-decompose-B" L J
EndChar

StartChar: Udieresisacute
Encoding: 471 471 327
Width: 722
Flags: HM
LayerCount: 2
Fore
SplineSet
354 719 m 0
 390 719 420 689 420 653 c 0
 420 619 389 589 354 589 c 0
 320 589 290 619 290 653 c 0
 290 689 319 719 354 719 c 0
566 719 m 0
 602 719 632 689 632 653 c 0
 632 619 601 589 566 589 c 0
 532 589 502 619 502 653 c 0
 502 689 531 719 566 719 c 0
744 569 m 1
 744 547 l 1
 689 538 680 530 642 417 c 2
 576 224 l 2
 553 156 519 -15 290 -15 c 0
 159 -15 67 42 67 126 c 0
 67 154 78 207 100 275 c 2
 156 450 l 2
 165 478 171 504 171 514 c 0
 171 533 161 540 129 544 c 0
 125 544 112 546 98 547 c 1
 98 569 l 1
 409 569 l 1
 409 547 l 1
 347 545 331 535 315 486 c 0
 233 231 l 2
 208 154 205 141 205 118 c 0
 205 65 251 32 327 32 c 0
 382 32 426 49 460 83 c 0
 490 115 512 157 539 240 c 2
 597 417 l 2
 608 452 616 485 616 500 c 0
 616 530 593 543 536 547 c 1
 536 569 l 1
 744 569 l 1
473 719 m 1
 424 719 l 1
 546 850 l 2
 581 888 598 900 616 900 c 0
 642 900 664 878 664 853 c 0
 664 834 655 823 625 806 c 2
 473 719 l 1
EndSplineSet
Validated: 1
MultipleSubs2: "'ccmp' glyph decomp. in Latin-B" U dieresis.cmb acute.cmb
MultipleSubs2: "'c2sc' caps to small caps in Latin pre-decompose-B-2" U dieresis.cmb acute.cmb
EndChar

StartChar: Udieresiscaron
Encoding: 473 473 329
Width: 722
Flags: HM
LayerCount: 2
Fore
SplineSet
354 730 m 0
 390 730 420 700 420 664 c 0
 420 630 389 600 354 600 c 0
 320 600 290 630 290 664 c 0
 290 700 319 730 354 730 c 0
566 730 m 0
 602 730 632 700 632 664 c 0
 632 630 601 600 566 600 c 0
 532 600 502 630 502 664 c 0
 502 700 531 730 566 730 c 0
744 569 m 1
 744 547 l 1
 689 538 680 530 642 417 c 2
 576 224 l 2
 553 156 519 -15 290 -15 c 0
 159 -15 67 42 67 126 c 0
 67 154 78 207 100 275 c 2
 156 450 l 2
 165 478 171 504 171 514 c 0
 171 533 161 540 129 544 c 0
 125 544 112 546 98 547 c 1
 98 569 l 1
 409 569 l 1
 409 547 l 1
 347 545 331 535 315 486 c 0
 233 231 l 2
 208 154 205 141 205 118 c 0
 205 65 251 32 327 32 c 0
 382 32 426 49 460 83 c 0
 490 115 512 157 539 240 c 2
 597 417 l 2
 608 452 616 485 616 500 c 0
 616 530 593 543 536 547 c 1
 536 569 l 1
 744 569 l 1
666 900 m 1
 504 726 l 1
 422 726 l 1
 334 900 l 1
 384 900 l 1
 475 803 l 1
 610 900 l 1
 666 900 l 1
EndSplineSet
Validated: 1
MultipleSubs2: "'ccmp' glyph decomp. in Latin-B" U dieresis.cmb hacek.cmb
MultipleSubs2: "'c2sc' caps to small caps in Latin pre-decompose-B-2" U dieresis.cmb hacek.cmb
EndChar

StartChar: Udieresisgrave
Encoding: 475 475 331
Width: 722
Flags: HM
LayerCount: 2
Fore
SplineSet
354 726 m 0
 390 726 420 696 420 660 c 0
 420 626 389 596 354 596 c 0
 320 596 290 626 290 660 c 0
 290 696 319 726 354 726 c 0
566 726 m 0
 602 726 632 696 632 660 c 0
 632 626 601 596 566 596 c 0
 532 596 502 626 502 660 c 0
 502 696 531 726 566 726 c 0
744 569 m 1
 744 547 l 1
 689 538 680 530 642 417 c 2
 576 224 l 2
 553 156 519 -15 290 -15 c 0
 159 -15 67 42 67 126 c 0
 67 154 78 207 100 275 c 2
 156 450 l 2
 165 478 171 504 171 514 c 0
 171 533 161 540 129 544 c 0
 125 544 112 546 98 547 c 1
 98 569 l 1
 409 569 l 1
 409 547 l 1
 347 545 331 535 315 486 c 0
 233 231 l 2
 208 154 205 141 205 118 c 0
 205 65 251 32 327 32 c 0
 382 32 426 49 460 83 c 0
 490 115 512 157 539 240 c 2
 597 417 l 2
 608 452 616 485 616 500 c 0
 616 530 593 543 536 547 c 1
 536 569 l 1
 744 569 l 1
497 719 m 1
 452 719 l 1
 319 808 l 2
 297 823 285 840 285 855 c 0
 285 879 306 900 330 900 c 0
 349 900 370 887 386 866 c 2
 497 719 l 1
EndSplineSet
Validated: 1
MultipleSubs2: "'ccmp' glyph decomp. in Latin-B" U dieresis.cmb grave.cmb
MultipleSubs2: "'c2sc' caps to small caps in Latin pre-decompose-B-2" U dieresis.cmb grave.cmb
EndChar

StartChar: Adotmacron
Encoding: 480 480 335
Width: 667
Flags: HM
LayerCount: 2
Fore
SplineSet
368 71 m 0
 368 94 360 128 353 177 c 1
 138 177 l 1
 79 90 l 2
 69 76 64 62 64 51 c 0
 64 31 83 21 129 21 c 1
 129 0 l 1
 -67 0 l 1
 -67 21 l 1
 -31 28 -15 39 16 81 c 2
 388 581 l 1
 413 581 l 1
 509 94 l 2
 522 30 527 26 593 21 c 1
 593 0 l 1
 289 0 l 1
 289 21 l 1
 353 26 368 36 368 71 c 0
161 211 m 1
 346 211 l 1
 309 417 l 1
 161 211 l 1
435 773 m 0
 467 773 489 750 489 720 c 0
 489 675 442 643 408 643 c 0
 378 643 356 666 356 695 c 0
 356 732 393 773 435 773 c 0
626 900 m 1
 610 830 l 1
 284 830 l 1
 301 900 l 1
 626 900 l 1
EndSplineSet
Validated: 1
MultipleSubs2: "'ccmp' glyph decomp. in Latin-B" A dotaccent.cmb macron.cmb
MultipleSubs2: "'c2sc' caps to small caps in Latin pre-decompose-B-2" A dotaccent.cmb macron.cmb
EndChar

StartChar: Gbar
Encoding: 484 484 337
Width: 730
Flags: HMW
LayerCount: 2
Fore
SplineSet
465 685 m 0
 573 685 596 655 631 655 c 0
 651 655 666 667 673 685 c 1
 704 685 l 1
 653 464 l 1
 624 468 l 1
 624 566 593 649 481 649 c 0
 290 649 200 353 200 201 c 0
 200 97 253 20 361 20 c 0
 470 20 466 64 492 152 c 1
 425 152 l 1
 425 196 l 1
 503 196 l 1
 508 214 516 243 516 262 c 0
 516 304 474 302 442 304 c 1
 442 330 l 1
 729 330 l 1
 729 304 l 1
 657 300 659 256 643 196 c 1
 723 196 l 1
 723 152 l 1
 631 152 l 1
 602 41 l 1
 522 3 434 -18 345 -18 c 0
 179 -18 44 77 44 253 c 0
 44 483 232 685 465 685 c 0
EndSplineSet
Validated: 1
Substitution2: "'c2sc' caps to small caps in Latin-1" sc.gstroke
EndChar

StartChar: gbar
Encoding: 485 485 338
Width: 510
Flags: HMW
LayerCount: 2
Fore
SplineSet
528 373 m 1
 461 373 l 1
 465 359 467 345 467 330 c 0
 467 214 350 153 247 153 c 0
 230 153 215 161 199 161 c 0
 186 161 172 139 172 127 c 0
 172 102 238 84 302 64 c 0
 364 44 426 16 426 -46 c 0
 426 -52 425 -59 424 -66 c 1
 473 -66 l 1
 461 -110 l 1
 410 -110 l 1
 367 -184 260 -203 182 -203 c 0
 122 -203 8 -185 -1 -110 c 1
 -54 -110 l 1
 -42 -66 l 1
 4 -66 l 1
 23 -18 83 -4 128 6 c 1
 128 8 l 1
 98 18 69 37 69 72 c 0
 69 124 126 148 165 170 c 1
 115 189 85 232 85 283 c 0
 85 398 208 462 309 462 c 0
 347 462 387 453 417 429 c 1
 528 429 l 1
 528 373 l 1
350 369 m 0
 350 398 338 431 304 431 c 0
 238 431 201 301 201 248 c 0
 201 218 208 184 245 184 c 0
 313 184 350 315 350 369 c 0
305 -66 m 1
 282 -36 200 -16 163 -6 c 1
 136 -17 102 -39 90 -66 c 1
 305 -66 l 1
315 -110 m 1
 88 -110 l 1
 103 -153 152 -169 194 -169 c 0
 236 -169 306 -162 315 -110 c 1
EndSplineSet
Validated: 1
Substitution2: "'smcp' lowercase to small caps in Latin-1" sc.gstroke
EndChar

StartChar: Oogonek
Encoding: 490 490 343
Width: 676
Flags: HMW
AnchorPoint: "above" 456 670 basechar 0
LayerCount: 2
Fore
SplineSet
249 -157 m 0
 189 -157 175 -122 175 -96 c 0
 175 -67 197 -34 229 -15 c 1
 112 3 36 93 36 221 c 0
 36 412 213 685 458 685 c 0
 597 685 700 587 700 454 c 0
 700 258 542 3 302 -17 c 1
 273 -33 267 -52 267 -69 c 0
 267 -88 275 -103 302 -103 c 0
 322 -103 364 -92 392 -69 c 1
 413 -89 l 1
 368 -135 300 -157 249 -157 c 0
454 651 m 0
 390 651 337 610 286 520 c 0
 231 424 180 239 180 137 c 0
 180 63 219 16 282 16 c 0
 336 16 381 46 427 113 c 0
 494 211 556 411 556 531 c 0
 556 603 515 651 454 651 c 0
EndSplineSet
Validated: 1
MultipleSubs2: "'c2sc' caps to small caps in Latin pre-decompose-B" O ogonek.cmb
EndChar

StartChar: oogonek
Encoding: 491 491 344
Width: 474
Flags: HMW
AnchorPoint: "above" 316 449 basechar 0
LayerCount: 2
Fore
SplineSet
165 -157 m 0
 105 -157 91 -122 91 -96 c 0
 91 -64 116 -28 153 -11 c 1
 77 1 25 60 25 135 c 0
 25 303 165 462 312 462 c 0
 403 462 469 399 469 311 c 0
 469 171 376 41 259 0 c 0
 222 -12 183 -46 183 -69 c 0
 183 -88 191 -103 218 -103 c 0
 238 -103 280 -92 308 -69 c 1
 329 -89 l 1
 284 -135 216 -157 165 -157 c 0
193 16 m 0
 299 16 350 309 350 375 c 0
 350 411 332 433 303 433 c 0
 209 433 144 200 144 78 c 0
 144 40 163 16 193 16 c 0
EndSplineSet
Validated: 1
MultipleSubs2: "'smcp' small caps in Latin pre-decompose-B" o ogonek.cmb
EndChar

StartChar: Ecedilla
Encoding: 552 552 391
Width: 610
Flags: HMW
LayerCount: 2
Fore
SplineSet
283 32 m 0
 455 32 531 106 588 199 c 1
 613 194 l 1
 554 0 l 1
 259.328 0 l 1
 215 -66 l 1
 225 -64 231 -63 241 -63 c 0
 293 -63 331 -93 331 -135 c 0
 331 -185 278 -222 207 -222 c 0
 171 -222 139 -215 95 -197 c 1
 117 -164 l 1
 145 -177 162 -181 184 -181 c 0
 218 -181 240 -165 240 -140 c 0
 240 -118 222 -104 193 -104 c 0
 183 -104 175 -105 163 -108 c 1
 150 -96 l 1
 215.32 0 l 1
 0 0 l 1
 0 25 l 1
 52 33 65 44 80 97 c 2
 203 546 l 2
 209 568 213 591 213 606 c 0
 213 635 188 637 140 644 c 1
 140 669 l 1
 680 669 l 1
 637 479 l 1
 610 484 l 1
 610 573 593 637 426 637 c 0
 385 637 373 628 363 593 c 2
 302 370 l 1
 315 370 l 2
 436 370 462 385 507 476 c 1
 535 472 l 1
 461 199 l 1
 433 204 l 1
 436 223 437 234 437 248 c 0
 437 317 407 336 293 338 c 1
 237 129 l 1
 237 123 222 83 222 66 c 0
 222 42 240 32 283 32 c 0
EndSplineSet
Validated: 1
MultipleSubs2: "'c2sc' caps to small caps in Latin pre-decompose-A" E cedilla.cmb
EndChar

StartChar: ecedilla
Encoding: 553 553 392
Width: 417
Flags: HMW
LayerCount: 2
Fore
SplineSet
167 214 m 1
 244 242 325 285 325 395 c 0
 325 417 316 429 297 429 c 0
 249 429 203 352 167 214 c 1
336 142 m 1
 365 125 l 1
 307.129 29.5137 254.841 -10.1562 183.01 -12.8516 c 1
 150 -62 l 1
 160 -60 166 -59 176 -59 c 0
 228 -59 266 -89 266 -131 c 0
 266 -181 213 -218 142 -218 c 0
 106 -218 74 -211 30 -193 c 1
 52 -160 l 1
 80 -173 97 -177 119 -177 c 0
 153 -177 175 -161 175 -136 c 0
 175 -114 157 -100 128 -100 c 0
 118 -100 110 -101 98 -104 c 1
 85 -92 l 1
 141.038 -9.6416 l 1
 71.8467 4.43945 24 61.3701 24 134 c 0
 24 299 168 462 312 462 c 0
 373 462 417 426 417 375 c 0
 417 332 387 226 160 182 c 1
 156 162 154 149 154 133 c 0
 154 79 176 51 219 51 c 0
 261 51 289 73 336 142 c 1
EndSplineSet
Validated: 1
MultipleSubs2: "'smcp' small caps in Latin pre-decompose-B" e cedilla.cmb
EndChar

StartChar: Odotmacron
Encoding: 560 560 399
Width: 722
Flags: HM
LayerCount: 2
Fore
SplineSet
483 762 m 0
 519 762 549 732 549 696 c 0
 549 662 518 632 483 632 c 0
 449 632 419 662 419 696 c 0
 419 732 448 762 483 762 c 0
27 188 m 0
 27 350 204 582 449 582 c 0
 588 582 691 499 691 386 c 0
 691 212 520 -15 263 -15 c 0
 122 -15 27 66 27 188 c 0
445 553 m 0
 381 553 328 518 277 442 c 0
 222 360 171 203 171 116 c 0
 171 54 210 14 273 14 c 0
 327 14 372 39 418 96 c 0
 485 179 547 349 547 451 c 0
 547 513 506 553 445 553 c 0
680 872 m 1
 664 802 l 1
 338 802 l 1
 355 872 l 1
 680 872 l 1
EndSplineSet
Validated: 1
MultipleSubs2: "'ccmp' glyph decomp. in Latin-B" O dotaccent.cmb macron.cmb
MultipleSubs2: "'c2sc' caps to small caps in Latin pre-decompose-B-2" O dotaccent.cmb macron.cmb
EndChar

StartChar: ezh
Encoding: 658 658 403
Width: 470
Flags: HMW
LayerCount: 2
Fore
SplineSet
474 432 m 1
 250 256 l 1
 265 259 281 261 297 261 c 0
 386 261 430 196 430 112 c 0
 430 -64 276 -217 100 -217 c 0
 27.5 -217 -55 -178 -55 -115 c 0
 -55 -81 -27 -53 7 -53 c 0
 41 -53 69 -81 69 -115 c 0
 69 -137 58 -158 38 -168 c 1
 49 -177 72 -186 89 -186 c 0
 220 -186 305 -61 305 62 c 0
 305 139 257 172 184 172 c 0
 159 172 134 163 110 158 c 1
 99 180 l 1
 172 238 244 297 319 353 c 1
 138 353 l 2
 101 353 86 322 75 292 c 1
 47 295 l 1
 90 449 l 1
 474 449 l 1
 474 432 l 1
EndSplineSet
Validated: 1
Substitution2: "'smcp' lowercase to small caps in Latin-1" Ezhsmallcap
Substitution2: "'sups' superscript-phonetic" ezhsup
EndChar

StartChar: circumflex
Encoding: 710 710 404
Width: 333
Flags: HMW
LayerCount: 2
Fore
SplineSet
316 516 m 1
 228 611 l 1
 97 516 l 1
 40 516 l 1
 200 690 l 1
 281 690 l 1
 367 516 l 1
 316 516 l 1
EndSplineSet
Validated: 1
EndChar

StartChar: hacek
Encoding: 711 711 405
Width: 333
Flags: HMW
LayerCount: 2
Fore
SplineSet
411 690 m 1
 249 516 l 1
 167 516 l 1
 79 690 l 1
 129 690 l 1
 220 593 l 1
 355 690 l 1
 411 690 l 1
EndSplineSet
Validated: 1
EndChar

StartChar: breve
Encoding: 728 728 408
Width: 333
Flags: HMW
LayerCount: 2
Fore
SplineSet
348 678 m 1
 387 678 l 1
 369 574 305 516 208 516 c 0
 115 516 71 564 71 665 c 2
 71 678 l 1
 114 678 l 1
 120 617 153 588 216 588 c 0
 281 588 317 612 348 678 c 1
EndSplineSet
Validated: 1
EndChar

StartChar: dotaccent
Encoding: 729 729 409
Width: 333
Flags: HMW
LayerCount: 2
Fore
SplineSet
335 655 m 0
 371 655 401 625 401 589 c 0
 401 555 370 525 335 525 c 0
 301 525 271 555 271 589 c 0
 271 625 300 655 335 655 c 0
EndSplineSet
Validated: 1
EndChar

StartChar: ring
Encoding: 730 730 410
Width: 333
Flags: HMW
LayerCount: 2
Fore
SplineSet
337 743 m 0
 391 743 436 695.333 436 643 c 0
 436 588 391 543 336 543 c 0
 281 543 237 587 237 643 c 0
 237 695 283 743 337 743 c 0
336.1 687.1 m 0
 312.9 687.1 292.9 666.3 292.9 643.1 c 0
 292.9 619.1 312.1 598.9 335.3 598.9 c 0
 360.1 598.9 380.1 620.1 380.1 643.3 c 0
 380.1 667.3 360.1 687.1 336.1 687.1 c 0
EndSplineSet
Validated: 1
EndChar

StartChar: tilde
Encoding: 732 732 412
Width: 333
Flags: HMW
LayerCount: 2
Fore
SplineSet
279 655 m 0
 337 655 388 613 421 613 c 0
 444 613 459 624 481 655 c 1
 522 655 l 1
 482 572 440 536 380 536 c 0
 361 536 350 539 326 549 c 2
 272 572 l 2
 260 577 246 580 235 580 c 0
 213 580 198 569 178 537 c 1
 138 537 l 1
 166 609 222 655 279 655 c 0
EndSplineSet
Validated: 1
EndChar

StartChar: hungarumlaut
Encoding: 733 733 413
Width: 333
Flags: HMW
LayerCount: 2
Fore
SplineSet
158 516 m 1
 109 516 l 1
 173 647 l 2
 191 685 210 697 228 697 c 0
 254 697 278 678 278 656 c 0
 278 635 272 621 252 603 c 2
 158 516 l 1
321 516 m 1
 272 516 l 1
 359 647 l 2
 384 685 398 697 416 697 c 0
 442 697 469 681 469 659 c 0
 469 639 461 618 440 603 c 2
 321 516 l 1
EndSplineSet
Validated: 1
EndChar

StartChar: overline.cmb
Encoding: 773 773 419
Width: 0
Flags: HMW
LayerCount: 2
Fore
SplineSet
215 800 m 1
 200 728 l 1
 -300 728 l 1
 -285 800 l 1
 215 800 l 1
EndSplineSet
Validated: 1
Substitution2: "stretch600-1" overline600
Substitution2: "stretch1100" overline1100
Substitution2: "stretch1200" overline1200
Substitution2: "stretch1300" overline1300
Substitution2: "stretch800-1" overline800
Substitution2: "stretch1000-1" overline1000
Substitution2: "stretch900-1" overline900
Substitution2: "stretch550-1" overline550
Substitution2: "stretch450-1" overline450
Substitution2: "stretch400-1" overline400
Substitution2: "stretch700-1" overline700
EndChar

StartChar: hookabv.cmb
Encoding: 777 777 423
Width: 0
Flags: HMW
AnchorPoint: "abovemk" -70 480 mark 0
AnchorPoint: "viet-hook" -59 514 mark 0
AnchorPoint: "above" -73.5625 449 mark 0
LayerCount: 2
Fore
SplineSet
-90.6885 634 m 1
 -75.4951 634 -61.4766 628.473 -61.4766 610.873 c 0
 -61.4766 585.149 -85.2773 568 -104.717 568 c 0
 -124.137 568 -131.089 580.416 -131.089 598.55 c 0
 -131.089 667.71 -57.7588 685 -26.8477 685 c 0
 -4.2002 685 44.7285 673.511 44.7285 628.972 c 0
 44.7285 570.807 -3.13574 568.516 -37.9824 515 c 1
 -80.9824 515 l 1
 -48.3809 569.712 -22.8984 579.286 -22.8984 621.943 c 0
 -22.8984 638.111 -28.9043 654 -49.4375 654 c 0
 -66.9375 654 -88.2441 645.5 -90.6885 634 c 1
EndSplineSet
Validated: 1
EndChar

StartChar: linevertabv.cmb
Encoding: 781 781 427
Width: 0
Flags: HMW
AnchorPoint: "above" 0.4375 449 mark 0
LayerCount: 2
Fore
SplineSet
-40 713 m 5
 42 713 l 5
 42 528 l 5
 -40 528 l 5
 -40 713 l 5
EndSplineSet
Validated: 1
EndChar

StartChar: breveinv.cmb
Encoding: 785 785 431
Width: 0
Flags: HMW
AnchorPoint: "above" -40 449 mark 0
AnchorPoint: "cyr-above" -40 460 mark 0
LayerCount: 2
Fore
SplineSet
62 506 m 1
 61 537 59 593 -25 593 c 0
 -116 593 -142 534 -153 506 c 1
 -197 506 l 1
 -171 612 -101 669 -8 669 c 0
 74 669 110 624 110 551 c 0
 110 537 109 522 106 506 c 1
 62 506 l 1
EndSplineSet
Validated: 1
EndChar

StartChar: tackleftblw.cmb
Encoding: 792 792 438
Width: 0
Flags: HMW
AnchorPoint: "below" -183 1 mark 0
LayerCount: 2
Fore
SplineSet
-214.512 -200 m 1
 -376.512 -200 l 1
 -361.207 -128 l 1
 -199.207 -128 l 1
 -178.164 -29 l 1
 -106.164 -29 l 1
 -163.767 -300 l 1
 -235.767 -300 l 1
 -214.512 -200 l 1
EndSplineSet
Validated: 1
EndChar

StartChar: angleabv.cmb
Encoding: 794 794 440
Width: 0
Flags: HMW
LayerCount: 2
Fore
SplineSet
222.341 545 m 1
 150.341 545 l 1
 185.413 710 l 1
 20.4131 710 l 1
 35.7168 782 l 1
 272.717 782 l 1
 222.341 545 l 1
EndSplineSet
Validated: 1
EndChar

StartChar: horn.cmb
Encoding: 795 795 441
Width: 0
Flags: HMW
LayerCount: 2
Fore
SplineSet
321 474 m 0
 321 406 253 319 160 319 c 0
 125 319 95 333 78 356 c 1
 99 446 l 1
 97.667 437 97 431 97 425 c 0
 97 385 124 357 167 357 c 0
 226 357 265 402 265 429 c 0
 265 443 254 450 239 450 c 0
 226 450 221 445 209 445 c 0
 187 445 163 457 163 485 c 0
 163 502 180 562 245 562 c 0
 288 562 321 523 321 474 c 0
EndSplineSet
Validated: 1
EndChar

StartChar: hookpalatalblw.cmb
Encoding: 801 801 447
Width: 0
Flags: HMW
LayerCount: 2
Fore
SplineSet
-225 -140 m 0
 -225 -165 -240 -189 -261 -204 c 1
 -254 -206 -248 -207 -242 -207 c 0
 -213 -207 -194.038 -185.872 -186 -152 c 10
 -144 25 l 1
 -87 25 l 1
 -129 -152 l 2
 -139.349 -195.612 -188 -251 -252 -251 c 0
 -314 -251 -357 -225 -357 -177 c 0
 -357 -121 -308 -89 -276 -89 c 0
 -246 -89 -225 -111 -225 -140 c 0
EndSplineSet
Validated: 1
EndChar

StartChar: hookretroflexblw.cmb
Encoding: 802 802 448
Width: 0
Flags: HMW
LayerCount: 2
Fore
SplineSet
67 -140 m 0
 67 -168 37 -251 -83 -251 c 0
 -137 -251 -160 -212 -160 -173 c 1
 -160 -168 -159 -158 -158 -152 c 10
 -116 25 l 1
 -59 25 l 1
 -101 -152 l 2
 -102 -156 -103 -164 -103 -172 c 0
 -103 -192 -94 -207 -71 -207 c 0
 -65 -207 -59 -206 -52 -204 c 1
 -59 -195 -64 -183 -64 -169 c 0
 -64 -123 -15 -89 19 -89 c 0
 54 -89 67 -116 67 -140 c 0
EndSplineSet
Validated: 1
EndChar

StartChar: dotblw.cmb
Encoding: 803 803 449
Width: 0
Flags: HMW
AnchorPoint: "below" -226 1 mark 0
LayerCount: 2
Fore
SplineSet
-247 -200 m 0
 -271 -200 -312 -180 -312 -136 c 0
 -312 -99 -283 -70 -248 -70 c 0
 -212 -70 -182 -100 -182 -136 c 0
 -182 -179 -223 -200 -247 -200 c 0
EndSplineSet
Validated: 1
EndChar

StartChar: dieresisblw.cmb
Encoding: 804 804 450
Width: 0
Flags: HMW
AnchorPoint: "below" -217 1 mark 0
LayerCount: 2
Fore
SplineSet
-333 -200 m 0
 -357 -200 -398 -180 -398 -136 c 0
 -398 -99 -369 -70 -334 -70 c 0
 -298 -70 -268 -100 -268 -136 c 0
 -268 -179 -309 -200 -333 -200 c 0
-122 -200 m 0
 -146 -200 -187 -180 -187 -136 c 0
 -187 -99 -158 -70 -123 -70 c 0
 -87 -70 -57 -100 -57 -136 c 0
 -57 -179 -98 -200 -122 -200 c 0
EndSplineSet
Validated: 1
EndChar

StartChar: commablw.cmb
Encoding: 806 806 452
Width: 0
Flags: HMW
AnchorPoint: "below" -161 0 mark 0
LayerCount: 2
Fore
SplineSet
-209.48 -184 m 0
 -239 -184 -262.145 -166.206 -262.145 -137.64 c 0
 -262.145 -93.9443 -223 -56 -182.273 -56 c 0
 -138.749 -56 -110.777 -88.0449 -110.777 -131.625 c 0
 -110.777 -202.975 -176 -268 -276.263 -300 c 1
 -285.374 -277 l 1
 -216.954 -251.391 -178.356 -201.711 -178.356 -182.889 c 0
 -178.356 -181.321 -179.192 -180 -181.63 -180 c 0
 -186.63 -180 -193.48 -184 -209.48 -184 c 0
EndSplineSet
Validated: 1
EndChar

StartChar: cedilla.cmb
Encoding: 807 807 453
Width: 0
Flags: HMW
AnchorPoint: "below" -215 1 mark 0
LayerCount: 2
Fore
SplineSet
-301 -92 m 1
 -235 5 l 1
 -191 5 l 1
 -236 -62 l 1
 -227 -60 -219 -59 -210 -59 c 0
 -186 -59 -120 -71 -120 -131 c 0
 -120 -194 -192 -218 -245 -218 c 0
 -297 -218 -339 -200 -356 -193 c 1
 -334 -160 l 1
 -312 -170 -294 -177 -265 -177 c 0
 -234 -177 -211 -162 -211 -136 c 0
 -211 -132 -211 -100 -257 -100 c 0
 -271 -100 -280 -102 -288 -104 c 1
 -301 -92 l 1
EndSplineSet
Validated: 1
EndChar

StartChar: ogonek.cmb
Encoding: 808 808 454
Width: 0
Flags: HMW
AnchorPoint: "ogonek" -222 0 mark 0
LayerCount: 2
Fore
SplineSet
-282 -157 m 0
 -342 -157 -356 -122 -356 -96 c 0
 -356 -52 -308 0 -248 0 c 2
 -186 0 l 1
 -251 -18 -264 -46 -264 -69 c 0
 -264 -88 -256 -103 -229 -103 c 0
 -209 -103 -167 -92 -139 -69 c 1
 -118 -89 l 1
 -163 -135 -231 -157 -282 -157 c 0
EndSplineSet
Validated: 1
EndChar

StartChar: archdoubleblw.cmb
Encoding: 811 811 457
Width: 0
VWidth: 613
Flags: HMW
AnchorPoint: "below" -234.732 1 mark 0
LayerCount: 2
Fore
SplineSet
-270.47 -191.356 m 1
 -289.632 -210.191 -313.033 -219 -336.643 -219 c 0
 -375.258 -219 -399.717 -203.877 -399.717 -164.761 c 0
 -399.717 -154.038 -397.879 -141.512 -393.991 -127 c 2
 -380.594 -77 l 1
 -316.594 -77 l 1
 -329.991 -127 l 2
 -331.806 -133.773 -332.614 -138.916 -332.614 -142.82 c 0
 -332.614 -153.946 -326.046 -155 -317.494 -155 c 0
 -299.693 -155 -290.993 -149.4 -284.991 -127 c 2
 -271.594 -77 l 1
 -207.594 -77 l 1
 -220.991 -127 l 2
 -222.443 -132.418 -223.116 -136.854 -223.116 -140.464 c 0
 -223.116 -151.781 -216.5 -155 -206.494 -155 c 0
 -191.928 -155 -181.33 -150.656 -174.991 -127 c 2
 -161.594 -77 l 1
 -97.5938 -77 l 1
 -111.259 -128 l 2
 -128.878 -193.755 -167.204 -218 -219.374 -218 c 0
 -241.015 -218 -262.23 -210.396 -270.47 -191.356 c 1
EndSplineSet
Validated: 1
EndChar

StartChar: macronblw.cmb
Encoding: 817 817 463
Width: 0
Flags: HMW
AnchorPoint: "belowmk" -210 -35 mark 0
AnchorPoint: "below" -213 1 mark 0
LayerCount: 2
Fore
SplineSet
-46.6221 -58 m 1
 -61.9268 -130 l 1
 -374.927 -130 l 1
 -359.622 -58 l 1
 -46.6221 -58 l 1
EndSplineSet
Validated: 1
EndChar

StartChar: barshortoverlay.cmb
Encoding: 821 821 467
Width: 0
Flags: HMW
AnchorPoint: "stem-vert" -150 224 mark 0
AnchorPoint: "middle" -145 224 mark 0
LayerCount: 2
Fore
SplineSet
-12.1602 247 m 1
 -26.4648 205 l 1
 -277.465 205 l 1
 -263.16 247 l 1
 -12.1602 247 l 1
EndSplineSet
Validated: 1
EndChar

StartChar: barlongoverlay.cmb
Encoding: 822 822 468
Width: 0
Flags: HMW
AnchorPoint: "stem-vert" -180 220 mark 0
AnchorPoint: "middle" -183 224 mark 0
LayerCount: 2
Fore
SplineSet
31.0518 247 m 1
 15.748 205 l 1
 -390.252 205 l 1
 -374.948 247 l 1
 31.0518 247 l 1
EndSplineSet
Validated: 1
EndChar

StartChar: slashshortoverlay.cmb
Encoding: 823 823 469
Width: 0
Flags: HMW
AnchorPoint: "middle" -221 224 mark 0
LayerCount: 2
Fore
SplineSet
-435.542 168 m 1
 8.41895 336 l 1
 7.12891 277 l 1
 -436.831 109 l 1
 -435.542 168 l 1
EndSplineSet
Validated: 1
EndChar

StartChar: slashlongoverlay.cmb
Encoding: 824 824 470
Width: 0
Flags: HMW
AnchorPoint: "middle" -203.285 224 mark 0
LayerCount: 2
Fore
SplineSet
120.596 583 m 1
 -439.32 -127 l 1
 -521.32 -127 l 1
 38.5957 583 l 1
 120.596 583 l 1
EndSplineSet
Validated: 1
EndChar

StartChar: squareblw.cmb
Encoding: 827 827 473
Width: 0
Flags: HMW
AnchorPoint: "below" -195 0 mark 0
LayerCount: 2
Fore
SplineSet
-342 -57 m 1
 -53 -57 l 1
 -103 -270 l 1
 -391 -270 l 1
 -342 -57 l 1
-291 -129 m 1
 -307 -198 l 1
 -153 -198 l 1
 -137 -129 l 1
 -291 -129 l 1
EndSplineSet
Validated: 1
EndChar

StartChar: seagullblw.cmb
Encoding: 828 828 474
Width: 0
Flags: HMW
AnchorPoint: "below" -183 1 mark 0
LayerCount: 2
Fore
SplineSet
-120 -137 m 0
 -230 -137 -207 -273 -257 -273 c 0
 -267.083 -273 -269.814 -269.219 -269.814 -260.116 c 0
 -269.814 -249.358 -266 -231.167 -266 -203 c 0
 -266 -163 -282 -137 -330 -137 c 0
 -373 -137 -390 -148 -403 -148 c 0
 -408 -148 -410 -146 -410 -142 c 0
 -410 -128 -343 -60 -290 -60 c 0
 -254 -60 -227 -79 -225 -143 c 1
 -215 -122 -182 -60 -117 -60 c 0
 -69 -60 -40 -94 -40 -137 c 0
 -40 -143 -42 -149 -49 -149 c 0
 -58 -149 -73 -137 -120 -137 c 0
EndSplineSet
Validated: 1
EndChar

StartChar: tildevertabv.cmb
Encoding: 830 830 476
Width: 0
Flags: HMW
AnchorPoint: "cyr-above" -87 473 mark 0
AnchorPoint: "above" -80 449 mark 0
LayerCount: 2
Fore
SplineSet
41 748 m 1
 17 747 -16 727 -16 701 c 0
 -16 694 -13 686 -5 658 c 2
 2 634 l 1
 5 626 6 614 6 602 c 0
 6 530 -78 503 -145 490 c 1
 -137 524 l 1
 -112 531 -77 542 -77 575 c 0
 -77 580 -78 584 -83 598 c 2
 -93 630 l 1
 -95 636 -100 653 -100 671 c 0
 -100 758 19 777 49 782 c 1
 41 748 l 1
EndSplineSet
Validated: 1
EndChar

StartChar: tildedbl.cmb
Encoding: 864 864 478
Width: 0
Flags: HMW
AnchorPoint: "abovemk" 253 896 basemark 0
LayerCount: 2
Fore
SplineSet
44 900 m 0
 186 900 262 815 415 815 c 0
 513 815 595 870 621 900 c 1
 654 885 l 1
 620 836 533 733 376 733 c 0
 278 733 97 817 4 817 c 0
 -61 817 -144 794 -197 733 c 1
 -234 741 l 1
 -200 790 -112 900 44 900 c 0
EndSplineSet
Validated: 1
EndChar

StartChar: breveinvdbl.cmb
Encoding: 865 865 479
Width: 0
Flags: HMW
AnchorPoint: "abovemk" 243 904 basemark 0
LayerCount: 2
Fore
SplineSet
522 751 m 1
 501 731 l 1
 428.8 776.7 289 802 216 802 c 0
 151 802 8 797 -109 731 c 1
 -120 751 l 1
 -4 859 135 900 240 900 c 0
 339 900 461 856 522 751 c 1
EndSplineSet
Validated: 1
EndChar

StartChar: numeralsignlowergreek
Encoding: 885 885 480
Width: 199
Flags: HMW
LayerCount: 2
Fore
SplineSet
198 -9 m 0
 172 -55 99 -220 43 -220 c 0
 14.75 -220 1 -199 1 -175 c 1
 1 -129 134 -29 176 9 c 0
 198 -9 l 0
EndSplineSet
Validated: 1
EndChar

StartChar: ypogegrammeni
Encoding: 890 890 481
Width: 0
Flags: HMW
LayerCount: 2
Fore
SplineSet
193 -119 m 1
 180 -174 141 -200 86 -200 c 0
 54 -200 18 -183 18 -146 c 0
 18 -107 30 -78 40 -39 c 1
 130 -39 l 1
 119 -77 111 -94 111 -134 c 0
 111 -144 112 -160 126 -160 c 0
 149 -160 156 -136 164 -119 c 1
 193 -119 l 1
EndSplineSet
Validated: 1
EndChar

StartChar: dieresistonos
Encoding: 901 901 483
Width: 333
Flags: HMW
LayerCount: 2
Fore
SplineSet
272 563 m 1
 241 563 l 1
 324 739 l 2
 338 769 353 787 384 787 c 0
 405 787 423 771 423 748 c 0
 423 726 405.852 704.219 381 678 c 2
 381 678 290 583 272 563 c 1
162.4 621 m 0
 191.2 621 215.2 597 215.2 568.2 c 0
 215.2 541 190.4 517 162.4 517 c 0
 135.2 517 111.2 541 111.2 568.2 c 0
 111.2 597 134.4 621 162.4 621 c 0
402 621 m 0
 430.8 621 454.8 597 454.8 568.2 c 0
 454.8 541 430 517 402 517 c 0
 374.8 517 350.8 541 350.8 568.2 c 0
 350.8 597 374 621 402 621 c 0
EndSplineSet
Validated: 1
EndChar

StartChar: anoteleia
Encoding: 903 903 485
Width: 250
Flags: HMW
LayerCount: 2
Fore
SplineSet
251 351 m 0
 251 300 209 258 158 258 c 0
 107 258 65 300 65 351 c 0
 65 402 107 444 158 444 c 0
 209 444 251 402 251 351 c 0
EndSplineSet
Validated: 1
EndChar

StartChar: Gamma
Encoding: 915 915 495
Width: 576
Flags: HMW
AnchorPoint: "above_gk" 404 670 basechar 0
LayerCount: 2
Fore
SplineSet
680 669 m 1
 637 479 l 1
 610 484 l 1
 610 615 547 637 421 637 c 0
 385 637 372 627 363 593 c 2
 237 129 l 2
 229.991 103.188 225 78 225 68 c 0
 225 36 273 26 308 25 c 1
 308 0 l 1
 0 0 l 1
 0 25 l 1
 51 34 66 44 80 97 c 0
 203 546 l 2
 208 563 213 587.5 213 602 c 0
 213 644 172 640 140 644 c 1
 140 669 l 1
 680 669 l 1
EndSplineSet
Validated: 1
Substitution2: "'c2sc' caps to small caps in Greek-1" sc.gamma
EndChar

StartChar: Delta
Encoding: 916 916 496
Width: 751
Flags: HMW
AnchorPoint: "above_gk" 454 670 basechar 0
LayerCount: 2
Fore
SplineSet
715 0 m 1
 0 0 l 1
 435 683 l 1
 457 683 l 1
 715 0 l 1
553 40 m 1
 373 518 l 1
 69 40 l 1
 553 40 l 1
EndSplineSet
Validated: 1
Substitution2: "'c2sc' caps to small caps in Greek-1" sc.delta
EndChar

StartChar: Theta
Encoding: 920 920 500
Width: 675
Flags: HMW
AnchorPoint: "above_gk" 447 670 basechar 0
LayerCount: 2
Fore
SplineSet
696 444 m 0
 696 225 498 -18 270 -18 c 0
 140 -18 32 73 32 207 c 0
 32 430 216 685 454 685 c 0
 597 685 696 588 696 444 c 0
552 526 m 0
 552 593 523 651 447 651 c 0
 279 651 176 284 176 150 c 0
 176 79 200 16 280 16 c 0
 450 16 552 391 552 526 c 0
512 455 m 1
 458 235 l 1
 434 235 l 1
 435 241 436 247 436 252 c 0
 436 280 418 296 391 296 c 2
 321 296 l 2
 285 296 256 269 248 235 c 1
 224 235 l 1
 278 455 l 1
 302 455 l 1
 301 449 300 443 300 438 c 0
 300 410 318 394 345 394 c 2
 415 394 l 2
 451 394 480 421 488 455 c 1
 512 455 l 1
EndSplineSet
Validated: 1
AlternateSubs2: "'aalt' access-all-altern. in Greek 1" Thetasymbol
Substitution2: "'c2sc' caps to small caps in Greek-1" sc.theta
EndChar

StartChar: Lambda
Encoding: 923 923 503
Width: 696
Flags: HMW
AnchorPoint: "above_gk" 466 670 basechar 0
LayerCount: 2
Fore
SplineSet
660 0 m 1
 356 0 l 1
 356 25 l 1
 396 28 435 30 435 81 c 0
 435 127 423 177 416 222 c 0
 376 491 l 1
 146 106 l 2
 138 92 131 76 131 60 c 0
 131 27 172 25 196 25 c 1
 196 0 l 1
 0 0 l 1
 0 25 l 1
 44 36 59 58 83 95 c 2
 455 683 l 1
 480 683 l 1
 576 111 l 1
 588 41 590 31 660 25 c 1
 660 0 l 1
EndSplineSet
Validated: 1
Substitution2: "'c2sc' caps to small caps in Greek-1" sc.lambda
EndChar

StartChar: Xi
Encoding: 926 926 506
Width: 629
Flags: HMW
AnchorPoint: "above_gk" 424 670 basechar 0
LayerCount: 2
Fore
SplineSet
701 669 m 1
 642 439 l 1
 618 439 l 1
 621 450 623 460 623 471 c 0
 623 504 606 528 571 528 c 2
 230 528 l 2
 178 528 148 485 136 439 c 1
 113 439 l 1
 172 669 l 1
 701 669 l 1
547 461 m 1
 482 208 l 1
 459 208 l 1
 461 215 462 222 462 229 c 0
 462 253 450 272 424 272 c 2
 241 272 l 2
 206 272 183 238 175 208 c 1
 153 208 l 1
 218 461 l 1
 240 461 l 1
 238 454 237 446 237 438 c 0
 237 414 249 397 275 397 c 2
 458 397 l 2
 494 397 515 430 524 461 c 1
 547 461 l 1
588 231 m 1
 529 0 l 1
 0 0 l 1
 60 231 l 1
 82 231 l 1
 79 220 78 209 78 198 c 0
 78 162 96 141 133 141 c 2
 474 141 l 2
 525 141 554 187 565 231 c 1
 588 231 l 1
EndSplineSet
Validated: 1
Substitution2: "'c2sc' caps to small caps in Greek-1" sc.xi
EndChar

StartChar: Pi
Encoding: 928 928 508
Width: 753
Flags: HMW
AnchorPoint: "above_gk" 474 670 basechar 0
LayerCount: 2
Fore
SplineSet
823 644 m 1
 772 636 756 624 742 572 c 2
 633 175 l 1
 625 147 608 94 608 67 c 0
 608 27 651 26 681 25 c 1
 681 0 l 1
 364 0 l 1
 364 25 l 1
 424 27 449 39 465 97 c 2
 610 625 l 1
 371 625 l 1
 240 148 l 2
 233 122 223 95 223 68 c 0
 223 24 263 27 296 25 c 1
 296 0 l 1
 0 0 l 1
 0 25 l 1
 50 33 66 46 80 97 c 2
 202 546 l 1
 207 563 213 583 213 600 c 0
 213 642 173 639 140 644 c 1
 140 669 l 1
 823 669 l 1
 823 644 l 1
EndSplineSet
Validated: 1
Substitution2: "'c2sc' caps to small caps in Greek-1" sc.pi
EndChar

StartChar: Sigma
Encoding: 931 931 510
Width: 701
Flags: HMW
AnchorPoint: "above_gk" 444 670 basechar 0
LayerCount: 2
Fore
SplineSet
749 669 m 1
 712 475 l 1
 682 475 l 1
 683 486 684 496 684 507 c 0
 684 602 626 635 538 635 c 2
 322 635 l 1
 443 364 l 1
 186 141 l 1
 462 141 l 2
 540 141 611 150 637 236 c 1
 665 236 l 1
 580 0 l 1
 0 0 l 1
 9 33 l 1
 323 303 l 1
 162 624 l 1
 173 669 l 1
 749 669 l 1
EndSplineSet
Validated: 1
AlternateSubs2: "'aalt' access-all-altern. in Greek 1" Sigmalunate Sigmalunaterev
Substitution2: "'c2sc' caps to small caps in Greek-1" sc.sigma
Substitution2: "'cv05' char. var. in Greek lunate sigma-1" Sigmalunate
EndChar

StartChar: Phi
Encoding: 934 934 513
Width: 799
Flags: HMW
AnchorPoint: "above_gk" 504 670 basechar 0
LayerCount: 2
Fore
SplineSet
442 122 m 1
 437 105 432 85 432 68 c 0
 432 26 472 26 504 25 c 1
 504 0 l 1
 208 0 l 1
 208 25 l 1
 274 34 279 63 295 122 c 1
 190 123 54 159 54 288 c 0
 54 470 257 559 414 559 c 1
 417 572 421 588 421 602 c 0
 421 644 381 640 348 644 c 1
 348 669 l 1
 646 669 l 1
 646 644 l 1
 588 637 576 614 560 559 c 1
 662 559 806 515 806 390 c 0
 806 202 600 122 442 122 c 1
636 434 m 0
 636 490 614 530 553 530 c 1
 546 503 451 152 449 150 c 1
 454 150 l 2
 580 150 636 332 636 434 c 0
407 530 m 1
 285 530 222 351 222 251 c 0
 222 197 243 152 303 150 c 1
 407 530 l 1
EndSplineSet
Validated: 1
Substitution2: "'c2sc' caps to small caps in Greek-1" sc.phi
EndChar

StartChar: Psi
Encoding: 936 936 515
Width: 868
Flags: HMW
AnchorPoint: "above_gk" 554 670 basechar 0
LayerCount: 2
Fore
SplineSet
954 677 m 1
 947 649 l 1
 942 651 937 652 932 652 c 0
 876 652 872 562 843 463 c 0
 808 345 737 215 499 215 c 1
 491 186 464 97 464 68 c 0
 464 26 504 26 536 25 c 1
 536 0 l 1
 240 0 l 1
 240 25 l 1
 290 32 307 47 320 97 c 2
 352 215 l 1
 246 215 124 244 124 373 c 0
 124 413 136 457 148 499 c 0
 160 542 173 584 173 619 c 0
 173 640 162 652 146 652 c 0
 141 652 136 651 130 649 c 1
 137 677 l 1
 157 682 181 686 203 686 c 0
 277 686 332 663 332 581 c 0
 332 536 319 493 306 451 c 0
 293 408 280 365 280 320 c 0
 280 267 309 245 360 244 c 1
 443 546 l 2
 448 563 453 585 453 602 c 0
 453 644 413 640 380 644 c 1
 380 669 l 1
 678 669 l 1
 678 644 l 1
 627 638 610 623 596 572 c 2
 507 244 l 1
 622 247 641 355 668 463 c 0
 696 574 733 686 892 686 c 0
 913 686 934 681 954 677 c 1
EndSplineSet
Validated: 1
Substitution2: "'c2sc' caps to small caps in Greek-1" sc.psi
EndChar

StartChar: Omega
Encoding: 937 937 516
Width: 750
Flags: HMW
AnchorPoint: "below_gk" 361 0 basechar 0
AnchorPoint: "above_gk" 514 670 basechar 0
LayerCount: 2
Fore
SplineSet
457 177 m 1
 442 122 l 1
 581 122 l 2
 625 122 661 125 672 176 c 1
 695 176 l 1
 650 0 l 1
 379 0 l 1
 433 211 l 1
 538 248 598 409 598 512 c 0
 598 576 586 652 500 652 c 0
 353 652 265 448 265 324 c 0
 265 278 278 231 325 211 c 1
 271 0 l 1
 0 0 l 1
 45 176 l 1
 68 176 l 1
 66 169 64 162 64 155 c 0
 64 122 100.5 122 132 122 c 2
 270 122 l 1
 284 177 l 1
 186 192 90 253 90 362 c 0
 90 570 328 685 508 685 c 0
 638 685 774 631 774 480 c 0
 774 309 611 199 457 177 c 1
EndSplineSet
Validated: 1
Substitution2: "'c2sc' caps to small caps in Greek-1" sc.omega
EndChar

StartChar: alpha
Encoding: 945 945 524
Width: 570
VWidth: 975
Flags: HMW
AnchorPoint: "below_gk" 239 0 basechar 0
AnchorPoint: "above_gk" 303 460 basechar 0
LayerCount: 2
Fore
SplineSet
574 449 m 1
 400 149 l 1
 404 122 414 82 449 82 c 0
 476 82 501 106 511 130 c 1
 540 130 l 1
 522 80 487 -13 423 -13 c 0
 380.314 -13 371.359 40.0068 371.359 81.0391 c 0
 371.359 92.876 372.104 103.716 373 112 c 1
 371 112 l 1
 325 53 259 -13 179 -13 c 0
 76 -13 17 50 17 151 c 0
 17 293 140 462 291 462 c 0
 359.387 462 378.868 413.095 378.868 355.217 c 0
 378.868 347.927 378.559 340.495 378 333 c 1
 380 333 l 1
 437 449 l 1
 574 449 l 1
347 346 m 0
 347 380 341 433 295 433 c 0
 206 433 136 260 136 108 c 0
 136 60 149 16 185 16 c 0
 289 16 347 269 347 346 c 0
EndSplineSet
Validated: 1
Substitution2: "'smcp' lowercase to small caps in Greek-1" sc.a
EndChar

StartChar: beta
Encoding: 946 946 525
Width: 538
VWidth: 975
Flags: HMW
LayerCount: 2
Fore
SplineSet
226 501 m 2
 94 -138 l 18
 86.4844 -174.382 72 -212 20 -212 c 0
 1.92285 -212 -36 -203 -36 -158 c 0
 -36 -137 -32.4775 -124.042 -23 -92 c 2
 123 396 l 2
 173.661 570.779 239 698 412 698 c 0
 483 698 572 667 572 586 c 0
 572 471 471 425 373 404 c 1
 373 402 l 1
 458 390 518 352 518 255 c 0
 518 128 403 -13 269 -13 c 0
 212 -13 149 9 149 83 c 1
 192 83 l 1
 192 42.041 224 32 244 32 c 0
 332 32 357 128 377 198 c 0
 386.062 229.716 392 276 392 299 c 0
 392 326 384 380 348 380 c 0
 333 380 318 363 295 363 c 0
 284 363 258 371 258 398 c 0
 258 424 279 436 295 436 c 0
 314 436 336 419 352 419 c 0
 414 419 453 508 453 580 c 0
 453 628 440 670 384 670 c 0
 322 670 252.69 630.205 226 501 c 2
EndSplineSet
Validated: 1
AlternateSubs2: "'aalt' access-all-altern. in Greek 1" betasymbol
Substitution2: "'smcp' lowercase to small caps in Greek-1" sc.b
Substitution2: "positional forms in Greek-1" betasymbol
Substitution2: "'subs' subscript-phonetic" betasub
Substitution2: "'sups' superscript-phonetic" betasup
EndChar

StartChar: gamma
Encoding: 947 947 526
Width: 532
VWidth: 975
Flags: HMW
LayerCount: 2
Fore
SplineSet
258 51 m 1
 258 -86 l 2
 258 -152 237 -212 171 -212 c 0
 145 -212 105 -193 105 -135 c 0
 105 -65 174 3 224 54 c 1
 225 110 l 2
 225 171 224 330 134 330 c 0
 100 330 80 298 73 268 c 1
 40 268 l 1
 55 334 75 462 167 462 c 0
 250 462 259 323 259 266 c 0
 259 202 259 146 259 84 c 1
 261 84 l 1
 310 129 374 162 410 208 c 0
 425.785 228.17 438 249 438 281 c 0
 438 298 429 314 423 329 c 0
 417.188 343.533 410 365 410 381 c 0
 410 441 440 462 475 462 c 0
 508 462 546 438 546 383 c 0
 546 204 332 124 258 51 c 1
EndSplineSet
Validated: 1
Substitution2: "'smcp' lowercase to small caps in Greek-1" sc.gamma
Substitution2: "'subs' subscript-phonetic" gammasub
Substitution2: "'sups' superscript-phonetic" gammasup
EndChar

StartChar: delta
Encoding: 948 948 527
Width: 506
Flags: HMW
LayerCount: 2
Fore
SplineSet
200 -13 m 0
 98 -13 17 49 17 150 c 0
 17 276 137 413 275 413 c 0
 300 413 324 407 347 399 c 1
 349 401 l 1
 289 437 193 476 193 556 c 0
 193 638 282 689 361 689 c 0
 434 689 478 653 502 588 c 1
 464 574 l 1
 458 622 416 656 366 656 c 0
 333 656 291 640 291 602 c 0
 291 516.8 498 496.8 498 302 c 0
 498 145 370 -13 200 -13 c 0
372 321 m 0
 372 350 344 385 307 385 c 0
 208 385 142 188.8 142 83 c 0
 142 52 170 15 210 15 c 0
 301 15 372 214.8 372 321 c 0
EndSplineSet
Validated: 1
Substitution2: "'smcp' lowercase to small caps in Greek-1" sc.delta
Substitution2: "'sups' superscript-phonetic" deltasup
EndChar

StartChar: epsilon
Encoding: 949 949 528
Width: 439
VWidth: 975
Flags: HMW
AnchorPoint: "above_gk" 273 460 basechar 0
LayerCount: 2
Fore
SplineSet
396 334 m 0
 365 334 350 350 341 370 c 0
 335 384 327 433 269 433 c 0
 216 433 170 406 170 334 c 0
 170 298 204 258 228 258 c 0
 264 258 278 277 304 277 c 0
 326 277 342 259 342 242 c 0
 342 214 321 203 300 203 c 0
 276 203 255 227 228 227 c 0
 181 227 121 168 121 107 c 0
 121 38 181 32 222 32 c 0
 277 32 332 73 362 116 c 1
 386 100 l 1
 317 18 252 -13 145 -13 c 0
 80 -13 2 19 2 98 c 0
 2 193 80 231 164 243 c 1
 123 248 68 277 68 330 c 0
 68 430 194 462 276 462 c 0
 317 462 435 448 435 378 c 0
 435 356 424 334 396 334 c 0
EndSplineSet
Validated: 1
AlternateSubs2: "'aalt' access-all-altern. in Greek 1" epsilonlunate epsilonlunaterev
Substitution2: "'smcp' lowercase to small caps in Greek-1" sc.e
EndChar

StartChar: zeta
Encoding: 950 950 529
Width: 437
VWidth: 975
Flags: HMW
LayerCount: 2
Fore
SplineSet
251 530 m 1
 180 464 88 324 88 206 c 0
 88 147 111 114 153 114 c 0
 186 114 201 119 234 119 c 0
 309 119 344 52 344 -10 c 0
 344 -118 264 -187 126 -187 c 0
 74 -187 21.6318 -162 21.6318 -121 c 0
 21.6318 -92 42 -79 64 -79 c 0
 96 -79 114.1 -103.462 133 -120 c 0
 157 -141 178.576 -146 197 -146 c 0
 247 -146 295 -114.69 295 -62 c 0
 295 -5 237 0 211 0 c 0
 180 0 167 -5 136 -5 c 0
 64 -5 21 22 21 118 c 0
 21 264 124 448 221 539 c 1
 171 547 103.949 581 103.949 637 c 0
 103.949 673 142.5 697.5 195 698 c 1
 211 674 l 1
 178 674 161.949 655.5 161.949 624 c 0
 161.949 575 222 558 241 557 c 1
 281.5 594.5 350 648 406 648 c 0
 446 648 475.368 640 475.368 606 c 0
 475.368 555 394 523 331 523 c 0
 298 523 285 524 251 530 c 1
EndSplineSet
Validated: 1
Substitution2: "'smcp' lowercase to small caps in Greek-1" sc.z
EndChar

StartChar: eta
Encoding: 951 951 530
Width: 548
VWidth: 975
Flags: HMW
AnchorPoint: "below_gk" 163 0 basechar 0
AnchorPoint: "above_gk" 379 460 basechar 0
LayerCount: 2
Fore
SplineSet
365 -212 m 0
 331 -212 302 -182 302 -144 c 0
 302 -120 304 -104 321 -52 c 2
 443 296 l 2
 452.321 322.589 461 363 461 380 c 0
 461 398 457 425 418 425 c 0
 326 425 272.788 280.17 251 207 c 2
 189 0 l 1
 70 0 l 1
 161 318 l 2
 163 329 175 361 175 380 c 0
 175 387 170 406 144 406 c 0
 106 406 80 346 74 327 c 1
 50 341 l 1
 66 391 118 462 207 462 c 0
 269 462 296 441.5 296 394 c 0
 296 377 295.5 383 292.5 366 c 1
 294.5 366 l 1
 321 417 371 462 450 462 c 0
 513 462 529 412 529 375 c 0
 529 366 526 342 522 317 c 2
 436 -144 l 2
 427 -198 401 -212 365 -212 c 0
EndSplineSet
Validated: 1
Substitution2: "'smcp' lowercase to small caps in Greek-1" sc.h
EndChar

StartChar: theta
Encoding: 952 952 531
Width: 477
VWidth: 975
Flags: HMW
AnchorPoint: "below" 191 0 basechar 0
LayerCount: 2
Fore
SplineSet
192 -13 m 0
 73 -13 31 102 31 201 c 0
 31 369 153 678 354 678 c 0
 473 678 504 565 504 466 c 0
 504 297 383 -13 192 -13 c 0
385 575 m 0
 385 625 371.5 649 344 649 c 0
 272 649 219.921 531.775 199 446 c 2
 179 364 l 1
 363 364 l 1
 373 413 385 493 385 575 c 0
356 329 m 1
 172 329 l 1
 156 242 150 184 150 111 c 0
 150 41 173 16 201 16 c 0
 284 16 320.836 161.454 339 248 c 2
 356 329 l 1
EndSplineSet
Validated: 1
AlternateSubs2: "'aalt' access-all-altern. in Greek 1" thetasymbol
Substitution2: "'smcp' lowercase to small caps in Greek-1" sc.theta
Substitution2: "positional forms in Greek-1" thetasymbol
Substitution2: "'cv04' char. var. in Greek theta curly all" thetasymbol
Substitution2: "'locl' local. forms in Greek-1" thetasymbol
Substitution2: "'sups' superscript-phonetic" thetasup
EndChar

StartChar: iota
Encoding: 953 953 532
Width: 312
VWidth: 975
Flags: HMW
AnchorPoint: "above_gk" 199 460 basechar 0
LayerCount: 2
Fore
SplineSet
288 133 m 1
 265 54 214 -13 116 -13 c 0
 65 -13 33 3 33 55 c 0
 33 66 38 104 41 114 c 2
 139 449 l 1
 259 449 l 1
 250 410 166 123 166 123 c 2
 160 97 154 78 154 70 c 0
 154 48 175 44 186 44 c 0
 229 44 255 116 263 144 c 1
 288 133 l 1
EndSplineSet
Validated: 1
Substitution2: "'smcp' lowercase to small caps in Greek-1" sc.i
EndChar

StartChar: kappa
Encoding: 954 954 533
Width: 549
Flags: HMW
LayerCount: 2
Fore
SplineSet
197 230 m 1
 133 0 l 1
 14 0 l 1
 106 328 l 2
 113 354 117 367 117 376 c 0
 117 400 103 406 62 407 c 1
 62 434 l 1
 118 436 196 447 260 461 c 1
 206 265 l 1
 227 265 l 2
 260 265 310 330 333 368 c 0
 347 390 395 465 472 465 c 0
 506 465 530 438 530 408 c 0
 530 377 503 355 472 355 c 0
 452 355 440 366 432 374 c 0
 429 376 418 380 414 380 c 0
 404 380 392 374 382 365 c 0
 360 344 323 270 273 250 c 1
 273 244 l 1
 306 241 350 226 372 166 c 0
 379 146 398 53 432 53 c 0
 458 53 489 90 496 114 c 1
 516 102 l 1
 516 102 468 -10 385 -10 c 0
 284 -10 276 59 264 172 c 0
 258 230 225 230 207 230 c 2
 197 230 l 1
EndSplineSet
Validated: 1
AlternateSubs2: "'aalt' access-all-altern. in Greek 1" kappasymbol
Substitution2: "'smcp' lowercase to small caps in Greek-1" sc.k
Substitution2: "'cv01' char. var. in Greek-kappa-1" kappasymbol
Substitution2: "'locl' local. forms in Greek-1" kappasymbol
EndChar

StartChar: lambda
Encoding: 955 955 534
Width: 510
VWidth: 975
Flags: HMW
LayerCount: 2
Fore
SplineSet
499 152 m 1
 488 81 454 -13 377 -13 c 0
 340 -13 332 36 332 76 c 2
 332 286 l 1
 330 286 l 1
 147 0 l 1
 0 0 l 1
 332 496 l 1
 330 558 320 596 287 596 c 0
 242 596 220 561 208 528 c 1
 184 540 l 1
 194 588 230 698 308 698 c 0
 358 698 365.15 619.993 366 518 c 2
 369 158 l 2
 369 132 372 91 408 91 c 0
 443 91 470 131 475 166 c 1
 499 152 l 1
EndSplineSet
Validated: 1
Substitution2: "'smcp' lowercase to small caps in Greek-1" sc.lambda
EndChar

StartChar: mu
Encoding: 956 956 535
Width: 589
VWidth: 975
Flags: HMW
LayerCount: 2
Fore
SplineSet
560 133 m 1
 534 45 478 -13 394 -13 c 0
 338 -13 325 23 325 74 c 0
 325 90 327 105 330 121 c 1
 328 121 l 1
 294 53 228 -13 147 -13 c 0
 98 -13 71 15 64 62 c 1
 62 62 l 1
 58 44 54 24 54 5 c 0
 54 -65 96 -100 96 -144 c 0
 96 -185 77 -212 34 -212 c 0
 7 -212 -18 -193 -18 -134 c 0
 -18 -113 42 93 53 136 c 2
 144 449 l 1
 264 449 l 1
 177 144 l 2
 174 131 166 99 166 78 c 0
 166 53 187 43 208 43 c 0
 284 43 337 189 351 243 c 2
 411 449 l 1
 531 449 l 1
 520 406 447 156 447 156 c 2
 437 120 428 88 428 69 c 0
 428 48 443 44 453 44 c 0
 500 44 530 124 535 144 c 1
 560 133 l 1
EndSplineSet
Validated: 1
Substitution2: "'smcp' lowercase to small caps in Greek-1" sc.m
EndChar

StartChar: nu
Encoding: 957 957 536
Width: 522
VWidth: 975
Flags: HMW
LayerCount: 2
Fore
SplineSet
231 0 m 1
 196 0 l 1
 192 28 158 346 158 346 c 2
 155 372 146 394 130 394 c 0
 95 394 76 329 70 310 c 1
 45 321 l 1
 64 390 112 462 195 462 c 0
 250 462 268 422 274 374 c 2
 304 82 l 1
 338 106 429 180 429 244 c 0
 429 261 428 282 417 310 c 0
 409 330 396 355 396 384 c 0
 396 442 433 462 461 462 c 0
 513 462 530 421 530 386 c 0
 530 289 460 193 392 125 c 0
 374 107 258 14 231 0 c 1
EndSplineSet
Validated: 1
Substitution2: "'smcp' lowercase to small caps in Greek-1" sc.n
EndChar

StartChar: xi
Encoding: 958 958 537
Width: 494
VWidth: 975
Flags: HMW
LayerCount: 2
Fore
SplineSet
355 -53 m 0
 355 0 301 0 264 0 c 0
 218 0 184 -4 137 -4 c 0
 70 -4 15 29 15 102 c 0
 15 194 79 282 153 321 c 1
 130 331 104 350 104 388 c 0
 104 445 165 514 237 551 c 1
 187 559 111 592 111 648 c 0
 111 683 146.5 697.5 199 698 c 1
 215 674 l 1
 182 674 169 653.5 169 635 c 0
 169 586 245 567 264 566 c 1
 315 593 360 633 406 633 c 0
 446 633 464 620 464 594 c 0
 464 543 386 535 346 535 c 0
 305 535 292 537 258 543 c 1
 222 527 140 465 140 409 c 0
 140 357 170.5 349.5 194.5 349 c 1
 223 364 294.632 407 337.632 407 c 0
 373.132 407 398.896 391 398.896 360 c 0
 398.896 297 308 296 266 296 c 0
 232 296 205.5 301 185 306.5 c 1
 143 283.5 90 244 90 185 c 0
 90 140 135 115 166 115 c 0
 200 115 244 119 278 119 c 0
 360 119 404 64 404 0 c 0
 404 -110 324 -187 186 -187 c 0
 134 -187 81.6318 -162 81.6318 -121 c 0
 81.6318 -92 102 -79 124 -79 c 0
 156 -79 174.1 -103.462 193 -120 c 0
 217 -141 238.576 -146 257 -146 c 0
 307 -146 355 -102 355 -53 c 0
EndSplineSet
Validated: 1
Substitution2: "'smcp' lowercase to small caps in Greek-1" sc.xi
EndChar

StartChar: omicron
Encoding: 959 959 538
Width: 512
VWidth: 975
Flags: HMW
AnchorPoint: "below_gk" 257 0 basechar 0
AnchorPoint: "above_gk" 319 460 basechar 0
LayerCount: 2
Fore
SplineSet
201 -13 m 0
 95 -13 20 52 20 161 c 0
 20 319 161 462 319 462 c 0
 426 462 501 398 501 289 c 0
 501 130 360 -13 201 -13 c 0
375 338 m 0
 375 398 351 433 313 433 c 0
 205.469 433 146 232 146 108 c 0
 146 39 179 17 208 17 c 0
 317.711 17 375 238 375 338 c 0
EndSplineSet
Validated: 1
Substitution2: "'smcp' lowercase to small caps in Greek-1" sc.o
EndChar

StartChar: pi
Encoding: 960 960 539
Width: 612
VWidth: 975
Flags: HMW
LayerCount: 2
Fore
SplineSet
259 360 m 1
 208 360 l 2
 173 360 151 335 137 302 c 1
 109 302 l 1
 148 428 176 462 312 462 c 0
 405 462 498 452 591 452 c 0
 615 452 638 461 646 486 c 1
 673 486 l 1
 654 391 603 360 533 360 c 1
 524.852 326.666 464.866 123 464.866 123 c 2
 458.302 98.5596 453 85.5 453 73 c 0
 453 59 459 44 483.5 44 c 0
 529 44 551 111.5 562 143.5 c 1
 587.5 133 l 1
 558 40.5 504 -13 416 -13 c 0
 346.733 -13 331.999 10 331.999 56.5713 c 0
 331.999 75.7754 332.25 90.2139 341 124 c 2
 341 124 399.69 315.426 411 360 c 1
 293 360 l 1
 221 121 l 2
 204.905 66.6201 175 -10 74 -10 c 0
 33 -10 0 23 0 51 c 0
 0 88 23 104 47 104 c 0
 68.5 104 83 91.5 93 77.8457 c 0
 102.438 64.96 111 51 130.718 51 c 0
 167 51 182.798 109.418 193 144 c 2
 259 360 l 1
EndSplineSet
Validated: 1
Substitution2: "'smcp' lowercase to small caps in Greek-1" sc.pi
EndChar

StartChar: sigmafinal
Encoding: 962 962 540
Width: 468
VWidth: 975
Flags: HMW
LayerCount: 2
Fore
SplineSet
290 433 m 0
 197 433 83 361 83 221 c 0
 83 73 369 156 369 -18 c 0
 369 -124 305 -187 167 -187 c 0
 115 -187 62.6318 -162 62.6318 -121 c 0
 62.6318 -92 83 -79 105 -79 c 0
 137 -79 155.1 -103.462 174 -120 c 0
 198 -141 219.576 -146 238 -146 c 0
 288 -146 311 -115 311 -84 c 0
 311 42 22 -76 22 168 c 0
 22 340 141 462 325 462 c 0
 435 462 475 402 475 354 c 0
 475 308 446 284 410 284 c 0
 364 284 342 318 342 346 c 0
 342 367 349 379.669 349 394 c 0
 349 420 320.916 433 290 433 c 0
EndSplineSet
Validated: 1
Substitution2: "'smcp' lowercase to small caps in Greek-1" sc.sigma
Substitution2: "'cv06' char. var. in Greek-lunate final sigma-1" sigmalunate
Substitution2: "'cv05' char. var. in Greek lunate sigma-1" sigmalunate
EndChar

StartChar: sigma
Encoding: 963 963 541
Width: 525
VWidth: 975
Flags: HMW
LayerCount: 2
Fore
SplineSet
472 263 m 0
 472 159 375 -13 197 -13 c 0
 93 -13 20 56 20 162 c 0
 20 310 151 462 323 462 c 0
 372 462 413 453 462 453 c 0
 473.043 453 484.318 452.282 495.132 452.282 c 0
 521.53 452.282 545.182 456.56 556 486 c 1
 583 486 l 1
 571 446 552.5 379 481 379 c 0
 412 379 372.05 433 311 433 c 0
 203 433 146 222 146 105 c 0
 146 52 170 17 207 17 c 0
 295 17 353 176 353 283 c 0
 353 322 338 354 305 354 c 0
 282 354 264 338 250 317 c 9
 228 344 l 17
 257 382 291 398 338 398 c 0
 405 398 472 341 472 263 c 0
EndSplineSet
Validated: 1
AlternateSubs2: "'aalt' access-all-altern. in Greek 1" sigmafinal sigmalunate
Substitution2: "'smcp' lowercase to small caps in Greek-1" sc.sigma
Substitution2: "'cv05' char. var. in Greek lunate sigma-1" sigmalunate
EndChar

StartChar: tau
Encoding: 964 964 542
Width: 444
VWidth: 975
Flags: HMW
LayerCount: 2
Fore
SplineSet
497 486 m 1
 476 363 400 354 309 354 c 1
 299 316 247 134 247 134 c 2
 240 106 232 84 232 72 c 0
 232 57 236 44 254 44 c 0
 307 44 331 115 340 144 c 1
 366 133 l 1
 344 52 300 -13 207 -13 c 0
 153 -13 111 8 111 68 c 0
 111 86 118 114 126 146 c 2
 126 146 178 316 188 360 c 1
 152 360 l 2
 110 360 93 348 70 302 c 1
 42 302 l 1
 66 411 116 461 211 461 c 0
 249 461 306 452 412 452 c 0
 454 452 465 467 469 486 c 1
 497 486 l 1
EndSplineSet
Validated: 1
Substitution2: "'smcp' lowercase to small caps in Greek-1" sc.t
EndChar

StartChar: upsilon
Encoding: 965 965 543
Width: 536
VWidth: 975
Flags: HMW
AnchorPoint: "above_gk" 354 460 basechar 0
LayerCount: 2
Fore
SplineSet
262 -13 m 0
 189 -13 112 29 112 120 c 0
 112 217 181 298 181 384 c 0
 181 404 160 407 149 407 c 0
 112 407 83 353 75 328 c 1
 53 341 l 1
 80 424 150 462 207 462 c 0
 264 462 290 432 290 376 c 0
 290 299 218 182 218 100 c 0
 218 40 240 16 280 16 c 0
 383 16 456 129 456 226 c 0
 456 257.481 449.761 282.442 439 308 c 0
 431 327 416 355.281 416 383 c 0
 416 430 440 462 477 462 c 0
 526 462 551 426 551 386 c 0
 551 292 477 -13 262 -13 c 0
EndSplineSet
Validated: 1
Substitution2: "'smcp' lowercase to small caps in Greek-1" sc.upsilon
EndChar

StartChar: phi
Encoding: 966 966 544
Width: 615
VWidth: 975
Flags: HMW
LayerCount: 2
Fore
SplineSet
338 -8 m 1
 281 -206 l 1
 161 -206 l 1
 216 -13 l 1
 102 -13 28 75 28 190 c 0
 28 314 126 462 251 462 c 0
 292 462 331 452 342 412 c 1
 314 386 l 1
 310 398 295 418 273 418 c 0
 197 418 147 244 147 135 c 0
 147 52 178 22 227 22 c 1
 291 243 l 2
 323.07 352.038 392 462 516 462 c 0
 590 462 618 407 618 340 c 0
 618 186 512 23 338 -8 c 1
581 329 m 0
 581 367 572 424 522 424 c 0
 470 424 443 361 433 320 c 2
 348 26 l 1
 478 54 581 203 581 329 c 0
EndSplineSet
Validated: 1
AlternateSubs2: "'aalt' access-all-altern. in Greek 1" phisymbol
Substitution2: "'smcp' lowercase to small caps in Greek-1" sc.phi
Substitution2: "'subs' subscript-phonetic" phisub
Substitution2: "'sups' superscript-phonetic" phisup
EndChar

StartChar: chi
Encoding: 967 967 545
Width: 495
VWidth: 975
Flags: HMW
LayerCount: 2
Fore
SplineSet
527 449 m 1
 256 74 l 1
 256 37 262 -102 318 -102 c 0
 364 -102 382 -58 389 -27 c 1
 413 -41 l 1
 404 -96 372 -206 294 -206 c 0
 248 -206 222 -156 222 -58 c 0
 222 -27 223 -1 226 30 c 1
 224 30 l 1
 65 -191 l 1
 -75 -191 l 1
 210 205 l 1
 211 212 211 219 211 227 c 0
 211 282 191 359 136 359 c 0
 95 359 73 327 63 291 c 1
 39 304 l 1
 51 350 87 462 163 462 c 0
 233 462 242 370 242 298 c 0
 242 276 240 256 239 242 c 1
 387 449 l 1
 527 449 l 1
EndSplineSet
Validated: 1
Substitution2: "'smcp' lowercase to small caps in Greek-1" sc.x
Substitution2: "'subs' subscript-phonetic" chisub
Substitution2: "'sups' superscript-phonetic" chisup
EndChar

StartChar: psi
Encoding: 968 968 546
Width: 693
Flags: HMW
LayerCount: 2
Fore
SplineSet
389 -13 m 1
 347 -211 l 1
 246 -211 l 1
 305 -13 l 1
 207 -11 92 28 92 145 c 0
 92 224 143 313 143 385 c 0
 143 397 140 411 126 411 c 0
 95 411 82 365 76 341 c 1
 47 341 l 1
 66 416 114 474 196 474 c 0
 255 474 293 453 293 390 c 0
 293 295 237 206 237 110 c 0
 237 57 262 25 315 16 c 1
 481 571 l 1
 509 571 l 1
 393 16 l 1
 497 37 590 156 590 261 c 0
 590 297 583 331 583 367 c 0
 583 409 599 474 652 474 c 0
 694 474 706 443 706 406 c 0
 706 386 703 366 698 346 c 0
 660 192 555 21 389 -13 c 1
EndSplineSet
Validated: 1
Substitution2: "'smcp' lowercase to small caps in Greek-1" sc.psi
EndChar

StartChar: omega
Encoding: 969 969 547
Width: 697
Flags: HMW
AnchorPoint: "below_gk" 349 0 basechar 0
AnchorPoint: "above_gk" 408 460 basechar 0
LayerCount: 2
Fore
SplineSet
438 -13 m 0
 360 -13 327 21 327 94 c 2
 327 104 l 1
 325 104 l 1
 289 29 243 -13 157 -13 c 0
 61 -13 25 55 25 143 c 0
 25 321 135 474 324 474 c 1
 316 440 l 1
 251.001 439.999 224 371 211 318 c 0
 193 245 159 155 159 77 c 0
 159 53 165 22 196 22 c 0
 257 22 284 79 296 130 c 0
 315 209 273 392 398 392 c 0
 428 392 453 382 453 348 c 0
 453 273 362 178 362 79 c 0
 362 44 378 22 415 22 c 0
 471 22 498 117 509 160 c 0
 525 227 558 312 558 382 c 0
 558 417 543 440 506 440 c 2
 504 440 l 1
 512 474 l 1
 614 474 694 428 694 317 c 0
 694 182 591 -13 438 -13 c 0
EndSplineSet
Validated: 1
Substitution2: "'smcp' lowercase to small caps in Greek-1" sc.omega
EndChar

StartChar: betasymbol
Encoding: 976 976 553
Width: 489
VWidth: 975
Flags: HMW
LayerCount: 2
Fore
SplineSet
145 481 m 1
 129 448 94 409 70 254 c 1
 122 380.5 242 424 311 424 c 0
 402 424 475 370 475 277 c 0
 475 117 350 -13 194 -13 c 0
 73 -13 29 90 29 197 c 0
 29 433 181 698 418 698 c 0
 457 698 520 683 520 634 c 0
 520 508 239 482 145 481 c 1
414 621 m 0
 414 646 402 655 384 655 c 0
 301 655 203 573 161 507 c 1
 227 508 414 528 414 621 c 0
356 274 m 0
 356 380 326 395 296 395 c 0
 205 395 143 268 143 108 c 0
 143 75 151 16 205 16 c 0
 302.537 16 356 188.2 356 274 c 0
EndSplineSet
Validated: 1
Substitution2: "'smcp' lowercase to small caps in Greek-1" sc.b
EndChar

StartChar: thetasymbol
Encoding: 977 977 554
Width: 613
VWidth: 975
Flags: HMW
LayerCount: 2
Fore
SplineSet
605 301 m 1
 581 310 l 1
 587 320 591 333 591 349 c 0
 591 373 575 388 548 388 c 1
 512 222 461 -13 249 -13 c 0
 166 -13 110 22 110 115 c 0
 110 190 151 252 151 309 c 0
 151 319 141 333 125 333 c 0
 88 333 61 289 55 268 c 1
 30 280 l 1
 65 348 106 389 173 389 c 0
 235 389 258 357 258 299 c 0
 258 250 214 145 214 71 c 0
 214 46 222 16 261 16 c 0
 327 16 363.433 98.9639 378 168 c 2
 424 386 l 1
 287 386 216 428 216 516 c 0
 216 616 293 698 390 698 c 0
 499 698 567 623 567 510 c 0
 567 480 560 441 554 415 c 1
 598 415 620 393 620 355 c 0
 620 337 615 317 605 301 c 1
384 669 m 0
 322 669 313 564 313 515 c 0
 313 461 339 415 430 415 c 1
 436 439 447 481 447 544 c 0
 447 635 424 669 384 669 c 0
EndSplineSet
Validated: 1
Substitution2: "'smcp' lowercase to small caps in Greek-1" sc.theta
EndChar

StartChar: Upsilonhook
Encoding: 978 978 555
Width: 722
Flags: HMW
AnchorPoint: "below_gk" 334 0 basechar 0
AnchorPoint: "above_gk" 448 670 basechar 0
LayerCount: 2
Fore
SplineSet
721 519 m 0
 693 519 672 539 672 567 c 0
 672 608 704.057 638.515 743.172 638.515 c 0
 746.079 638.515 749 638 752 638 c 1
 745 643 736 644 728 644 c 0
 519 644 451 293 412 152 c 0
 405 127 394 94 394 68 c 0
 394 26 434 26 466 25 c 1
 466 0 l 1
 170 0 l 1
 170 25 l 1
 220 32 236 48 250 97 c 2
 321 352 l 2
 330 384 336 418 336 452 c 0
 336 527 303 587 231 615 c 0
 213 622 128 634 128 653 c 0
 128 669 168 670 178 670 c 0
 322 670 438 575 448 427 c 1
 489 543 598 676 732 676 c 0
 772 676 807 661 807 616 c 0
 807 569 772 519 721 519 c 0
EndSplineSet
Validated: 1
AlternateSubs2: "'aalt' access-all-altern. in Greek 1" Upsilon
Substitution2: "'c2sc' caps to small caps in Greek-1" sc.upsilon
EndChar

StartChar: phisymbol
Encoding: 981 981 558
Width: 623
Flags: HMW
LayerCount: 2
Fore
SplineSet
295 -13 m 1
 252 -211 l 1
 160 -211 l 1
 217 -13 l 1
 113 -7 21 53 21 166 c 0
 21 338 196 468 357 474 c 1
 405 630 l 1
 434 630 l 1
 397 474 l 1
 508 470 610 403 610 283 c 0
 610 116 451 -4 295 -13 c 1
467 347 m 0
 467 398 449 442 392 446 c 1
 300 16 l 1
 412 28 467 253 467 347 c 0
348 446 m 1
 220 436 166 213 166 109 c 0
 166 67 177 21 226 16 c 1
 348 446 l 1
EndSplineSet
Validated: 1
Substitution2: "'smcp' lowercase to small caps in Greek-1" sc.phi
EndChar

StartChar: Ljecyr
Encoding: 1033 1033 561
Width: 1053
Flags: HMW
AnchorPoint: "cyr-above" 567 695 basechar 0
LayerCount: 2
Fore
SplineSet
524 637 m 2
 477 637 463 626 448 569 c 0
 400.791 395.394 358 244 307.465 144 c 0
 258.657 47.418 208 -12 108 -12 c 0
 39 -12 0 32 0 75 c 0
 0 111 26 149 67 149 c 0
 110 149 128 116 134 93 c 0
 138 77 143 52 172 52 c 0
 273.074 52 359.614 406.599 405 573 c 0
 407.855 583.196 409.338 591.938 409.338 599.443 c 0
 409.338 628.744 386.745 639.224 335 644 c 1
 334 669 l 1
 858 669 l 1
 858 644 l 1
 807 638 792 625 776 572 c 2
 720 373 l 1
 890.336 371.729 1012 356 1012 218 c 0
 1012 74 864 0 694 0 c 2
 419 0 l 1
 419 25 l 1
 468 31 484.656 44.5195 499 97 c 2
 628 569 l 2
 632.402 585.107 634.975 598.064 634.975 608.17 c 0
 634.975 628.163 624.905 637 599 637 c 2
 524 637 l 2
641 78 m 2
 640 74 637 63 637 59 c 0
 637 43 652 35 679 35 c 0
 786 35 849 152 849 259 c 0
 849 329 795 338 712 338 c 1
 641 78 l 2
EndSplineSet
Validated: 1
Substitution2: "'c2sc' caps to small caps in Cyrillic-1" sc.cyr_lje
Substitution2: "'ss01' style set 1 in Cyrillic for Bulgarian-1" cyr_bulg_alt_Lje
EndChar

StartChar: Njecyr
Encoding: 1034 1034 562
Width: 1019
Flags: HMW
AnchorPoint: "cyr-above" 493 695 basechar 0
LayerCount: 2
Fore
SplineSet
598 607 m 0
 598 635.213 577.505 636.499 525 644 c 1
 525 669 l 1
 823 669 l 1
 823 644 l 1
 772 637 755.827 625.648 741 572 c 2
 686 373 l 1
 856.336 371.729 978 356 978 218 c 0
 978 74 830 0 660 0 c 2
 364 0 l 1
 364 25 l 1
 431 29 451 43 465 97 c 2
 529 329 l 1
 290 329 l 1
 240 148 l 2
 235.589 125.947 223 94 223 68 c 0
 223 36 233 30 296 25 c 1
 296 0 l 1
 0 0 l 1
 0 25 l 1
 50 32 65.7344 44.498 80 97 c 2
 202 546 l 2
 209 572 213 593 213 604 c 0
 213 634.5 192.07 636.562 140 644 c 1
 140 669 l 1
 457 669 l 1
 457 644 l 1
 392 642 372 627 356 572 c 2
 302 373 l 1
 541 373 l 1
 588 546 l 2
 593 564 598 595 598 607 c 0
607 78 m 2
 606 74 603 63 603 59 c 0
 603 43 618 35 645 35 c 0
 752 35 815 152 815 259 c 0
 815 329 761 338 678 338 c 1
 607 78 l 2
EndSplineSet
Validated: 1
Substitution2: "'c2sc' caps to small caps in Cyrillic-1" sc.cyr_nje
EndChar

StartChar: Tshecyr
Encoding: 1035 1035 563
Width: 831
Flags: HMW
AnchorPoint: "cyr-above" 417 695 basechar 0
LayerCount: 2
Fore
SplineSet
686 61 m 0
 686 32.7871 706.495 31.501 759 24 c 1
 759 -1 l 1
 461 -1 l 1
 461 24 l 1
 512 30 528 43 543 96 c 2
 591 279 l 2
 592.886 285.601 593.756 291.912 593.756 297.892 c 0
 593.756 336.293 557.881 361 525 361 c 0
 470 361 417 332 393 319 c 1
 301 0 l 1
 105 0 l 1
 105 25 l 1
 154 31 170.544 44.5498 185 97 c 2
 333 634 l 1
 231 632 168 591 116 491 c 1
 91 498 l 1
 129 669 l 1
 680 669 l 1
 644 477 l 1
 617 479 l 1
 612 590 573 633 479 634 c 1
 408 375 l 1
 440 392 497 414 590 414 c 0
 653.584 414 739.783 369.547 739.783 290.972 c 0
 739.783 280.571 738.273 269.573 735 258 c 2
 696 122 l 2
 691 104 686 73 686 61 c 0
EndSplineSet
Validated: 1
Substitution2: "'c2sc' caps to small caps in Cyrillic-1" sc.cyr_tshe
EndChar

StartChar: Dzhecyr
Encoding: 1039 1039 567
Width: 753
Flags: HMW
AnchorPoint: "cyr-above" 481 695 basechar 0
LayerCount: 2
Fore
SplineSet
588 546 m 2
 592.885 564.031 598 595 598 607 c 0
 598 635.213 577.505 636.499 525 644 c 1
 525 669 l 1
 823 669 l 1
 823 644 l 1
 772 638 755.502 625.43 741 572 c 2
 627 152 l 2
 614 103 609 80 609 65 c 0
 609 37 624 28 681 25 c 1
 681 0 l 1
 420 0 l 1
 342 -36 313 -112 291 -180 c 1
 262 -180 l 1
 268.226 -143.774 280.861 -105.625 280.861 -70.9951 c 0
 280.861 -44.4443 273.434 -19.9629 250 0 c 1
 0 0 l 1
 0 25 l 1
 49 31 65.626 44.5273 80 97 c 2
 203 546 l 2
 208 564 213 595 213 607 c 0
 213 635.213 192.505 636.499 140 644 c 1
 140 669 l 1
 438 669 l 1
 438 644 l 1
 387 638 370.309 625.481 356 572 c 2
 223 79 l 2
 221.066 71.8027 220.176 65.7793 220.176 60.7402 c 0
 220.176 36.375 240.97 35 265 35 c 2
 404 35 l 2
 440 35 452.803 45.0527 462 79 c 2
 588 546 l 2
EndSplineSet
Validated: 1
Substitution2: "'c2sc' caps to small caps in Cyrillic-1" sc.cyr_dzhe
EndChar

StartChar: Becyr
Encoding: 1041 1041 569
Width: 648
Flags: HMW
AnchorPoint: "cyr-above" 434 695 basechar 0
LayerCount: 2
Fore
SplineSet
213 607 m 0
 213 635.213 192.505 636.499 140 644 c 1
 140 669 l 1
 687 669 l 1
 644 479 l 1
 617 479 l 1
 617 610 562 637 436 637 c 0
 400 637 371 625 361 588 c 2
 312 404 l 1
 546.825 404 615 364.5 615 246 c 0
 615 78 443 0 274 0 c 2
 0 0 l 1
 0 25 l 1
 49 31 65.626 44.5273 80 97 c 2
 203 546 l 2
 208 564 213 595 213 607 c 0
304 374 m 1
 226 93 l 2
 222.825 82.252 221.2 73.1162 221.2 65.4443 c 0
 221.2 41.709 236.748 32 270 32 c 0
 377.663 32 444 138.163 444 260 c 0
 444 293 437 374 334 374 c 2
 304 374 l 1
EndSplineSet
Validated: 1
Substitution2: "'c2sc' caps to small caps in Cyrillic-1" sc.cyr_be
EndChar

StartChar: Decyr
Encoding: 1044 1044 572
Width: 760
Flags: HMW
AnchorPoint: "cyr-above" 542 695 basechar 0
LayerCount: 2
Fore
SplineSet
600 569 m 2
 604.352 585.121 606.909 598.083 606.909 608.19 c 0
 606.909 628.181 596.904 637 571 637 c 2
 482 637 l 2
 435 637 422.299 631.82 406 569 c 0
 355.319 373.665 291.071 220.35 190 93 c 0
 177.726 77.5352 173.095 66 173.095 54 c 0
 173.095 39 181 35 197 35 c 2
 365 35 l 2
 366.448 34.9785 367.878 34.9688 369.289 34.9688 c 0
 435.157 34.9688 461.996 57.833 475 106 c 2
 600 569 l 2
478 0 m 2
 174 0 l 2
 42 0 15 -75 -24 -180 c 1
 -48 -180 l 1
 11 34 l 1
 18.0078 34 28.1631 32.2031 40.29 32.2031 c 0
 61.0459 32.2031 87.5791 37.4658 114 66 c 0
 247.38 210.05 304.472 344.693 365 573 c 0
 367.996 584.3 369.643 593.807 369.643 601.824 c 0
 369.643 629.412 350.14 639.351 299 644 c 1
 299 669 l 1
 830 669 l 1
 830 644 l 1
 779 638 763.817 626.343 749 573 c 2
 622 105 l 2
 618.685 93.0645 616.781 82.7832 616.781 74.0459 c 0
 616.781 46.1592 636.177 34 691 34 c 1
 633 -180 l 1
 609 -180 l 1
 611.135 -159.145 612.354 -140.286 612.354 -123.329 c 0
 612.354 -37.0225 580.802 0 478 0 c 2
EndSplineSet
Validated: 1
Substitution2: "'c2sc' caps to small caps in Cyrillic-1" sc.cyr_de
EndChar

StartChar: Zhecyr
Encoding: 1046 1046 574
Width: 1052
Flags: HMW
AnchorPoint: "cyr-above" 669 695 basechar 0
LayerCount: 2
Fore
SplineSet
409.7 575.663 m 0
 409.7 557.609 407.809 553.096 407.809 530.528 c 0
 407.809 416.49 468.354 371 498 371 c 2
 521 371 l 1
 569 546 l 2
 574 564 579 595 579 607 c 0
 579 635 559 636 506 644 c 1
 506 669 l 1
 804 669 l 1
 804 644 l 1
 753 638 738 625 722 572 c 2
 668 371 l 1
 694 371 l 2
 782 371 825 472 878 577 c 0
 912 642 958 680 1020 680 c 0
 1072 680 1110 653 1110 603 c 0
 1110 559 1076 541 1048 541 c 0
 1018 541 998 557 985 576 c 0
 979 585 974 600 954 600 c 0
 901.255 600 888.188 431.979 770 362 c 1
 768 356 l 1
 818 344 869 323 898 224 c 2
 942 76 l 2
 958 35 991 26 1016 25 c 1
 1016 0 l 1
 823 0 l 1
 768 240 l 2
 758 296 735 331 682 331 c 2
 657 331 l 1
 608 152 l 2
 595 103 590 80 590 65 c 0
 590 37 605 28 662 25 c 1
 662 0 l 1
 366 0 l 1
 366 25 l 1
 415 31 430 45 446 97 c 2
 510 331 l 1
 482 331 l 2
 454 331 407 315 368 246 c 2
 210 0 l 1
 0 0 l 1
 1 25 l 1
 48 27 67 48 84 63 c 1
 228 256 l 2
 286 344 398 360 442 360 c 1
 445 366 l 1
 398.064 384.955 373.125 455.237 373.125 529.782 c 0
 373.125 549.617 374.336 552.923 374.336 562.841 c 0
 374.336 593.456 360.847 600 348 600 c 0
 322.125 600 306.375 549 258 549 c 0
 230 549 208 570 208 602 c 0
 208 637 234 680 305 680 c 0
 379.423 680 409.7 636.966 409.7 575.663 c 0
EndSplineSet
Validated: 1
Substitution2: "'c2sc' caps to small caps in Cyrillic-1" sc.cyr_zhe
EndChar

StartChar: Zecyr
Encoding: 1047 1047 575
Width: 651
Flags: HMW
AnchorPoint: "cyr-below" 292 0 basechar 0
AnchorPoint: "cyr-above" 423 695 basechar 0
LayerCount: 2
Fore
SplineSet
395 685 m 0
 606 685 658 603 658 530 c 0
 658 418 523 364 480 357 c 1
 477 351 l 1
 545 338 605 272 605 198 c 0
 605 87 501 -19 287 -19 c 0
 111 -19 26 92 0 136 c 1
 20 152 l 1
 62 96 160 32 256 32 c 0
 405 32 451 139 451 214 c 0
 451 276 399 329 283 329 c 1
 299 374 l 1
 379 374 511 385 511 538 c 0
 511 616 457 650 389 650 c 0
 303 650 195 598 139 469 c 1
 111 469 l 1
 170 685 l 1
 200 685 l 1
 200 659 206 649 223 649 c 0
 233 649 269 661 298 669 c 0
 329 678 369 685 395 685 c 0
EndSplineSet
Validated: 1
Substitution2: "'c2sc' caps to small caps in Cyrillic-1" zecyr
EndChar

StartChar: Iicyr
Encoding: 1048 1048 576
Width: 753
Flags: HMW
AnchorPoint: "cyr-above" 474 695 basechar 0
LayerCount: 2
Fore
SplineSet
598 607 m 0
 598 635.213 577.505 636.499 525 644 c 1
 525 669 l 1
 823 669 l 1
 823 644 l 1
 772 638 757 625 741 572 c 2
 627 152 l 2
 614 103 609 80 609 65 c 0
 609 37 624 28 681 25 c 1
 681 0 l 1
 385 0 l 1
 385 25 l 1
 434 31 449 45 465 97 c 2
 571 483 l 1
 227 96 l 1
 224 82 224 73 224 65 c 0
 224 37 239 28 296 25 c 1
 296 0 l 1
 0 0 l 1
 0 25 l 1
 49 31 64 45 80 97 c 2
 203 546 l 2
 208 564 213 595 213 607 c 0
 213 635.213 192.505 636.499 140 644 c 1
 140 669 l 1
 438 669 l 1
 438 644 l 1
 387 638 372 625 356 572 c 2
 251 186 l 1
 594 573 l 1
 596 587 598 600 598 607 c 0
EndSplineSet
Validated: 1
Substitution2: "'c2sc' caps to small caps in Cyrillic-1" sc.cyr_ii
EndChar

StartChar: Kacyr
Encoding: 1050 1050 578
Width: 710
Flags: HMW
AnchorPoint: "cyr-above" 457 695 basechar 0
LayerCount: 2
Fore
SplineSet
213 607 m 0
 213 635 193 636 140 644 c 1
 140 669 l 1
 438 669 l 1
 438 644 l 1
 387 638 372 625 356 572 c 2
 302 371 l 1
 328 371 l 2
 421 371 486 472 539 577 c 0
 572 642 624 680 688 680 c 0
 740 680 770 646 770 603 c 0
 770 562 736 541 708 541 c 0
 679 541 659 557 646 576 c 0
 640 585 634 600 614 600 c 0
 594 600 582 575 565 548 c 0
 534 499 505 419 417 366 c 1
 415 360 l 1
 486 344 519 300 540 240 c 2
 606 76 l 2
 622 35 655 26 680 25 c 1
 680 0 l 1
 487 0 l 1
 403 254 l 2
 392 296 370 331 333 331 c 2
 291 331 l 1
 242 152 l 2
 229 103 224 80 224 65 c 0
 224 37 239 28 296 25 c 1
 296 0 l 1
 0 0 l 1
 0 25 l 1
 49 31 64 45 80 97 c 2
 203 546 l 2
 208 564 213 595 213 607 c 0
EndSplineSet
Validated: 1
Substitution2: "'c2sc' caps to small caps in Cyrillic-1" sc.cyr_ka
Substitution2: "'ss01' style set 1 in Cyrillic for Bulgarian-1" K
EndChar

StartChar: Elcyr
Encoding: 1051 1051 579
Width: 786
Flags: HMW
AnchorPoint: "cyr-above" 597 695 basechar 0
LayerCount: 2
Fore
SplineSet
108 -12 m 0
 39 -12 0 32 0 75 c 0
 0 111 26 149 67 149 c 0
 110 149 128 116 134 93 c 0
 138 77 143 52 172 52 c 0
 273.074 52 359.614 406.599 405 573 c 0
 407.855 583.196 409.338 591.938 409.338 599.443 c 0
 409.338 628.744 386.745 639.224 335 644 c 1
 334 669 l 1
 856 669 l 1
 856 644 l 1
 805 638 789 625 774 572 c 2
 660 152 l 2
 647 103 642 80 642 65 c 0
 642 37 657 28 714 25 c 1
 714 0 l 1
 418 0 l 1
 418 25 l 1
 467 31 483 45 498 97 c 2
 628 569 l 2
 632.365 585.117 634.926 598.078 634.926 608.185 c 0
 634.926 628.176 624.905 637 599 637 c 2
 524 637 l 2
 477 637 463 626 448 569 c 0
 400.791 395.394 358 244 307.465 144 c 0
 258.657 47.418 208 -12 108 -12 c 0
EndSplineSet
Validated: 1
Substitution2: "'c2sc' caps to small caps in Cyrillic-1" sc.cyr_el
Substitution2: "'ss01' style set 1 in Cyrillic for Bulgarian-1" Lambda
EndChar

StartChar: Ucyr
Encoding: 1059 1059 587
Width: 739
Flags: HMW
AnchorPoint: "cyr-above" 472 695 basechar 0
LayerCount: 2
Fore
SplineSet
636 613 m 0
 636 646 588 641 561 644 c 1
 561 669 l 1
 814 669 l 1
 814 644 l 1
 751 643 719 609 644 492 c 2
 389 92 l 2
 344 21 292 -12 221 -12 c 0
 152 -12 113 32 113 75 c 0
 113 111 139 149 180 149 c 0
 222 149 241 116 247 93 c 0
 251 77 247 37 277 37 c 0
 297 37 317 46 345 84 c 1
 204 586 l 2
 190 636 163 641 128 644 c 1
 128 669 l 1
 406 669 l 1
 406 644 l 1
 379 644 l 2
 356 644 345 624 345 605 c 0
 345 601 346 596 347 592 c 2
 446 244 l 1
 590 478 l 2
 612 513 636 559 636 613 c 0
EndSplineSet
Validated: 1
Substitution2: "'c2sc' caps to small caps in Cyrillic-1" sc.cyr_u
EndChar

StartChar: Tsecyr
Encoding: 1062 1062 590
Width: 754
Flags: HMW
AnchorPoint: "cyr-above" 477 695 basechar 0
LayerCount: 2
Fore
SplineSet
589 546 m 2
 593.938 564.017 599 595 599 607 c 0
 599 635.213 578.505 636.499 526 644 c 1
 526 669 l 1
 824 669 l 1
 824 644 l 1
 773 638 758 625 742 572 c 2
 613 105 l 2
 609.655 93.0547 607.738 82.7646 607.738 74.0205 c 0
 607.738 46.165 627.201 34 682 34 c 1
 624 -180 l 1
 600 -180 l 1
 602.135 -159.145 603.354 -140.286 603.354 -123.329 c 0
 603.354 -37.0225 571.802 0 469 0 c 2
 0 0 l 1
 0 25 l 1
 49 31 65.626 44.5273 80 97 c 2
 203 546 l 2
 208 564 213 595 213 607 c 0
 213 635.213 192.505 636.499 140 644 c 1
 140 669 l 1
 438 669 l 1
 438 644 l 1
 387 638 370.622 625.396 356 572 c 2
 221 79 l 2
 219.017 71.7568 218.106 65.7031 218.106 60.6445 c 0
 218.106 36.4072 239.008 35 263 35 c 2
 403 35 l 2
 439 35 451.703 45.0801 461 79 c 2
 589 546 l 2
EndSplineSet
Validated: 1
Substitution2: "'c2sc' caps to small caps in Cyrillic-1" sc.cyr_tse
EndChar

StartChar: Checyr
Encoding: 1063 1063 591
Width: 693
Flags: HMW
AnchorPoint: "cyr-above" 438 695 basechar 0
LayerCount: 2
Fore
SplineSet
181 607 m 0
 181 635.213 160.505 636.499 108 644 c 1
 108 669 l 1
 406 669 l 1
 406 644 l 1
 355 638 339 625 324 572 c 2
 278 393 l 2
 276.114 386.399 275.244 380.088 275.244 374.108 c 0
 275.244 335.707 311.12 311 344 311 c 0
 399 311 452 340 476 353 c 1
 528 546 l 2
 533 564 538 595 538 607 c 0
 538 635.213 517.505 636.499 465 644 c 1
 465 669 l 1
 763 669 l 1
 763 644 l 1
 712 638 697 625 681 572 c 2
 567 152 l 2
 554 103 549 80 549 65 c 0
 549 37 564 28 621 25 c 1
 621 0 l 1
 325 0 l 1
 325 25 l 1
 374 31 389 45 405 97 c 2
 461 297 l 1
 429 280 372 258 279 258 c 0
 215.416 258 129.217 302.453 129.217 381.028 c 0
 129.217 391.429 130.727 402.427 134 414 c 2
 171 546 l 2
 176 564 181 595 181 607 c 0
EndSplineSet
Validated: 1
Substitution2: "'c2sc' caps to small caps in Cyrillic-1" sc.cyr_che
EndChar

StartChar: Shacyr
Encoding: 1064 1064 592
Width: 1111
Flags: HMW
AnchorPoint: "cyr-above" 670 695 basechar 0
LayerCount: 2
Fore
SplineSet
946 546 m 2
 950.938 564.017 956 595 956 607 c 0
 956 635.213 935.505 636.499 883 644 c 1
 883 669 l 1
 1181 669 l 1
 1181 644 l 1
 1130 638 1115 625 1099 572 c 2
 983 152 l 2
 970 103 965 80 965 65 c 0
 965 37 980 28 1037 25 c 1
 1037 0 l 1
 0 0 l 1
 0 25 l 1
 49 31 65.626 44.5273 80 97 c 2
 203 546 l 2
 208 564 213 595 213 607 c 0
 213 635.213 192.505 636.499 140 644 c 1
 140 669 l 1
 438 669 l 1
 438 644 l 1
 387 638 370.733 625.805 356 572 c 2
 222 79 l 2
 220.017 71.7568 219.106 65.7031 219.106 60.6445 c 0
 219.106 36.4072 240.008 35 264 35 c 2
 389 35 l 2
 425 35 437.838 45.043 447 79 c 2
 574 546 l 2
 578.866 564.036 584 595 584 607 c 0
 584 635.213 563.505 636.499 511 644 c 1
 511 669 l 1
 809 669 l 1
 809 644 l 1
 758 638 741.723 625.369 727 572 c 2
 592 79 l 2
 589.997 71.7393 589.078 65.6729 589.078 60.6064 c 0
 589.078 36.4199 610.023 35 634 35 c 2
 759 35 l 2
 795 35 807.703 45.0801 817 79 c 2
 946 546 l 2
EndSplineSet
Validated: 1
Substitution2: "'c2sc' caps to small caps in Cyrillic-1" sc.cyr_sha
EndChar

StartChar: Shchacyr
Encoding: 1065 1065 593
Width: 1111
Flags: HMW
AnchorPoint: "cyr-above" 682 695 basechar 0
LayerCount: 2
Fore
SplineSet
817 79 m 2
 946 546 l 2
 950.975 564.007 956 595 956 607 c 0
 956 635.213 935.505 636.499 883 644 c 1
 883 669 l 1
 1181 669 l 1
 1181 644 l 1
 1130 638 1112.97 625.607 1098 572 c 2
 970 105 l 2
 966.664 93.0576 964.75 82.7695 964.75 74.0283 c 0
 964.75 46.1631 984.194 34 1039 34 c 1
 979 -180 l 1
 955 -180 l 1
 957.216 -158.354 958.502 -138.857 958.502 -121.407 c 0
 958.502 -36.4727 928.036 0 826 0 c 2
 0 0 l 1
 0 25 l 1
 49 31 65.626 44.5273 80 97 c 2
 203 546 l 2
 208 564 213 595 213 607 c 0
 213 635.213 192.505 636.499 140 644 c 1
 140 669 l 1
 438 669 l 1
 438 644 l 1
 387 638 370.632 625.832 356 572 c 2
 222 79 l 2
 220.036 71.7744 219.134 65.7334 219.134 60.6816 c 0
 219.134 36.3945 239.993 35 264 35 c 2
 389 35 l 2
 425 35 437.771 45.0615 447 79 c 2
 574 546 l 2
 578.902 564.027 584 595 584 607 c 0
 584 635.213 563.505 636.499 511 644 c 1
 511 669 l 1
 809 669 l 1
 809 644 l 1
 758 638 741.622 625.396 727 572 c 2
 592 79 l 2
 590.017 71.7568 589.106 65.7031 589.106 60.6445 c 0
 589.106 36.4072 610.008 35 634 35 c 2
 759 35 l 2
 795 35 807.636 45.0986 817 79 c 2
EndSplineSet
Validated: 1
Substitution2: "'c2sc' caps to small caps in Cyrillic-1" sc.cyr_shcha
EndChar

StartChar: Hardsigncyr
Encoding: 1066 1066 594
Width: 756
Flags: HMW
AnchorPoint: "cyr-above" 561 695 basechar 0
LayerCount: 2
Fore
SplineSet
329 569 m 2
 333.366 585.227 335.932 598.229 335.932 608.339 c 0
 335.932 628.306 325.923 637 300 637 c 0
 235 637 158 587 109 468 c 1
 80 468 l 1
 138 669 l 1
 585 669 l 1
 585 644 l 1
 503 634 492 625 472 552 c 2
 423 373 l 1
 593.336 371.729 715 356 715 218 c 0
 715 74 566 0 397 0 c 2
 122 0 l 1
 122 25 l 1
 171 31 187.864 44.4619 202 97 c 2
 329 569 l 2
344 78 m 2
 343 74 340 63 340 59 c 0
 340 43 355 35 382 35 c 0
 489 35 552 152 552 259 c 0
 552 329 498 338 415 338 c 1
 344 78 l 2
EndSplineSet
Validated: 1
Substitution2: "'c2sc' caps to small caps in Cyrillic-1" sc.cyr_hardsign
EndChar

StartChar: Softsigncyr
Encoding: 1068 1068 596
Width: 624
Flags: HMW
AnchorPoint: "cyr-above" 454 695 basechar 0
LayerCount: 2
Fore
SplineSet
213 607 m 0
 213 635.213 192.505 636.499 140 644 c 1
 140 669 l 1
 438 669 l 1
 438 644 l 1
 387 638 372 625 356 572 c 2
 301 373 l 1
 471.336 371.729 593 356 593 218 c 0
 593 74 444 0 275 0 c 2
 0 0 l 1
 0 25 l 1
 49 31 65.626 44.5273 80 97 c 2
 203 546 l 2
 208 564 213 595 213 607 c 0
222 78 m 2
 221 74 218 63 218 59 c 0
 218 43 233 35 260 35 c 0
 367 35 430 152 430 259 c 0
 430 329 376 338 293 338 c 1
 222 78 l 2
EndSplineSet
Validated: 1
Substitution2: "'c2sc' caps to small caps in Cyrillic-1" sc.cyr_softsign
EndChar

StartChar: Ereversedcyr
Encoding: 1069 1069 597
Width: 689
Flags: HMW
AnchorPoint: "cyr-above" 446 695 basechar 0
LayerCount: 2
Fore
SplineSet
522 342 m 1
 499 318 464 297 419 297 c 0
 349 297 296 353 237 353 c 0
 211 353 193 350 173 333 c 1
 159 349 l 1
 193 393 247 417 284 417 c 0
 354 417 406 363 465 363 c 0
 527 363 545 436 545 506 c 0
 545 604 503 652 421 652 c 0
 374 652 321 638 273 602 c 0
 220 562 187 530 131 454 c 1
 106 454 l 1
 169 685 l 1
 196 685 l 1
 201 650 210 642 229 642 c 0
 238 642 254 647 279 656 c 0
 343 678 395 685 443 685 c 0
 606 685 708 587 708 437 c 0
 708 324 628 -19 253 -19 c 0
 139 -19 35 60 0 137 c 1
 21 153 l 1
 57 98 149 34 241 34 c 0
 327 34 469 70 522 342 c 1
EndSplineSet
Validated: 1
Substitution2: "'c2sc' caps to small caps in Cyrillic-1" ereversedcyr
EndChar

StartChar: IUcyr
Encoding: 1070 1070 598
Width: 1038
Flags: HMW
AnchorPoint: "cyr-above" 565 695 basechar 0
LayerCount: 2
Fore
SplineSet
816 651 m 0
 752 651 699 610 648 520 c 0
 593 424 542 239 542 137 c 0
 542 63 581 16 644 16 c 0
 698 16 743 46 789 113 c 0
 856 211 918 411 918 531 c 0
 918 603 877 651 816 651 c 0
213 607 m 0
 213 635.213 192.505 636.499 140 644 c 1
 140 669 l 1
 438 669 l 1
 438 644 l 1
 387 638 372 625 356 572 c 2
 301 366 l 1
 426 366 l 1
 461 458 527 552 605 609 c 0
 673 659 747 685 820 685 c 0
 959 685 1062 587 1062 454 c 0
 1062 308 980 149 856 58 c 0
 789 8 713 -18 634 -18 c 0
 493 -18 398 78 398 221 c 0
 398 255 404 291 414 326 c 1
 289 326 l 1
 242 152 l 2
 229 103 224 80 224 65 c 0
 224 37 239 28 296 25 c 1
 296 0 l 1
 0 0 l 1
 0 25 l 1
 49 31 64 45 80 97 c 2
 203 546 l 2
 208 564 213 595 213 607 c 0
EndSplineSet
Validated: 1
Substitution2: "'c2sc' caps to small caps in Cyrillic-1" sc.cyr_iu
EndChar

StartChar: IAcyr
Encoding: 1071 1071 599
Width: 757
Flags: HMW
AnchorPoint: "cyr-above" 566 695 basechar 0
LayerCount: 2
Fore
SplineSet
383 304 m 1
 384 312 l 1
 332 323 245 350 245 442 c 0
 245 560 347 669 554 669 c 2
 827 669 l 1
 827 644 l 1
 776 638 760 625 745 572 c 2
 631 152 l 2
 618 103 613 80 613 65 c 0
 613 37 628 28 685 25 c 1
 685 0 l 1
 388 0 l 1
 388 25 l 1
 437 31 454 45 469 97 c 2
 524 299 l 1
 497 299 l 2
 468.177 299 433.918 296.572 398 249 c 2
 210 0 l 1
 0 0 l 1
 1 25 l 1
 48 27 67 48 84 63 c 1
 230 235 l 2
 283 297 350 304 383 304 c 1
605 592 m 2
 606.197 596.19 606.767 600.134 606.767 603.812 c 0
 606.767 624.708 588.361 637 562 637 c 0
 469 637 397 541 397 426 c 0
 397 363.466 421.631 333.44 507.08 333 c 2
 533 333 l 1
 605 592 l 2
EndSplineSet
Validated: 1
Substitution2: "'c2sc' caps to small caps in Cyrillic-1" sc.cyr_ia
EndChar

StartChar: becyr
Encoding: 1073 1073 601
Width: 478
Flags: HMW
AnchorPoint: "cyr-above" 370 695 basechar 0
LayerCount: 2
Fore
SplineSet
354 369 m 0
 354 402 344 433 306 433 c 0
 203 433 148 166 148 86 c 0
 148 50 156 16 200 16 c 0
 296 16 354 294 354 369 c 0
84 317 m 1
 131 394 222.851 462 316 462 c 0
 407 462 473 399 473 311 c 0
 473 142 337 -13 188 -13 c 0
 96 -13 29 45.5 29 149 c 0
 29 325 84.4775 461.888 202 562 c 0
 337 677 534 646 566 690 c 1
 588 690 l 1
 496 482 332 602 170 479 c 0
 140.37 456.503 99 401 81 317 c 1
 84 317 l 1
EndSplineSet
Validated: 1
Substitution2: "'smcp' lowercase to small caps in Cyrillic-1" sc.cyr_be
Substitution2: "'locl' local. forms in Cyrillic for South Slavic" cyr_serb_be
EndChar

StartChar: vecyr
Encoding: 1074 1074 602
Width: 467
Flags: HMW
AnchorPoint: "cyr-above" 316 481 basechar 0
LayerCount: 2
Fore
SplineSet
280 234 m 1
 280 232 l 1
 287 233 294 233 301 233 c 0
 385 233 416 181 416 144 c 0
 416 46 314 -13 194 -13 c 0
 71 -13 25 74 25 134 c 0
 25 299 164 462 338 462 c 0
 408 462 452 435 452 384 c 0
 452 304 344 259 280 234 c 1
148 173 m 1
 144 150 144 134 144 124 c 0
 144 50 165 16 209 16 c 0
 276 16 297 82 297 130 c 0
 297 154 288 203 235 203 c 0
 216 203 178 190 148 173 c 1
149 210 m 1
 189 220 350 278 350 376 c 0
 350 401 343 429 306 429 c 0
 232 429 165 339 149 210 c 1
EndSplineSet
Validated: 1
Substitution2: "'smcp' lowercase to small caps in Cyrillic-1" sc.b
Substitution2: "'ss01' style set 1 in Cyrillic for Bulgarian-1" cyr_bulg_alt_ve
EndChar

StartChar: gecyr
Encoding: 1075 1075 603
Width: 377
Flags: HMW
AnchorPoint: "cyr-above" 258 481 basechar 0
LayerCount: 2
Fore
SplineSet
176 40 m 0
 219 40 260 52 298 110 c 1
 315 98 l 1
 274 29 230 -13 121 -13 c 0
 37 -13 5 39 5 78 c 0
 5 144 63 188 133 240 c 0
 192 284 249 316 249 366 c 0
 249 398 230 408 198 408 c 0
 155 408 120 392 76 338 c 1
 59 350 l 1
 130 452 193 462 256 462 c 0
 337 462 371 413 371 374 c 0
 371 308 329 268 241 205 c 0
 186 166 127 134 127 84 c 0
 127 52 144 40 176 40 c 0
EndSplineSet
Validated: 1
Substitution2: "'smcp' lowercase to small caps in Cyrillic-1" sc.gamma
Substitution2: "'locl' local. forms in Cyrillic for South Slavic" cyr_serb_ge
EndChar

StartChar: decyr
Encoding: 1076 1076 604
Width: 456
Flags: HMW
AnchorPoint: "cyr-above" 369 695 basechar 0
LayerCount: 2
Fore
SplineSet
164 672 m 1
 208 699 l 1
 282 689 468 598 468 372 c 0
 468 163 337 -13 182 -13 c 0
 92 -13 24 50 24 134 c 0
 24 299 161 462 299 462 c 0
 330 462 351 449 370 420 c 1
 372 424 l 1
 342 612 204 665 164 672 c 1
303 433 m 0
 270 433 242 411 216 365 c 0
 180 300 143 159 143 86 c 0
 143 39 159 16 192 16 c 0
 227 16 257 45 286 107 c 0
 318 178 349 307 349 375 c 0
 349 411 331 433 303 433 c 0
EndSplineSet
Validated: 1
Substitution2: "'locl' local. forms in Cyrillic for South Slavic" cyr_alt_de
Substitution2: "'smcp' lowercase to small caps in Cyrillic-1" sc.cyr_de
Substitution2: "'ss01' style set 1 in Cyrillic for Bulgarian-1" cyr_alt_de
EndChar

StartChar: zhecyr
Encoding: 1078 1078 606
Width: 941
Flags: HMW
AnchorPoint: "cyr-above" 539 481 basechar 0
LayerCount: 2
Fore
SplineSet
358 249 m 1
 413 249 l 1
 472 449 l 1
 595 449 l 1
 533 249 l 1
 590 249 l 1
 636 368 715 462 826 462 c 0
 882 462 930 425 930 372 c 0
 930 331 909 302 873 302 c 0
 847 302 826 314 826 346 c 0
 826 378 847 372 847 400 c 0
 847 410 846 429 817 429 c 0
 718.487 429 683 226.5 683 168 c 0
 683 114 690 51 750 51 c 0
 799 51 834 82 860 114 c 1
 881 96 l 1
 856 54 804 -13 704 -13 c 0
 647 -13 569 31 569 120 c 0
 569 139 569 178 579 214 c 1
 525 214 l 1
 464 0 l 1
 345 0 l 1
 407 214 l 1
 348 214 l 1
 306 94 218 -13 107 -13 c 0
 51 -13 3 24 3 77 c 0
 3 118 24 147 60 147 c 0
 86 147 107 135 107 103 c 0
 107 71 86 77 86 49 c 0
 86 39 87 20 116 20 c 0
 214.513 20 250 222.5 250 281 c 0
 250 335 243 398 183 398 c 0
 134 398 99 367 73 335 c 1
 52 353 l 1
 77 395 129 462 229 462 c 0
 286 462 364 418 364 329 c 0
 364 310 363.5 278.5 358 249 c 1
EndSplineSet
Validated: 1
Substitution2: "'smcp' lowercase to small caps in Cyrillic-1" sc.cyr_zhe
Substitution2: "'ss01' style set 1 in Cyrillic for Bulgarian-1" cyr_bulg_alt_zhe
EndChar

StartChar: zecyr
Encoding: 1079 1079 607
Width: 458
Flags: HMW
AnchorPoint: "cyr-below" 190 0 basechar 0
AnchorPoint: "cyr-above" 291 481 basechar 0
LayerCount: 2
Fore
SplineSet
98 315 m 1
 73 315 l 1
 113 460 l 1
 135 460 l 1
 137 445 142 440 154 440 c 0
 165 440 186 446 201 450 c 0
 223 455 255 462 282 462 c 0
 373 462 431 422 431 361 c 0
 431 282 368 252 318 238 c 1
 317 233 l 1
 358 224 403 185 403 130 c 0
 403 79 368 -14 188 -14 c 0
 120 -14 38 24 7 91 c 1
 30 109 l 1
 68 59 130 32 176 32 c 0
 259 32 279 101 279 138 c 0
 279 186 243 220 185 221 c 1
 196 254 l 1
 275 254 316 274 316 354 c 0
 316 400 284 426 234 426 c 0
 174 426 125 370 98 315 c 1
EndSplineSet
Validated: 1
EndChar

StartChar: kacyr
Encoding: 1082 1082 610
Width: 538
Flags: HMW
AnchorPoint: "cyr-above" 314 481 basechar 0
LayerCount: 2
Fore
SplineSet
197 230 m 1
 133 0 l 1
 14 0 l 1
 106 328 l 2
 113 354 117 367 117 376 c 0
 117 400 103 406 62 407 c 1
 62 434 l 1
 118 436 196 447 260 461 c 1
 206 265 l 1
 227 265 l 2
 260 265 310 330 333 368 c 0
 347 390 395 465 472 465 c 0
 506 465 530 438 530 408 c 0
 530 377 503 355 472 355 c 0
 452 355 440 366 432 374 c 0
 429 376 418 380 414 380 c 0
 404 380 392 374 382 365 c 0
 360 344 323 270 273 250 c 1
 273 244 l 1
 306 241 350 226 372 166 c 0
 379 146 398 53 432 53 c 0
 458 53 489 90 496 114 c 1
 516 102 l 1
 516 102 468 -10 385 -10 c 0
 284 -10 276 59 264 172 c 0
 258 230 225 230 207 230 c 2
 197 230 l 1
EndSplineSet
Validated: 1
Substitution2: "'smcp' lowercase to small caps in Cyrillic-1" sc.cyr_ka
Substitution2: "'ss01' style set 1 in Cyrillic for Bulgarian-1" k
EndChar

StartChar: elcyr
Encoding: 1083 1083 611
Width: 580
Flags: HMW
AnchorPoint: "cyr-above" 433 481 basechar 0
LayerCount: 2
Fore
SplineSet
47 104 m 0
 94.876 104 93.8301 51 130.718 51 c 0
 168.718 51 181 110 193 144 c 2
 247 318 l 2
 286.619 445.657 336 462 432 462 c 0
 492.875 462 541.172 433.962 541.172 383.193 c 0
 541.172 374.75 539.836 365.677 537 356 c 2
 469 124 l 2
 458.711 88.4268 457 78 457 72.5 c 0
 457 62.5 463 59 471 59 c 0
 488 59 501 73 541 135 c 1
 563 122 l 1
 505 25 463 -9 404 -9 c 0
 362 -9 336 14 336 51 c 0
 336 77 339 83 353 132 c 2
 413 338 l 2
 416.9 351.209 418.803 363.059 418.803 373.297 c 0
 418.803 400.227 405.635 416 381 416 c 0
 343 416 305.275 398.182 283 328 c 2
 214 114 l 2
 200 70 175 -10 74 -10 c 0
 33 -10 0 23 0 51 c 0
 0 88 23 104 47 104 c 0
EndSplineSet
Validated: 1
Substitution2: "'smcp' lowercase to small caps in Cyrillic-1" sc.cyr_el
EndChar

StartChar: emcyr
Encoding: 1084 1084 612
Width: 752
Flags: HMW
AnchorPoint: "cyr-above" 494 481 basechar 0
LayerCount: 2
Fore
SplineSet
193 144 m 2
 247 318 l 2
 254.246 340.924 259 355 259 375 c 0
 259 396 244 404 198 407 c 1
 198 434 l 1
 277 437 378 457 407 462 c 1
 414 154 l 1
 598 449 l 1
 735 449 l 1
 641 123 l 2
 631 87 629 77 629 72 c 0
 629 62 635 58 643 58 c 0
 660 58 673 72 713 134 c 1
 735 121 l 1
 677 25 635 -9 576 -9 c 0
 534 -9 508 14 508 51 c 0
 508 77 511 83 525 132 c 2
 602 400 l 1
 339 -18 l 1
 307 -18 l 1
 295 366 l 1
 214 114 l 2
 199.713 70.0928 175 -10 74 -10 c 0
 33 -10 0 23 0 51 c 0
 0 88 23 104 47 104 c 0
 68.5 104 83 91.5 93 77.8457 c 0
 102.438 64.96 111 51 130.718 51 c 0
 168.718 51 182.133 109.621 193 144 c 2
EndSplineSet
Validated: 1
Substitution2: "'smcp' lowercase to small caps in Cyrillic-1" sc.m
EndChar

StartChar: encyr
Encoding: 1085 1085 613
Width: 533
Flags: HMW
AnchorPoint: "cyr-above" 328 481 basechar 0
LayerCount: 2
Fore
SplineSet
516 122 m 1
 457 25 415 -9 356 -9 c 0
 314 -9 288 14 288 51 c 0
 288 77 300 134 316 182 c 2
 326 214 l 1
 194 214 l 1
 135 0 l 1
 16 0 l 1
 72 204 l 2
 105 324 118 371 118 382 c 0
 118 401 106 406 64 407 c 1
 64 434 l 1
 120 436 196 447 260 461 c 1
 204 249 l 1
 336 249 l 1
 395 449 l 1
 516 449 l 1
 422 124 l 2
 411.711 88.4268 410 78 410 72.5 c 0
 410 62.5 416 59 424 59 c 0
 441 59 454 73 494 135 c 1
 516 122 l 1
EndSplineSet
Validated: 1
Substitution2: "'smcp' lowercase to small caps in Cyrillic-1" sc.h
Substitution2: "'sups' superscript-phonetic" encyrsup
EndChar

StartChar: ucyr
Encoding: 1091 1091 619
Width: 496
Flags: HMW
AnchorPoint: "cyr-above" 336 481 basechar 0
LayerCount: 2
Fore
SplineSet
518 449 m 1
 500 386 420 116 420 116 c 2
 385.873 0.0371094 333 -204 106 -204 c 0
 55 -204 2 -178 2 -136 c 0
 2 -80 36 -74 50 -74 c 0
 77 -74 99 -91 99 -123 c 0
 99 -141 92 -137 92 -155 c 0
 92 -170 109 -172 120 -172 c 0
 234 -172 249.588 -87.8838 290 55 c 2
 318 154 l 1
 316 155 l 1
 270 91 211 -9 122 -9 c 0
 67 -9 45 17 45 69 c 0
 45 168 120 283 120 378 c 0
 120 408 85 406 64 407 c 1
 64 434 l 1
 135 437 203 456 273 462 c 1
 179 154 l 2
 172 132 164 110 164 87 c 0
 164 71 171 63 187 63 c 0
 225 63 284 150 301 182 c 0
 347 266 374 358 400 449 c 1
 518 449 l 1
EndSplineSet
Validated: 1
Substitution2: "'smcp' lowercase to small caps in Cyrillic-1" sc.cyr_u
EndChar

StartChar: efcyr
Encoding: 1092 1092 620
Width: 759
Flags: HMW
AnchorPoint: "cyr-above" 541 705 basechar 0
LayerCount: 2
Fore
SplineSet
475 30 m 0
 571 30 622 282 622 336 c 0
 622 390 600 429 557 429 c 0
 515 429 480 389 472 345 c 2
 425 127 l 2
 422.745 113.469 418.935 96.4053 418.935 80.377 c 0
 418.935 53.7617 429.439 30 475 30 c 0
297 429 m 0
 205 429 154 182 154 133 c 0
 154 79 172 30 215 30 c 0
 257 30 296 80 304 124 c 2
 351 342 l 2
 353.041 354.247 355.892 368.229 355.892 381.35 c 0
 355.892 406.797 345.166 429 297 429 c 0
376 431 m 1
 394 489 433 698 590 698 c 0
 641 698 688 674 688 618 c 0
 688 587 667 565 636 565 c 0
 608 565 588 588 588 615 c 0
 588 633 604 649 604 655 c 0
 604 665 596 669 587 669 c 0
 533 669 511 506 492 429 c 1
 495 428 l 1
 521 451 550 462 604 462 c 0
 691 462 755 399 755 315 c 0
 755 150 611 -13 467 -13 c 0
 442 -13 413 -1 398 36 c 1
 396 35 l 1
 365 -102 312 -205 197 -205 c 0
 143 -205 100 -179 100 -121 c 0
 100 -97 127 -72 151 -72 c 0
 177 -72 201 -95 201 -121 c 0
 201 -140 185 -157 185 -162 c 0
 185 -171 194 -174 201 -174 c 0
 253 -174 280 -5 290 40 c 1
 287 41 l 1
 264 6 233 -13 175 -13 c 0
 88 -13 24 50 24 134 c 0
 24 299 168 462 312 462 c 0
 348 462 363 448 374 431 c 1
 376 431 l 1
EndSplineSet
Validated: 1
Substitution2: "'smcp' lowercase to small caps in Cyrillic-1" sc.phi
EndChar

StartChar: tsecyr
Encoding: 1094 1094 622
Width: 529
Flags: HMW
AnchorPoint: "cyr-above" 327 481 basechar 0
LayerCount: 2
Fore
SplineSet
422 16 m 1
 404 0 368 -9 351 -9 c 0
 307 -9 286 11 286 51 c 0
 286 79 292 106 310 161 c 1
 207 17 177 -9 110 -9 c 0
 61 -9 35 16 35 65 c 0
 35 89 42 125 56 173 c 2
 96 306 l 2
 105 335 110 363 110 379 c 0
 110 399 100 404 54 407 c 1
 54 434 l 1
 102 436 161 444 235 457 c 0
 251 460 257 461 263 462 c 1
 169 154 l 2
 156 111 154 103 154 88 c 0
 154 71 161 63 175 63 c 0
 195 63 217 80 248 118 c 0
 305 190 334 256 390 449 c 1
 508 449 l 1
 430 181 l 2
 416 132 405 97 405 76 c 0
 405 67 411 59 419 59 c 0
 436 59 456 80 491 133 c 1
 512 120 l 1
 490 82 458 50 458 17 c 0
 458 -10 484 -15 484 -76 c 0
 484 -136 392 -180 392 -180 c 1
 376 -160 l 1
 394 -148 414 -136 414 -110 c 0
 414 -86 405 -70 405 -48 c 0
 405 -26 422 4 422 16 c 1
EndSplineSet
Validated: 1
Substitution2: "'smcp' lowercase to small caps in Cyrillic-1" sc.cyr_tse
EndChar

StartChar: checyr
Encoding: 1095 1095 623
Width: 529
Flags: HMW
AnchorPoint: "cyr-above" 330 481 basechar 0
LayerCount: 2
Fore
SplineSet
508 449 m 1
 414 124 l 2
 403.711 88.4268 402 78 402 72.5 c 0
 402 62.5 408 59 416 59 c 0
 433 59 450 72 490 134 c 1
 512 121 l 1
 460 32 411 -9 351 -9 c 0
 307 -9 286 11 286 51 c 0
 286 79 331 239 349 294 c 1
 246 150 216 124 149 124 c 0
 100 124 74 149 74 198 c 0
 74 222 81 258 95 306 c 2
 101 328 l 2
 109 357 110 363 110 379 c 0
 110 399 100 404 54 407 c 1
 54 434 l 1
 102 436 161 444 235 457 c 0
 251 460 257 461 263 462 c 1
 208 287 l 2
 195 244 193 236 193 221 c 0
 193 204 200 196 214 196 c 0
 234 196 256 213 287 251 c 0
 344 323 353 323 390 449 c 1
 508 449 l 1
EndSplineSet
Validated: 1
Substitution2: "'smcp' lowercase to small caps in Cyrillic-1" sc.cyr_che
EndChar

StartChar: shacyr
Encoding: 1096 1096 624
Width: 776
Flags: HMW
AnchorPoint: "cyr-above" 449 481 basechar 0
LayerCount: 2
Fore
SplineSet
758 449 m 1
 665 121 l 2
 654.711 85.4268 653 75 653 69.5 c 0
 653 59.5 659 56 667 56 c 0
 684 56 697 70 737 132 c 1
 759 119 l 1
 707 30 661 -9 601 -9 c 0
 557 -9 536 11 536 51 c 0
 536 79 542 106 560 161 c 1
 457 17 427 -9 360 -9 c 0
 316 -9 286 11 286 51 c 0
 286 79 292 106 310 161 c 1
 207 17 177 -9 110 -9 c 0
 61 -9 35 16 35 65 c 0
 35 89 42 125 56 173 c 2
 96 306 l 2
 105 335 110 363 110 379 c 0
 110 399 100 404 54 407 c 1
 54 434 l 1
 133.332 437.305 234.415 457.236 263 462 c 1
 169 154 l 2
 156 111 154 103 154 88 c 0
 154 71 161 63 175 63 c 0
 195 63 217 80 248 118 c 0
 305 190 334 256 390 449 c 1
 508 449 l 1
 430 181 l 2
 410.352 113.491 407.56 98.5635 407.56 91.8652 c 0
 407.56 89.2051 408 87.8428 408 85 c 0
 408 68 411 63 425 63 c 0
 445 63 467 80 498 118 c 0
 555 190 584 256 640 449 c 1
 758 449 l 1
EndSplineSet
Validated: 1
Substitution2: "'smcp' lowercase to small caps in Cyrillic-1" sc.cyr_sha
Substitution2: "'cv01' char. variant in Cyrillic for South Slavic-1" cyr_serb_alt_sha
EndChar

